# MagicaVoxel @ Ephtracy

# group
o 

# material
mtllib MA_Knight_Green.mtl
usemtl palette

# normals
vn -1 0 0
vn 1 0 0
vn 0 0 1
vn 0 0 -1
vn 0 -1 0
vn 0 1 0

# texcoords
vt 0.0605469 0.5
vt 0.744141 0.5
vt 0.771484 0.5
vt 0.794922 0.5
vt 0.888672 0.5
vt 0.900391 0.5
vt 0.904297 0.5
vt 0.908203 0.5
vt 0.970703 0.5
vt 0.974609 0.5
vt 0.978516 0.5
vt 0.982422 0.5
vt 0.986328 0.5
vt 0.990234 0.5
vt 0.994141 0.5

# verts
v 0.5 2.8 -0.6
v 0.5 2.8 -0.7
v 0.5 2.8 -0.9
v 0.5 2.8 -1
v 0.5 2.9 -0.5
v 0.5 2.9 -0.6
v 0.5 2.9 -1
v 0.5 2.9 -1.1
v 0.5 3.4 -0.6
v 0.5 3.4 -0.7
v 0.5 3.4 -0.9
v 0.5 3.4 -1
v 0.5 3.5 -0.6
v 0.5 3.5 -1
v 0.5 3.6 -0.5
v 0.5 3.6 -1.1
v 0.5 3.7 -0.5
v 0.5 3.7 -1.1
v 0.6 2 -0.5
v 0.6 2 -0.7
v 0.6 2 -0.9
v 0.6 2 -1.1
v 0.6 2.1 -0.5
v 0.6 2.1 -0.7
v 0.6 2.1 -0.9
v 0.6 2.1 -1.1
v 0.6 2.4 -0.7
v 0.6 2.4 -0.9
v 0.6 2.5 -0.6
v 0.6 2.5 -0.7
v 0.6 2.5 -0.9
v 0.6 2.5 -1
v 0.6 2.8 -0.6
v 0.6 2.8 -0.7
v 0.6 2.8 -0.9
v 0.6 2.8 -1
v 0.6 3 -0.4
v 0.6 3 -0.5
v 0.6 3 -0.7
v 0.6 3 -0.9
v 0.6 3 -1.1
v 0.6 3 -1.2
v 0.6 3.4 -0.6
v 0.6 3.4 -0.7
v 0.6 3.4 -0.9
v 0.6 3.4 -1
v 0.6 3.5 -0.4
v 0.6 3.5 -0.5
v 0.6 3.5 -0.6
v 0.6 3.5 -0.7
v 0.6 3.5 -0.9
v 0.6 3.5 -1
v 0.6 3.5 -1.1
v 0.6 3.5 -1.2
v 0.6 3.7 -0.6
v 0.6 3.7 -1
v 0.6 3.8 -0.6
v 0.6 3.8 -1
v 0.7 2.1 -0.5
v 0.7 2.1 -0.7
v 0.7 2.1 -0.9
v 0.7 2.1 -1.1
v 0.7 2.4 -0.3
v 0.7 2.4 -0.5
v 0.7 2.4 -0.7
v 0.7 2.4 -0.9
v 0.7 2.4 -1.1
v 0.7 2.4 -1.3
v 0.7 2.5 -0.3
v 0.7 2.5 -0.5
v 0.7 2.5 -0.6
v 0.7 2.5 -0.7
v 0.7 2.5 -0.9
v 0.7 2.5 -1
v 0.7 2.5 -1.1
v 0.7 2.5 -1.3
v 0.7 2.8 -0.3
v 0.7 2.8 -0.6
v 0.7 2.8 -1
v 0.7 2.8 -1.3
v 0.7 2.9 -0.3
v 0.7 2.9 -0.5
v 0.7 2.9 -0.6
v 0.7 2.9 -1
v 0.7 2.9 -1.1
v 0.7 2.9 -1.3
v 0.7 3 -0.3
v 0.7 3 -0.4
v 0.7 3 -0.5
v 0.7 3 -0.6
v 0.7 3 -1
v 0.7 3 -1.1
v 0.7 3 -1.2
v 0.7 3 -1.3
v 0.7 3.4 -0.3
v 0.7 3.4 -0.4
v 0.7 3.4 -1.2
v 0.7 3.4 -1.3
v 0.7 3.5 -0.4
v 0.7 3.5 -0.5
v 0.7 3.5 -1.1
v 0.7 3.5 -1.2
v 0.7 3.6 -0.4
v 0.7 3.6 -0.5
v 0.7 3.6 -1.1
v 0.7 3.6 -1.2
v 0.8 3.8 -0.7
v 0.8 3.8 -0.9
v 0.8 4 -0.7
v 0.8 4 -0.9
v 0.8 4.1 -0.7
v 0.8 4.1 -0.9
v 0.9 4.1 -0.7
v 0.9 4.1 -0.9
v 0.9 4.2 -0.7
v 0.9 4.2 -0.9
v 1 4.2 -0.7
v 1 4.2 -0.9
v 1 4.3 -0.7
v 1 4.3 -0.9
v 0.6 2.9 -0.5
v 0.6 2.9 -0.6
v 0.6 2.9 -1
v 0.6 2.9 -1.1
v 0.6 3 -0.5
v 0.6 3 -0.6
v 0.6 3 -1
v 0.6 3 -1.1
v 0.9 2 -0.5
v 0.9 2 -0.7
v 0.9 2 -0.9
v 0.9 2 -1.1
v 0.9 2.1 -0.5
v 0.9 2.1 -0.7
v 0.9 2.1 -0.9
v 0.9 2.1 -1.1
v 0.9 2.4 -0.3
v 0.9 2.4 -0.5
v 0.9 2.4 -0.7
v 0.9 2.4 -0.9
v 0.9 2.4 -1.1
v 0.9 2.4 -1.3
v 0.9 2.5 -0.3
v 0.9 2.5 -0.5
v 0.9 2.5 -0.6
v 0.9 2.5 -1
v 0.9 2.5 -1.1
v 0.9 2.5 -1.3
v 0.9 2.8 -0.3
v 0.9 2.8 -0.6
v 0.9 2.8 -1
v 0.9 2.8 -1.3
v 0.9 2.9 -0.3
v 0.9 2.9 -0.5
v 0.9 2.9 -0.6
v 0.9 2.9 -1
v 0.9 2.9 -1.1
v 0.9 2.9 -1.3
v 0.9 3 -0.3
v 0.9 3 -0.4
v 0.9 3 -0.5
v 0.9 3 -0.6
v 0.9 3 -1
v 0.9 3 -1.1
v 0.9 3 -1.2
v 0.9 3 -1.3
v 0.9 3.4 -0.3
v 0.9 3.4 -0.4
v 0.9 3.4 -1.2
v 0.9 3.4 -1.3
v 0.9 3.5 -0.4
v 0.9 3.5 -0.5
v 0.9 3.5 -1.1
v 0.9 3.5 -1.2
v 0.9 3.6 -0.4
v 0.9 3.6 -0.5
v 0.9 3.6 -1.1
v 0.9 3.6 -1.2
v 0.9 3.8 -0.7
v 0.9 3.8 -0.9
v 0.9 4 -0.7
v 0.9 4 -0.9
v 0.9 4.1 -0.7
v 0.9 4.1 -0.9
v 1 2.5 -0.6
v 1 2.5 -1
v 1 3 -0.4
v 1 3 -0.5
v 1 3 -0.6
v 1 3 -0.7
v 1 3 -1
v 1 3 -1.1
v 1 3 -1.2
v 1 3.5 -0.4
v 1 3.5 -0.5
v 1 3.5 -1.1
v 1 3.5 -1.2
v 1 3.7 -0.6
v 1 3.7 -1
v 1 3.8 -0.6
v 1 3.8 -1
v 1 4.1 -0.7
v 1 4.1 -0.9
v 1 4.2 -0.7
v 1 4.2 -0.9
v 1.1 3 -0.5
v 1.1 3 -0.6
v 1.1 3 -0.7
v 1.1 3 -1.1
v 1.1 3.1 -0.6
v 1.1 3.1 -0.7
v 1.1 3.1 -0.8
v 1.1 3.2 -0.7
v 1.1 3.2 -0.8
v 1.1 3.4 -0.8
v 1.1 3.4 -0.9
v 1.1 3.5 -0.5
v 1.1 3.5 -0.6
v 1.1 3.5 -0.8
v 1.1 3.5 -0.9
v 1.1 3.5 -1
v 1.1 3.6 -0.5
v 1.1 3.6 -0.6
v 1.1 3.6 -0.9
v 1.1 3.6 -1
v 1.1 3.6 -1.1
v 1.1 3.7 -0.5
v 1.1 3.7 -1.1
v 1.2 4.2 -0.7
v 1.2 4.2 -0.9
v 1.2 4.3 -0.7
v 1.2 4.3 -0.9
v 0.7 2.4 -0.3
v 0.7 2.5 -0.3
v 0.7 2.8 -0.3
v 0.7 2.9 -0.3
v 0.7 3 -0.3
v 0.7 3.4 -0.3
v 0.9 2.4 -0.3
v 0.9 2.5 -0.3
v 0.9 2.8 -0.3
v 0.9 2.9 -0.3
v 0.9 3 -0.3
v 0.9 3.4 -0.3
v 0.6 3 -0.4
v 0.6 3.5 -0.4
v 0.7 3 -0.4
v 0.7 3.4 -0.4
v 0.7 3.5 -0.4
v 0.7 3.6 -0.4
v 0.9 3 -0.4
v 0.9 3.4 -0.4
v 0.9 3.5 -0.4
v 0.9 3.6 -0.4
v 1 3 -0.4
v 1 3.5 -0.4
v 0.5 2.9 -0.5
v 0.5 3.6 -0.5
v 0.5 3.7 -0.5
v 0.6 2 -0.5
v 0.6 2.1 -0.5
v 0.6 2.9 -0.5
v 0.6 3 -0.5
v 0.6 3.5 -0.5
v 0.7 2 -0.5
v 0.7 2.1 -0.5
v 0.7 2.4 -0.5
v 0.7 2.9 -0.5
v 0.7 3 -0.5
v 0.7 3.5 -0.5
v 0.7 3.6 -0.5
v 0.9 2 -0.5
v 0.9 2.1 -0.5
v 0.9 2.4 -0.5
v 0.9 2.9 -0.5
v 0.9 3 -0.5
v 0.9 3.5 -0.5
v 0.9 3.6 -0.5
v 1 3 -0.5
v 1 3.5 -0.5
v 1.1 3 -0.5
v 1.1 3.5 -0.5
v 1.1 3.6 -0.5
v 1.1 3.7 -0.5
v 0.5 2.8 -0.6
v 0.5 2.9 -0.6
v 0.6 2.5 -0.6
v 0.6 2.8 -0.6
v 0.6 2.9 -0.6
v 0.6 3 -0.6
v 0.6 3.7 -0.6
v 0.6 3.8 -0.6
v 0.7 2.5 -0.6
v 0.7 2.8 -0.6
v 0.7 2.9 -0.6
v 0.7 3 -0.6
v 0.9 2.5 -0.6
v 0.9 2.8 -0.6
v 0.9 2.9 -0.6
v 0.9 3 -0.6
v 1 2.5 -0.6
v 1 3 -0.6
v 1 3.7 -0.6
v 1 3.8 -0.6
v 0.6 2.4 -0.7
v 0.6 2.5 -0.7
v 0.7 2.4 -0.7
v 0.7 2.5 -0.7
v 0.8 3.8 -0.7
v 0.8 4 -0.7
v 0.8 4.1 -0.7
v 0.9 3.8 -0.7
v 0.9 4 -0.7
v 0.9 4.1 -0.7
v 0.9 4.2 -0.7
v 1 4.1 -0.7
v 1 4.2 -0.7
v 1 4.3 -0.7
v 1.2 4.2 -0.7
v 1.2 4.3 -0.7
v 0.5 2.8 -0.9
v 0.5 3.4 -0.9
v 0.6 2 -0.9
v 0.6 2.1 -0.9
v 0.6 2.8 -0.9
v 0.6 3 -0.9
v 0.6 3.4 -0.9
v 0.7 2 -0.9
v 0.7 2.1 -0.9
v 0.7 2.4 -0.9
v 0.9 2 -0.9
v 0.9 2.1 -0.9
v 0.9 2.4 -0.9
v 0.5 3.4 -1
v 0.5 3.5 -1
v 0.6 3.4 -1
v 0.6 3.5 -1
v 0.5 3.4 -0.6
v 0.5 3.5 -0.6
v 0.6 3.4 -0.6
v 0.6 3.5 -0.6
v 0.5 2.8 -0.7
v 0.5 3.4 -0.7
v 0.6 2 -0.7
v 0.6 2.1 -0.7
v 0.6 2.8 -0.7
v 0.6 3 -0.7
v 0.6 3.4 -0.7
v 0.7 2 -0.7
v 0.7 2.1 -0.7
v 0.7 2.4 -0.7
v 0.9 2 -0.7
v 0.9 2.1 -0.7
v 0.9 2.4 -0.7
v 0.6 2.4 -0.9
v 0.6 2.5 -0.9
v 0.7 2.4 -0.9
v 0.7 2.5 -0.9
v 0.8 3.8 -0.9
v 0.8 4 -0.9
v 0.8 4.1 -0.9
v 0.9 3.8 -0.9
v 0.9 4 -0.9
v 0.9 4.1 -0.9
v 0.9 4.2 -0.9
v 1 4.1 -0.9
v 1 4.2 -0.9
v 1 4.3 -0.9
v 1.2 4.2 -0.9
v 1.2 4.3 -0.9
v 0.5 2.8 -1
v 0.5 2.9 -1
v 0.6 2.5 -1
v 0.6 2.8 -1
v 0.6 2.9 -1
v 0.6 3 -1
v 0.6 3.7 -1
v 0.6 3.8 -1
v 0.7 2.5 -1
v 0.7 2.8 -1
v 0.7 2.9 -1
v 0.7 3 -1
v 0.9 2.5 -1
v 0.9 2.8 -1
v 0.9 2.9 -1
v 0.9 3 -1
v 1 2.5 -1
v 1 3 -1
v 1 3.7 -1
v 1 3.8 -1
v 0.5 2.9 -1.1
v 0.5 3.6 -1.1
v 0.5 3.7 -1.1
v 0.6 2 -1.1
v 0.6 2.1 -1.1
v 0.6 2.9 -1.1
v 0.6 3 -1.1
v 0.6 3.5 -1.1
v 0.7 2 -1.1
v 0.7 2.1 -1.1
v 0.7 2.4 -1.1
v 0.7 2.9 -1.1
v 0.7 3 -1.1
v 0.7 3.5 -1.1
v 0.7 3.6 -1.1
v 0.9 2 -1.1
v 0.9 2.1 -1.1
v 0.9 2.4 -1.1
v 0.9 2.9 -1.1
v 0.9 3 -1.1
v 0.9 3.5 -1.1
v 0.9 3.6 -1.1
v 1 3 -1.1
v 1 3.5 -1.1
v 1.1 3 -1.1
v 1.1 3.6 -1.1
v 1.1 3.7 -1.1
v 0.6 3 -1.2
v 0.6 3.5 -1.2
v 0.7 3 -1.2
v 0.7 3.4 -1.2
v 0.7 3.5 -1.2
v 0.7 3.6 -1.2
v 0.9 3 -1.2
v 0.9 3.4 -1.2
v 0.9 3.5 -1.2
v 0.9 3.6 -1.2
v 1 3 -1.2
v 1 3.5 -1.2
v 0.7 2.4 -1.3
v 0.7 2.5 -1.3
v 0.7 2.8 -1.3
v 0.7 2.9 -1.3
v 0.7 3 -1.3
v 0.7 3.4 -1.3
v 0.9 2.4 -1.3
v 0.9 2.5 -1.3
v 0.9 2.8 -1.3
v 0.9 2.9 -1.3
v 0.9 3 -1.3
v 0.9 3.4 -1.3
v 0.6 2 -0.5
v 0.7 2 -0.5
v 0.9 2 -0.5
v 0.6 2 -0.7
v 0.7 2 -0.7
v 0.9 2 -0.7
v 0.6 2 -0.9
v 0.7 2 -0.9
v 0.9 2 -0.9
v 0.6 2 -1.1
v 0.7 2 -1.1
v 0.9 2 -1.1
v 0.7 2.4 -0.3
v 0.9 2.4 -0.3
v 0.7 2.4 -0.5
v 0.9 2.4 -0.5
v 0.6 2.4 -0.7
v 0.7 2.4 -0.7
v 0.9 2.4 -0.7
v 0.6 2.4 -0.9
v 0.7 2.4 -0.9
v 0.9 2.4 -0.9
v 0.7 2.4 -1.1
v 0.9 2.4 -1.1
v 0.7 2.4 -1.3
v 0.9 2.4 -1.3
v 0.6 2.5 -0.6
v 0.7 2.5 -0.6
v 0.9 2.5 -0.6
v 1 2.5 -0.6
v 0.6 2.5 -0.7
v 0.7 2.5 -0.7
v 0.6 2.5 -0.9
v 0.7 2.5 -0.9
v 0.6 2.5 -1
v 0.7 2.5 -1
v 0.9 2.5 -1
v 1 2.5 -1
v 0.5 2.8 -0.6
v 0.6 2.8 -0.6
v 0.5 2.8 -0.7
v 0.6 2.8 -0.7
v 0.5 2.8 -0.9
v 0.6 2.8 -0.9
v 0.5 2.8 -1
v 0.6 2.8 -1
v 0.5 2.9 -0.5
v 0.6 2.9 -0.5
v 0.5 2.9 -0.6
v 0.6 2.9 -0.6
v 0.5 2.9 -1
v 0.6 2.9 -1
v 0.5 2.9 -1.1
v 0.6 2.9 -1.1
v 0.7 3 -0.3
v 0.9 3 -0.3
v 0.6 3 -0.4
v 0.7 3 -0.4
v 0.9 3 -0.4
v 1 3 -0.4
v 0.6 3 -0.5
v 0.7 3 -0.5
v 0.9 3 -0.5
v 1 3 -0.5
v 1.1 3 -0.5
v 0.6 3 -0.6
v 0.7 3 -0.6
v 0.9 3 -0.6
v 1 3 -0.6
v 1.1 3 -0.6
v 1 3 -0.7
v 1.1 3 -0.7
v 0.6 3 -1
v 0.7 3 -1
v 0.9 3 -1
v 1 3 -1
v 0.6 3 -1.1
v 0.7 3 -1.1
v 0.9 3 -1.1
v 1 3 -1.1
v 1.1 3 -1.1
v 0.6 3 -1.2
v 0.7 3 -1.2
v 0.9 3 -1.2
v 1 3 -1.2
v 0.7 3 -1.3
v 0.9 3 -1.3
v 0.5 3.5 -0.6
v 0.6 3.5 -0.6
v 0.6 3.5 -0.7
v 0.6 3.5 -0.9
v 0.5 3.5 -1
v 0.6 3.5 -1
v 0.9 4.1 -0.7
v 1 4.1 -0.7
v 0.9 4.1 -0.9
v 1 4.1 -0.9
v 1 4.2 -0.7
v 1.2 4.2 -0.7
v 1 4.2 -0.9
v 1.2 4.2 -0.9
v 0.6 2.1 -0.5
v 0.7 2.1 -0.5
v 0.6 2.1 -0.7
v 0.7 2.1 -0.7
v 0.6 2.1 -0.9
v 0.7 2.1 -0.9
v 0.6 2.1 -1.1
v 0.7 2.1 -1.1
v 0.7 2.9 -0.3
v 0.9 2.9 -0.3
v 0.7 2.9 -0.5
v 0.9 2.9 -0.5
v 0.7 2.9 -1.1
v 0.9 2.9 -1.1
v 0.7 2.9 -1.3
v 0.9 2.9 -1.3
v 0.7 3.4 -0.3
v 0.9 3.4 -0.3
v 0.7 3.4 -0.4
v 0.9 3.4 -0.4
v 0.5 3.4 -0.6
v 0.6 3.4 -0.6
v 0.5 3.4 -0.7
v 0.6 3.4 -0.7
v 0.5 3.4 -0.9
v 0.6 3.4 -0.9
v 0.5 3.4 -1
v 0.6 3.4 -1
v 0.7 3.4 -1.2
v 0.9 3.4 -1.2
v 0.7 3.4 -1.3
v 0.9 3.4 -1.3
v 0.6 3.5 -0.4
v 0.7 3.5 -0.4
v 0.9 3.5 -0.4
v 1 3.5 -0.4
v 0.6 3.5 -0.5
v 0.7 3.5 -0.5
v 0.9 3.5 -0.5
v 1 3.5 -0.5
v 0.6 3.5 -1.1
v 0.7 3.5 -1.1
v 0.9 3.5 -1.1
v 1 3.5 -1.1
v 0.6 3.5 -1.2
v 0.7 3.5 -1.2
v 0.9 3.5 -1.2
v 1 3.5 -1.2
v 0.7 3.6 -0.4
v 0.9 3.6 -0.4
v 0.7 3.6 -0.5
v 0.9 3.6 -0.5
v 0.7 3.6 -1.1
v 0.9 3.6 -1.1
v 0.7 3.6 -1.2
v 0.9 3.6 -1.2
v 0.5 3.7 -0.5
v 1.1 3.7 -0.5
v 0.6 3.7 -0.6
v 1 3.7 -0.6
v 0.6 3.7 -1
v 1 3.7 -1
v 0.5 3.7 -1.1
v 1.1 3.7 -1.1
v 0.6 3.8 -0.6
v 1 3.8 -0.6
v 0.8 3.8 -0.7
v 0.9 3.8 -0.7
v 0.8 3.8 -0.9
v 0.9 3.8 -0.9
v 0.6 3.8 -1
v 1 3.8 -1
v 0.8 4.1 -0.7
v 0.9 4.1 -0.7
v 0.8 4.1 -0.9
v 0.9 4.1 -0.9
v 0.9 4.2 -0.7
v 1 4.2 -0.7
v 0.9 4.2 -0.9
v 1 4.2 -0.9
v 1 4.3 -0.7
v 1.2 4.3 -0.7
v 1 4.3 -0.9
v 1.2 4.3 -0.9

# faces
f 6/9/1 2/9/1 1/9/1
f 7/9/1 4/9/1 3/9/1
f 9/9/1 6/9/1 5/9/1
f 9/9/1 2/9/1 6/9/1
f 10/9/1 2/9/1 9/9/1
f 11/9/1 8/9/1 7/9/1
f 11/9/1 7/9/1 3/9/1
f 12/9/1 8/9/1 11/9/1
f 13/9/1 9/9/1 5/9/1
f 14/9/1 8/9/1 12/9/1
f 15/9/1 13/9/1 5/9/1
f 15/9/1 14/9/1 13/9/1
f 16/9/1 8/9/1 14/9/1
f 16/9/1 14/9/1 15/9/1
f 17/3/1 16/3/1 15/3/1
f 18/3/1 16/3/1 17/3/1
f 23/4/1 20/4/1 19/4/1
f 24/4/1 20/4/1 23/4/1
f 25/4/1 22/4/1 21/4/1
f 26/4/1 22/4/1 25/4/1
f 30/14/1 28/14/1 27/14/1
f 31/14/1 28/14/1 30/14/1
f 33/14/1 30/14/1 29/14/1
f 33/14/1 32/14/1 31/14/1
f 33/14/1 31/14/1 30/14/1
f 34/14/1 32/14/1 33/14/1
f 35/14/1 32/14/1 34/14/1
f 36/14/1 32/14/1 35/14/1
f 39/14/1 35/14/1 34/14/1
f 40/14/1 35/14/1 39/14/1
f 44/15/1 40/15/1 39/15/1
f 45/15/1 40/15/1 44/15/1
f 47/10/1 38/10/1 37/10/1
f 48/10/1 38/10/1 47/10/1
f 49/7/1 44/7/1 43/7/1
f 50/15/1 45/15/1 44/15/1
f 50/7/1 44/7/1 49/7/1
f 51/7/1 46/7/1 45/7/1
f 51/15/1 45/15/1 50/15/1
f 52/7/1 46/7/1 51/7/1
f 53/10/1 42/10/1 41/10/1
f 54/10/1 42/10/1 53/10/1
f 57/9/1 56/9/1 55/9/1
f 58/9/1 56/9/1 57/9/1
f 64/10/1 60/10/1 59/10/1
f 65/10/1 60/10/1 64/10/1
f 66/10/1 62/10/1 61/10/1
f 67/10/1 62/10/1 66/10/1
f 69/1/1 64/1/1 63/1/1
f 70/13/1 65/13/1 64/13/1
f 70/1/1 64/1/1 69/1/1
f 71/13/1 65/13/1 70/13/1
f 72/13/1 65/13/1 71/13/1
f 73/13/1 67/13/1 66/13/1
f 74/13/1 67/13/1 73/13/1
f 75/1/1 68/1/1 67/1/1
f 75/13/1 67/13/1 74/13/1
f 76/1/1 68/1/1 75/1/1
f 77/13/1 70/13/1 69/13/1
f 77/13/1 71/13/1 70/13/1
f 78/13/1 71/13/1 77/13/1
f 79/13/1 76/13/1 75/13/1
f 79/13/1 75/13/1 74/13/1
f 80/13/1 76/13/1 79/13/1
f 81/7/1 78/7/1 77/7/1
f 82/7/1 78/7/1 81/7/1
f 83/7/1 78/7/1 82/7/1
f 84/7/1 80/7/1 79/7/1
f 85/7/1 80/7/1 84/7/1
f 86/7/1 80/7/1 85/7/1
f 89/11/1 83/11/1 82/11/1
f 90/11/1 83/11/1 89/11/1
f 91/11/1 85/11/1 84/11/1
f 92/11/1 85/11/1 91/11/1
f 95/9/1 88/9/1 87/9/1
f 96/9/1 88/9/1 95/9/1
f 97/9/1 94/9/1 93/9/1
f 98/9/1 94/9/1 97/9/1
f 103/2/1 100/2/1 99/2/1
f 104/2/1 100/2/1 103/2/1
f 105/2/1 102/2/1 101/2/1
f 106/2/1 102/2/1 105/2/1
f 109/11/1 108/11/1 107/11/1
f 110/11/1 108/11/1 109/11/1
f 111/2/1 110/2/1 109/2/1
f 112/2/1 110/2/1 111/2/1
f 115/2/1 114/2/1 113/2/1
f 116/2/1 114/2/1 115/2/1
f 119/2/1 118/2/1 117/2/1
f 120/2/1 118/2/1 119/2/1
f 121/9/2 122/9/2 125/9/2
f 125/9/2 122/9/2 126/9/2
f 123/9/2 124/9/2 127/9/2
f 127/9/2 124/9/2 128/9/2
f 129/12/2 130/12/2 133/12/2
f 133/12/2 130/12/2 134/12/2
f 131/12/2 132/12/2 135/12/2
f 135/12/2 132/12/2 136/12/2
f 133/10/2 134/10/2 138/10/2
f 138/10/2 134/10/2 139/10/2
f 135/10/2 136/10/2 140/10/2
f 140/10/2 136/10/2 141/10/2
f 137/1/2 138/1/2 143/1/2
f 140/13/2 141/13/2 144/13/2
f 143/1/2 138/1/2 144/1/2
f 138/13/2 139/13/2 144/13/2
f 139/13/2 140/13/2 144/13/2
f 144/13/2 141/13/2 145/13/2
f 145/13/2 141/13/2 146/13/2
f 141/1/2 142/1/2 147/1/2
f 146/13/2 141/13/2 147/13/2
f 147/1/2 142/1/2 148/1/2
f 143/13/2 144/13/2 149/13/2
f 144/13/2 145/13/2 149/13/2
f 149/13/2 145/13/2 150/13/2
f 147/13/2 148/13/2 151/13/2
f 146/13/2 147/13/2 151/13/2
f 151/13/2 148/13/2 152/13/2
f 149/7/2 150/7/2 153/7/2
f 153/7/2 150/7/2 154/7/2
f 154/7/2 150/7/2 155/7/2
f 151/7/2 152/7/2 156/7/2
f 156/7/2 152/7/2 157/7/2
f 157/7/2 152/7/2 158/7/2
f 154/11/2 155/11/2 161/11/2
f 161/11/2 155/11/2 162/11/2
f 156/11/2 157/11/2 163/11/2
f 163/11/2 157/11/2 164/11/2
f 159/9/2 160/9/2 167/9/2
f 167/9/2 160/9/2 168/9/2
f 165/9/2 166/9/2 169/9/2
f 169/9/2 166/9/2 170/9/2
f 171/2/2 172/2/2 175/2/2
f 175/2/2 172/2/2 176/2/2
f 173/2/2 174/2/2 177/2/2
f 177/2/2 174/2/2 178/2/2
f 179/11/2 180/11/2 181/11/2
f 181/11/2 180/11/2 182/11/2
f 181/2/2 182/2/2 183/2/2
f 183/2/2 182/2/2 184/2/2
f 185/13/2 186/13/2 189/13/2
f 189/13/2 186/13/2 190/13/2
f 190/13/2 186/13/2 191/13/2
f 187/10/2 188/10/2 194/10/2
f 194/10/2 188/10/2 195/10/2
f 192/10/2 193/10/2 196/10/2
f 196/10/2 193/10/2 197/10/2
f 198/9/2 199/9/2 200/9/2
f 200/9/2 199/9/2 201/9/2
f 202/2/2 203/2/2 204/2/2
f 204/2/2 203/2/2 205/2/2
f 206/9/2 207/9/2 210/9/2
f 207/6/2 208/6/2 210/6/2
f 208/9/2 209/9/2 211/9/2
f 210/6/2 208/6/2 211/6/2
f 211/9/2 209/9/2 212/9/2
f 210/9/2 211/9/2 213/9/2
f 211/8/2 212/8/2 213/8/2
f 212/9/2 209/9/2 214/9/2
f 213/8/2 212/8/2 214/8/2
f 213/9/2 214/9/2 215/9/2
f 214/9/2 209/9/2 215/9/2
f 215/9/2 209/9/2 216/9/2
f 206/9/2 210/9/2 217/9/2
f 210/9/2 213/9/2 217/9/2
f 213/9/2 215/9/2 217/9/2
f 217/9/2 215/9/2 218/9/2
f 215/4/2 216/4/2 219/4/2
f 218/9/2 215/9/2 219/9/2
f 216/9/2 209/9/2 220/9/2
f 219/4/2 216/4/2 220/4/2
f 220/9/2 209/9/2 221/9/2
f 217/2/2 218/2/2 222/2/2
f 218/9/2 219/9/2 223/9/2
f 222/2/2 218/2/2 223/2/2
f 219/9/2 220/9/2 223/9/2
f 220/5/2 221/5/2 224/5/2
f 223/9/2 220/9/2 224/9/2
f 221/9/2 209/9/2 225/9/2
f 224/5/2 221/5/2 225/5/2
f 225/9/2 209/9/2 226/9/2
f 223/3/2 224/3/2 227/3/2
f 222/3/2 223/3/2 227/3/2
f 225/3/2 226/3/2 227/3/2
f 224/3/2 225/3/2 227/3/2
f 227/3/2 226/3/2 228/3/2
f 229/2/2 230/2/2 231/2/2
f 231/2/2 230/2/2 232/2/2
f 239/1/3 234/1/3 233/1/3
f 240/13/3 235/13/3 234/13/3
f 240/1/3 234/1/3 239/1/3
f 241/7/3 236/7/3 235/7/3
f 241/13/3 235/13/3 240/13/3
f 242/7/3 236/7/3 241/7/3
f 243/9/3 238/9/3 237/9/3
f 244/9/3 238/9/3 243/9/3
f 247/10/3 246/10/3 245/10/3
f 248/10/3 246/10/3 247/10/3
f 249/10/3 246/10/3 248/10/3
f 252/9/3 249/9/3 248/9/3
f 253/2/3 250/2/3 249/2/3
f 253/9/3 249/9/3 252/9/3
f 254/2/3 250/2/3 253/2/3
f 255/10/3 252/10/3 251/10/3
f 255/10/3 253/10/3 252/10/3
f 256/10/3 253/10/3 255/10/3
f 262/9/3 258/9/3 257/9/3
f 263/9/3 258/9/3 262/9/3
f 264/9/3 258/9/3 263/9/3
f 265/4/3 261/4/3 260/4/3
f 266/4/3 261/4/3 265/4/3
f 270/9/3 258/9/3 264/9/3
f 271/3/3 259/3/3 258/3/3
f 271/9/3 258/9/3 270/9/3
f 272/12/3 266/12/3 265/12/3
f 273/10/3 267/10/3 266/10/3
f 273/12/3 266/12/3 272/12/3
f 274/10/3 267/10/3 273/10/3
f 275/11/3 269/11/3 268/11/3
f 276/11/3 269/11/3 275/11/3
f 278/3/3 259/3/3 271/3/3
f 280/2/3 278/2/3 277/2/3
f 281/9/3 280/9/3 279/9/3
f 282/2/3 278/2/3 280/2/3
f 282/9/3 280/9/3 281/9/3
f 283/3/3 259/3/3 278/3/3
f 283/2/3 278/2/3 282/2/3
f 284/3/3 259/3/3 283/3/3
f 288/9/3 286/9/3 285/9/3
f 289/9/3 286/9/3 288/9/3
f 293/14/3 288/14/3 287/14/3
f 293/14/3 289/14/3 288/14/3
f 294/14/3 289/14/3 293/14/3
f 295/13/3 290/13/3 289/13/3
f 295/14/3 289/14/3 294/14/3
f 296/13/3 290/13/3 295/13/3
f 301/13/3 298/13/3 297/13/3
f 301/13/3 300/13/3 299/13/3
f 301/13/3 299/13/3 298/13/3
f 302/13/3 300/13/3 301/13/3
f 303/9/3 292/9/3 291/9/3
f 304/9/3 292/9/3 303/9/3
f 307/14/3 306/14/3 305/14/3
f 308/14/3 306/14/3 307/14/3
f 312/11/3 310/11/3 309/11/3
f 313/2/3 311/2/3 310/2/3
f 313/11/3 310/11/3 312/11/3
f 314/2/3 311/2/3 313/2/3
f 316/2/3 315/2/3 314/2/3
f 317/2/3 315/2/3 316/2/3
f 319/2/3 318/2/3 317/2/3
f 320/2/3 318/2/3 319/2/3
f 325/9/3 322/9/3 321/9/3
f 326/9/3 322/9/3 325/9/3
f 327/9/3 322/9/3 326/9/3
f 328/4/3 324/4/3 323/4/3
f 329/4/3 324/4/3 328/4/3
f 331/12/3 329/12/3 328/12/3
f 332/10/3 330/10/3 329/10/3
f 332/12/3 329/12/3 331/12/3
f 333/10/3 330/10/3 332/10/3
f 336/9/3 335/9/3 334/9/3
f 337/9/3 335/9/3 336/9/3
f 338/9/4 339/9/4 340/9/4
f 340/9/4 339/9/4 341/9/4
f 342/9/4 343/9/4 346/9/4
f 346/9/4 343/9/4 347/9/4
f 347/9/4 343/9/4 348/9/4
f 344/4/4 345/4/4 349/4/4
f 349/4/4 345/4/4 350/4/4
f 349/12/4 350/12/4 352/12/4
f 350/10/4 351/10/4 353/10/4
f 352/12/4 350/12/4 353/12/4
f 353/10/4 351/10/4 354/10/4
f 355/14/4 356/14/4 357/14/4
f 357/14/4 356/14/4 358/14/4
f 359/11/4 360/11/4 362/11/4
f 360/2/4 361/2/4 363/2/4
f 362/11/4 360/11/4 363/11/4
f 363/2/4 361/2/4 364/2/4
f 364/2/4 365/2/4 366/2/4
f 366/2/4 365/2/4 367/2/4
f 367/2/4 368/2/4 369/2/4
f 369/2/4 368/2/4 370/2/4
f 371/9/4 372/9/4 374/9/4
f 374/9/4 372/9/4 375/9/4
f 373/14/4 374/14/4 379/14/4
f 374/14/4 375/14/4 379/14/4
f 379/14/4 375/14/4 380/14/4
f 375/13/4 376/13/4 381/13/4
f 380/14/4 375/14/4 381/14/4
f 381/13/4 376/13/4 382/13/4
f 383/13/4 384/13/4 387/13/4
f 385/13/4 386/13/4 387/13/4
f 384/13/4 385/13/4 387/13/4
f 387/13/4 386/13/4 388/13/4
f 377/9/4 378/9/4 389/9/4
f 389/9/4 378/9/4 390/9/4
f 391/9/4 392/9/4 396/9/4
f 396/9/4 392/9/4 397/9/4
f 397/9/4 392/9/4 398/9/4
f 394/4/4 395/4/4 399/4/4
f 399/4/4 395/4/4 400/4/4
f 398/9/4 392/9/4 404/9/4
f 392/3/4 393/3/4 405/3/4
f 404/9/4 392/9/4 405/9/4
f 399/12/4 400/12/4 406/12/4
f 400/10/4 401/10/4 407/10/4
f 406/12/4 400/12/4 407/12/4
f 407/10/4 401/10/4 408/10/4
f 402/11/4 403/11/4 409/11/4
f 409/11/4 403/11/4 410/11/4
f 405/3/4 393/3/4 412/3/4
f 411/9/4 412/9/4 414/9/4
f 413/9/4 414/9/4 415/9/4
f 412/3/4 393/3/4 416/3/4
f 415/9/4 414/9/4 416/9/4
f 414/9/4 412/9/4 416/9/4
f 416/3/4 393/3/4 417/3/4
f 418/10/4 419/10/4 420/10/4
f 420/10/4 419/10/4 421/10/4
f 421/10/4 419/10/4 422/10/4
f 421/9/4 422/9/4 425/9/4
f 422/2/4 423/2/4 426/2/4
f 425/9/4 422/9/4 426/9/4
f 426/2/4 423/2/4 427/2/4
f 424/10/4 425/10/4 428/10/4
f 425/10/4 426/10/4 428/10/4
f 428/10/4 426/10/4 429/10/4
f 430/1/4 431/1/4 436/1/4
f 431/13/4 432/13/4 437/13/4
f 436/1/4 431/1/4 437/1/4
f 432/7/4 433/7/4 438/7/4
f 437/13/4 432/13/4 438/13/4
f 438/7/4 433/7/4 439/7/4
f 434/9/4 435/9/4 440/9/4
f 440/9/4 435/9/4 441/9/4
f 445/4/5 443/4/5 442/4/5
f 446/12/5 444/12/5 443/12/5
f 446/4/5 443/4/5 445/4/5
f 447/12/5 444/12/5 446/12/5
f 451/4/5 449/4/5 448/4/5
f 452/12/5 450/12/5 449/12/5
f 452/4/5 449/4/5 451/4/5
f 453/12/5 450/12/5 452/12/5
f 456/1/5 455/1/5 454/1/5
f 457/1/5 455/1/5 456/1/5
f 461/14/5 459/14/5 458/14/5
f 462/13/5 460/13/5 459/13/5
f 462/14/5 459/14/5 461/14/5
f 463/13/5 460/13/5 462/13/5
f 466/1/5 465/1/5 464/1/5
f 467/1/5 465/1/5 466/1/5
f 472/14/5 469/14/5 468/14/5
f 473/14/5 469/14/5 472/14/5
f 476/14/5 475/14/5 474/14/5
f 477/14/5 475/14/5 476/14/5
f 478/13/5 471/13/5 470/13/5
f 479/13/5 471/13/5 478/13/5
f 482/9/5 481/9/5 480/9/5
f 483/9/5 481/9/5 482/9/5
f 486/9/5 485/9/5 484/9/5
f 487/9/5 485/9/5 486/9/5
f 490/9/5 489/9/5 488/9/5
f 491/9/5 489/9/5 490/9/5
f 494/9/5 493/9/5 492/9/5
f 495/9/5 493/9/5 494/9/5
f 499/9/5 497/9/5 496/9/5
f 500/9/5 497/9/5 499/9/5
f 502/10/5 499/10/5 498/10/5
f 503/9/5 500/9/5 499/9/5
f 503/10/5 499/10/5 502/10/5
f 504/10/5 501/10/5 500/10/5
f 504/9/5 500/9/5 503/9/5
f 505/10/5 501/10/5 504/10/5
f 507/9/5 503/9/5 502/9/5
f 508/9/5 503/9/5 507/9/5
f 509/9/5 506/9/5 505/9/5
f 509/9/5 505/9/5 504/9/5
f 510/9/5 506/9/5 509/9/5
f 511/9/5 506/9/5 510/9/5
f 512/6/5 511/6/5 510/6/5
f 513/6/5 511/6/5 512/6/5
f 517/9/5 513/9/5 512/9/5
f 518/9/5 515/9/5 514/9/5
f 519/9/5 515/9/5 518/9/5
f 520/9/5 517/9/5 516/9/5
f 521/9/5 513/9/5 517/9/5
f 521/9/5 517/9/5 520/9/5
f 522/9/5 513/9/5 521/9/5
f 523/10/5 519/10/5 518/10/5
f 524/9/5 520/9/5 519/9/5
f 524/10/5 519/10/5 523/10/5
f 525/10/5 521/10/5 520/10/5
f 525/9/5 520/9/5 524/9/5
f 526/10/5 521/10/5 525/10/5
f 527/9/5 525/9/5 524/9/5
f 528/9/5 525/9/5 527/9/5
f 531/9/5 530/9/5 529/9/5
f 532/9/5 531/9/5 529/9/5
f 533/9/5 532/9/5 529/9/5
f 534/9/5 532/9/5 533/9/5
f 537/2/5 536/2/5 535/2/5
f 538/2/5 536/2/5 537/2/5
f 541/2/5 540/2/5 539/2/5
f 542/2/5 540/2/5 541/2/5
f 543/4/6 544/4/6 545/4/6
f 545/4/6 544/4/6 546/4/6
f 547/4/6 548/4/6 549/4/6
f 549/4/6 548/4/6 550/4/6
f 551/7/6 552/7/6 553/7/6
f 553/7/6 552/7/6 554/7/6
f 555/7/6 556/7/6 557/7/6
f 557/7/6 556/7/6 558/7/6
f 559/9/6 560/9/6 561/9/6
f 561/9/6 560/9/6 562/9/6
f 563/9/6 564/9/6 565/9/6
f 565/9/6 564/9/6 566/9/6
f 567/9/6 568/9/6 569/9/6
f 569/9/6 568/9/6 570/9/6
f 571/9/6 572/9/6 573/9/6
f 573/9/6 572/9/6 574/9/6
f 575/10/6 576/10/6 579/10/6
f 579/10/6 576/10/6 580/10/6
f 577/10/6 578/10/6 581/10/6
f 581/10/6 578/10/6 582/10/6
f 583/10/6 584/10/6 587/10/6
f 587/10/6 584/10/6 588/10/6
f 585/10/6 586/10/6 589/10/6
f 589/10/6 586/10/6 590/10/6
f 591/2/6 592/2/6 593/2/6
f 593/2/6 592/2/6 594/2/6
f 595/2/6 596/2/6 597/2/6
f 597/2/6 596/2/6 598/2/6
f 599/3/6 600/3/6 601/3/6
f 601/3/6 600/3/6 602/3/6
f 599/3/6 601/3/6 603/3/6
f 602/3/6 600/3/6 604/3/6
f 599/3/6 603/3/6 605/3/6
f 603/3/6 604/3/6 605/3/6
f 604/3/6 600/3/6 606/3/6
f 605/3/6 604/3/6 606/3/6
f 607/9/6 608/9/6 609/9/6
f 609/9/6 608/9/6 610/9/6
f 607/9/6 609/9/6 611/9/6
f 610/9/6 608/9/6 612/9/6
f 607/9/6 611/9/6 613/9/6
f 611/9/6 612/9/6 613/9/6
f 612/9/6 608/9/6 614/9/6
f 613/9/6 612/9/6 614/9/6
f 615/2/6 616/2/6 617/2/6
f 617/2/6 616/2/6 618/2/6
f 619/2/6 620/2/6 621/2/6
f 621/2/6 620/2/6 622/2/6
f 623/2/6 624/2/6 625/2/6
f 625/2/6 624/2/6 626/2/6
