# MagicaVoxel @ Ephtracy

# group
o 

# material
mtllib MA_Knight_Yellow.mtl
usemtl palette

# normals
vn -1 0 0
vn 1 0 0
vn 0 0 1
vn 0 0 -1
vn 0 -1 0
vn 0 1 0

# texcoords
vt 0.0605469 0.5
vt 0.162109 0.5
vt 0.181641 0.5
vt 0.185547 0.5
vt 0.326172 0.5
vt 0.744141 0.5
vt 0.970703 0.5
vt 0.974609 0.5
vt 0.978516 0.5
vt 0.982422 0.5
vt 0.986328 0.5
vt 0.990234 0.5
vt 0.994141 0.5

# verts
v 0.5 2.8 -0.6
v 0.5 2.8 -0.7
v 0.5 2.8 -0.9
v 0.5 2.8 -1
v 0.5 2.9 -0.5
v 0.5 2.9 -0.6
v 0.5 2.9 -1
v 0.5 2.9 -1.1
v 0.5 3.4 -0.6
v 0.5 3.4 -0.7
v 0.5 3.4 -0.9
v 0.5 3.4 -1
v 0.5 3.5 -0.6
v 0.5 3.5 -1
v 0.5 3.6 -0.5
v 0.5 3.6 -1.1
v 0.5 3.7 -0.5
v 0.5 3.7 -1.1
v 0.6 2 -0.5
v 0.6 2 -0.7
v 0.6 2 -0.9
v 0.6 2 -1.1
v 0.6 2.1 -0.5
v 0.6 2.1 -0.7
v 0.6 2.1 -0.9
v 0.6 2.1 -1.1
v 0.6 2.4 -0.7
v 0.6 2.4 -0.9
v 0.6 2.5 -0.6
v 0.6 2.5 -0.7
v 0.6 2.5 -0.9
v 0.6 2.5 -1
v 0.6 2.8 -0.6
v 0.6 2.8 -0.7
v 0.6 2.8 -0.9
v 0.6 2.8 -1
v 0.6 3 -0.4
v 0.6 3 -0.5
v 0.6 3 -0.7
v 0.6 3 -0.9
v 0.6 3 -1.1
v 0.6 3 -1.2
v 0.6 3.4 -0.6
v 0.6 3.4 -0.7
v 0.6 3.4 -0.9
v 0.6 3.4 -1
v 0.6 3.5 -0.4
v 0.6 3.5 -0.5
v 0.6 3.5 -0.6
v 0.6 3.5 -0.7
v 0.6 3.5 -0.9
v 0.6 3.5 -1
v 0.6 3.5 -1.1
v 0.6 3.5 -1.2
v 0.6 3.7 -0.6
v 0.6 3.7 -1
v 0.6 3.8 -0.6
v 0.6 3.8 -1
v 0.7 2.1 -0.5
v 0.7 2.1 -0.7
v 0.7 2.1 -0.9
v 0.7 2.1 -1.1
v 0.7 2.4 -0.3
v 0.7 2.4 -0.5
v 0.7 2.4 -0.7
v 0.7 2.4 -0.9
v 0.7 2.4 -1.1
v 0.7 2.4 -1.3
v 0.7 2.5 -0.3
v 0.7 2.5 -0.5
v 0.7 2.5 -0.6
v 0.7 2.5 -0.7
v 0.7 2.5 -0.9
v 0.7 2.5 -1
v 0.7 2.5 -1.1
v 0.7 2.5 -1.3
v 0.7 2.8 -0.3
v 0.7 2.8 -0.6
v 0.7 2.8 -1
v 0.7 2.8 -1.3
v 0.7 2.9 -0.3
v 0.7 2.9 -0.5
v 0.7 2.9 -0.6
v 0.7 2.9 -1
v 0.7 2.9 -1.1
v 0.7 2.9 -1.3
v 0.7 3 -0.3
v 0.7 3 -0.4
v 0.7 3 -0.5
v 0.7 3 -0.6
v 0.7 3 -1
v 0.7 3 -1.1
v 0.7 3 -1.2
v 0.7 3 -1.3
v 0.7 3.4 -0.3
v 0.7 3.4 -0.4
v 0.7 3.4 -1.2
v 0.7 3.4 -1.3
v 0.7 3.5 -0.4
v 0.7 3.5 -0.5
v 0.7 3.5 -1.1
v 0.7 3.5 -1.2
v 0.7 3.6 -0.4
v 0.7 3.6 -0.5
v 0.7 3.6 -1.1
v 0.7 3.6 -1.2
v 0.8 3.8 -0.7
v 0.8 3.8 -0.9
v 0.8 4 -0.7
v 0.8 4 -0.9
v 0.8 4.1 -0.7
v 0.8 4.1 -0.9
v 0.9 4.1 -0.7
v 0.9 4.1 -0.9
v 0.9 4.2 -0.7
v 0.9 4.2 -0.9
v 1 4.2 -0.7
v 1 4.2 -0.9
v 1 4.3 -0.7
v 1 4.3 -0.9
v 0.6 2.9 -0.5
v 0.6 2.9 -0.6
v 0.6 2.9 -1
v 0.6 2.9 -1.1
v 0.6 3 -0.5
v 0.6 3 -0.6
v 0.6 3 -1
v 0.6 3 -1.1
v 0.9 2 -0.5
v 0.9 2 -0.7
v 0.9 2 -0.9
v 0.9 2 -1.1
v 0.9 2.1 -0.5
v 0.9 2.1 -0.7
v 0.9 2.1 -0.9
v 0.9 2.1 -1.1
v 0.9 2.4 -0.3
v 0.9 2.4 -0.5
v 0.9 2.4 -0.7
v 0.9 2.4 -0.9
v 0.9 2.4 -1.1
v 0.9 2.4 -1.3
v 0.9 2.5 -0.3
v 0.9 2.5 -0.5
v 0.9 2.5 -0.6
v 0.9 2.5 -1
v 0.9 2.5 -1.1
v 0.9 2.5 -1.3
v 0.9 2.8 -0.3
v 0.9 2.8 -0.6
v 0.9 2.8 -1
v 0.9 2.8 -1.3
v 0.9 2.9 -0.3
v 0.9 2.9 -0.5
v 0.9 2.9 -0.6
v 0.9 2.9 -1
v 0.9 2.9 -1.1
v 0.9 2.9 -1.3
v 0.9 3 -0.3
v 0.9 3 -0.4
v 0.9 3 -0.5
v 0.9 3 -0.6
v 0.9 3 -1
v 0.9 3 -1.1
v 0.9 3 -1.2
v 0.9 3 -1.3
v 0.9 3.4 -0.3
v 0.9 3.4 -0.4
v 0.9 3.4 -1.2
v 0.9 3.4 -1.3
v 0.9 3.5 -0.4
v 0.9 3.5 -0.5
v 0.9 3.5 -1.1
v 0.9 3.5 -1.2
v 0.9 3.6 -0.4
v 0.9 3.6 -0.5
v 0.9 3.6 -1.1
v 0.9 3.6 -1.2
v 0.9 3.8 -0.7
v 0.9 3.8 -0.9
v 0.9 4 -0.7
v 0.9 4 -0.9
v 0.9 4.1 -0.7
v 0.9 4.1 -0.9
v 1 2.5 -0.6
v 1 2.5 -1
v 1 3 -0.4
v 1 3 -0.5
v 1 3 -0.6
v 1 3 -0.7
v 1 3 -1
v 1 3 -1.1
v 1 3 -1.2
v 1 3.5 -0.4
v 1 3.5 -0.5
v 1 3.5 -1.1
v 1 3.5 -1.2
v 1 3.7 -0.6
v 1 3.7 -1
v 1 3.8 -0.6
v 1 3.8 -1
v 1 4.1 -0.7
v 1 4.1 -0.9
v 1 4.2 -0.7
v 1 4.2 -0.9
v 1.1 3 -0.5
v 1.1 3 -0.6
v 1.1 3 -0.7
v 1.1 3 -1.1
v 1.1 3.1 -0.6
v 1.1 3.1 -0.7
v 1.1 3.1 -0.8
v 1.1 3.2 -0.7
v 1.1 3.2 -0.8
v 1.1 3.4 -0.8
v 1.1 3.4 -0.9
v 1.1 3.5 -0.8
v 1.1 3.5 -0.9
v 1.1 3.5 -1
v 1.1 3.6 -0.5
v 1.1 3.6 -0.9
v 1.1 3.6 -1
v 1.1 3.6 -1.1
v 1.1 3.7 -0.5
v 1.1 3.7 -1.1
v 1.2 4.2 -0.7
v 1.2 4.2 -0.9
v 1.2 4.3 -0.7
v 1.2 4.3 -0.9
v 0.7 2.4 -0.3
v 0.7 2.5 -0.3
v 0.7 2.8 -0.3
v 0.7 2.9 -0.3
v 0.7 3 -0.3
v 0.7 3.4 -0.3
v 0.9 2.4 -0.3
v 0.9 2.5 -0.3
v 0.9 2.8 -0.3
v 0.9 2.9 -0.3
v 0.9 3 -0.3
v 0.9 3.4 -0.3
v 0.6 3 -0.4
v 0.6 3.5 -0.4
v 0.7 3 -0.4
v 0.7 3.4 -0.4
v 0.7 3.5 -0.4
v 0.7 3.6 -0.4
v 0.9 3 -0.4
v 0.9 3.4 -0.4
v 0.9 3.5 -0.4
v 0.9 3.6 -0.4
v 1 3 -0.4
v 1 3.5 -0.4
v 0.5 2.9 -0.5
v 0.5 3.6 -0.5
v 0.5 3.7 -0.5
v 0.6 2 -0.5
v 0.6 2.1 -0.5
v 0.6 2.9 -0.5
v 0.6 3 -0.5
v 0.6 3.5 -0.5
v 0.7 2 -0.5
v 0.7 2.1 -0.5
v 0.7 2.4 -0.5
v 0.7 2.9 -0.5
v 0.7 3 -0.5
v 0.7 3.5 -0.5
v 0.7 3.6 -0.5
v 0.9 2 -0.5
v 0.9 2.1 -0.5
v 0.9 2.4 -0.5
v 0.9 2.9 -0.5
v 0.9 3 -0.5
v 0.9 3.5 -0.5
v 0.9 3.6 -0.5
v 1 3 -0.5
v 1 3.5 -0.5
v 1.1 3 -0.5
v 1.1 3.6 -0.5
v 1.1 3.7 -0.5
v 0.5 2.8 -0.6
v 0.5 2.9 -0.6
v 0.6 2.5 -0.6
v 0.6 2.8 -0.6
v 0.6 2.9 -0.6
v 0.6 3 -0.6
v 0.6 3.7 -0.6
v 0.6 3.8 -0.6
v 0.7 2.5 -0.6
v 0.7 2.8 -0.6
v 0.7 2.9 -0.6
v 0.7 3 -0.6
v 0.9 2.5 -0.6
v 0.9 2.8 -0.6
v 0.9 2.9 -0.6
v 0.9 3 -0.6
v 1 2.5 -0.6
v 1 3 -0.6
v 1 3.7 -0.6
v 1 3.8 -0.6
v 0.6 2.4 -0.7
v 0.6 2.5 -0.7
v 0.7 2.4 -0.7
v 0.7 2.5 -0.7
v 0.8 3.8 -0.7
v 0.8 4 -0.7
v 0.8 4.1 -0.7
v 0.9 3.8 -0.7
v 0.9 4 -0.7
v 0.9 4.1 -0.7
v 0.9 4.2 -0.7
v 1 4.1 -0.7
v 1 4.2 -0.7
v 1 4.3 -0.7
v 1.2 4.2 -0.7
v 1.2 4.3 -0.7
v 0.5 2.8 -0.9
v 0.5 3.4 -0.9
v 0.6 2 -0.9
v 0.6 2.1 -0.9
v 0.6 2.8 -0.9
v 0.6 3 -0.9
v 0.6 3.4 -0.9
v 0.7 2 -0.9
v 0.7 2.1 -0.9
v 0.7 2.4 -0.9
v 0.9 2 -0.9
v 0.9 2.1 -0.9
v 0.9 2.4 -0.9
v 0.5 3.4 -1
v 0.5 3.5 -1
v 0.6 3.4 -1
v 0.6 3.5 -1
v 0.5 3.4 -0.6
v 0.5 3.5 -0.6
v 0.6 3.4 -0.6
v 0.6 3.5 -0.6
v 0.5 2.8 -0.7
v 0.5 3.4 -0.7
v 0.6 2 -0.7
v 0.6 2.1 -0.7
v 0.6 2.8 -0.7
v 0.6 3 -0.7
v 0.6 3.4 -0.7
v 0.7 2 -0.7
v 0.7 2.1 -0.7
v 0.7 2.4 -0.7
v 0.9 2 -0.7
v 0.9 2.1 -0.7
v 0.9 2.4 -0.7
v 0.6 2.4 -0.9
v 0.6 2.5 -0.9
v 0.7 2.4 -0.9
v 0.7 2.5 -0.9
v 0.8 3.8 -0.9
v 0.8 4 -0.9
v 0.8 4.1 -0.9
v 0.9 3.8 -0.9
v 0.9 4 -0.9
v 0.9 4.1 -0.9
v 0.9 4.2 -0.9
v 1 4.1 -0.9
v 1 4.2 -0.9
v 1 4.3 -0.9
v 1.2 4.2 -0.9
v 1.2 4.3 -0.9
v 0.5 2.8 -1
v 0.5 2.9 -1
v 0.6 2.5 -1
v 0.6 2.8 -1
v 0.6 2.9 -1
v 0.6 3 -1
v 0.6 3.7 -1
v 0.6 3.8 -1
v 0.7 2.5 -1
v 0.7 2.8 -1
v 0.7 2.9 -1
v 0.7 3 -1
v 0.9 2.5 -1
v 0.9 2.8 -1
v 0.9 2.9 -1
v 0.9 3 -1
v 1 2.5 -1
v 1 3 -1
v 1 3.7 -1
v 1 3.8 -1
v 0.5 2.9 -1.1
v 0.5 3.6 -1.1
v 0.5 3.7 -1.1
v 0.6 2 -1.1
v 0.6 2.1 -1.1
v 0.6 2.9 -1.1
v 0.6 3 -1.1
v 0.6 3.5 -1.1
v 0.7 2 -1.1
v 0.7 2.1 -1.1
v 0.7 2.4 -1.1
v 0.7 2.9 -1.1
v 0.7 3 -1.1
v 0.7 3.5 -1.1
v 0.7 3.6 -1.1
v 0.9 2 -1.1
v 0.9 2.1 -1.1
v 0.9 2.4 -1.1
v 0.9 2.9 -1.1
v 0.9 3 -1.1
v 0.9 3.5 -1.1
v 0.9 3.6 -1.1
v 1 3 -1.1
v 1 3.5 -1.1
v 1.1 3 -1.1
v 1.1 3.6 -1.1
v 1.1 3.7 -1.1
v 0.6 3 -1.2
v 0.6 3.5 -1.2
v 0.7 3 -1.2
v 0.7 3.4 -1.2
v 0.7 3.5 -1.2
v 0.7 3.6 -1.2
v 0.9 3 -1.2
v 0.9 3.4 -1.2
v 0.9 3.5 -1.2
v 0.9 3.6 -1.2
v 1 3 -1.2
v 1 3.5 -1.2
v 0.7 2.4 -1.3
v 0.7 2.5 -1.3
v 0.7 2.8 -1.3
v 0.7 2.9 -1.3
v 0.7 3 -1.3
v 0.7 3.4 -1.3
v 0.9 2.4 -1.3
v 0.9 2.5 -1.3
v 0.9 2.8 -1.3
v 0.9 2.9 -1.3
v 0.9 3 -1.3
v 0.9 3.4 -1.3
v 0.6 2 -0.5
v 0.7 2 -0.5
v 0.9 2 -0.5
v 0.6 2 -0.7
v 0.7 2 -0.7
v 0.9 2 -0.7
v 0.6 2 -0.9
v 0.7 2 -0.9
v 0.9 2 -0.9
v 0.6 2 -1.1
v 0.7 2 -1.1
v 0.9 2 -1.1
v 0.7 2.4 -0.3
v 0.9 2.4 -0.3
v 0.7 2.4 -0.5
v 0.9 2.4 -0.5
v 0.6 2.4 -0.7
v 0.7 2.4 -0.7
v 0.9 2.4 -0.7
v 0.6 2.4 -0.9
v 0.7 2.4 -0.9
v 0.9 2.4 -0.9
v 0.7 2.4 -1.1
v 0.9 2.4 -1.1
v 0.7 2.4 -1.3
v 0.9 2.4 -1.3
v 0.6 2.5 -0.6
v 0.7 2.5 -0.6
v 0.9 2.5 -0.6
v 1 2.5 -0.6
v 0.6 2.5 -0.7
v 0.7 2.5 -0.7
v 0.6 2.5 -0.9
v 0.7 2.5 -0.9
v 0.6 2.5 -1
v 0.7 2.5 -1
v 0.9 2.5 -1
v 1 2.5 -1
v 0.5 2.8 -0.6
v 0.6 2.8 -0.6
v 0.5 2.8 -0.7
v 0.6 2.8 -0.7
v 0.5 2.8 -0.9
v 0.6 2.8 -0.9
v 0.5 2.8 -1
v 0.6 2.8 -1
v 0.5 2.9 -0.5
v 0.6 2.9 -0.5
v 0.5 2.9 -0.6
v 0.6 2.9 -0.6
v 0.5 2.9 -1
v 0.6 2.9 -1
v 0.5 2.9 -1.1
v 0.6 2.9 -1.1
v 0.7 3 -0.3
v 0.9 3 -0.3
v 0.6 3 -0.4
v 0.7 3 -0.4
v 0.9 3 -0.4
v 1 3 -0.4
v 0.6 3 -0.5
v 0.7 3 -0.5
v 0.9 3 -0.5
v 1 3 -0.5
v 1.1 3 -0.5
v 0.6 3 -0.6
v 0.7 3 -0.6
v 0.9 3 -0.6
v 1 3 -0.6
v 1.1 3 -0.6
v 1 3 -0.7
v 1.1 3 -0.7
v 0.6 3 -1
v 0.7 3 -1
v 0.9 3 -1
v 1 3 -1
v 0.6 3 -1.1
v 0.7 3 -1.1
v 0.9 3 -1.1
v 1 3 -1.1
v 1.1 3 -1.1
v 0.6 3 -1.2
v 0.7 3 -1.2
v 0.9 3 -1.2
v 1 3 -1.2
v 0.7 3 -1.3
v 0.9 3 -1.3
v 0.5 3.5 -0.6
v 0.6 3.5 -0.6
v 0.6 3.5 -0.7
v 0.6 3.5 -0.9
v 0.5 3.5 -1
v 0.6 3.5 -1
v 0.9 4.1 -0.7
v 1 4.1 -0.7
v 0.9 4.1 -0.9
v 1 4.1 -0.9
v 1 4.2 -0.7
v 1.2 4.2 -0.7
v 1 4.2 -0.9
v 1.2 4.2 -0.9
v 0.6 2.1 -0.5
v 0.7 2.1 -0.5
v 0.6 2.1 -0.7
v 0.7 2.1 -0.7
v 0.6 2.1 -0.9
v 0.7 2.1 -0.9
v 0.6 2.1 -1.1
v 0.7 2.1 -1.1
v 0.7 2.9 -0.3
v 0.9 2.9 -0.3
v 0.7 2.9 -0.5
v 0.9 2.9 -0.5
v 0.7 2.9 -1.1
v 0.9 2.9 -1.1
v 0.7 2.9 -1.3
v 0.9 2.9 -1.3
v 0.7 3.4 -0.3
v 0.9 3.4 -0.3
v 0.7 3.4 -0.4
v 0.9 3.4 -0.4
v 0.5 3.4 -0.6
v 0.6 3.4 -0.6
v 0.5 3.4 -0.7
v 0.6 3.4 -0.7
v 0.5 3.4 -0.9
v 0.6 3.4 -0.9
v 0.5 3.4 -1
v 0.6 3.4 -1
v 0.7 3.4 -1.2
v 0.9 3.4 -1.2
v 0.7 3.4 -1.3
v 0.9 3.4 -1.3
v 0.6 3.5 -0.4
v 0.7 3.5 -0.4
v 0.9 3.5 -0.4
v 1 3.5 -0.4
v 0.6 3.5 -0.5
v 0.7 3.5 -0.5
v 0.9 3.5 -0.5
v 1 3.5 -0.5
v 0.6 3.5 -1.1
v 0.7 3.5 -1.1
v 0.9 3.5 -1.1
v 1 3.5 -1.1
v 0.6 3.5 -1.2
v 0.7 3.5 -1.2
v 0.9 3.5 -1.2
v 1 3.5 -1.2
v 0.7 3.6 -0.4
v 0.9 3.6 -0.4
v 0.7 3.6 -0.5
v 0.9 3.6 -0.5
v 0.7 3.6 -1.1
v 0.9 3.6 -1.1
v 0.7 3.6 -1.2
v 0.9 3.6 -1.2
v 0.5 3.7 -0.5
v 1.1 3.7 -0.5
v 0.6 3.7 -0.6
v 1 3.7 -0.6
v 0.6 3.7 -1
v 1 3.7 -1
v 0.5 3.7 -1.1
v 1.1 3.7 -1.1
v 0.6 3.8 -0.6
v 1 3.8 -0.6
v 0.8 3.8 -0.7
v 0.9 3.8 -0.7
v 0.8 3.8 -0.9
v 0.9 3.8 -0.9
v 0.6 3.8 -1
v 1 3.8 -1
v 0.8 4.1 -0.7
v 0.9 4.1 -0.7
v 0.8 4.1 -0.9
v 0.9 4.1 -0.9
v 0.9 4.2 -0.7
v 1 4.2 -0.7
v 0.9 4.2 -0.9
v 1 4.2 -0.9
v 1 4.3 -0.7
v 1.2 4.3 -0.7
v 1 4.3 -0.9
v 1.2 4.3 -0.9

# faces
f 6/7/1 2/7/1 1/7/1
f 7/7/1 4/7/1 3/7/1
f 9/7/1 6/7/1 5/7/1
f 9/7/1 2/7/1 6/7/1
f 10/7/1 2/7/1 9/7/1
f 11/7/1 8/7/1 7/7/1
f 11/7/1 7/7/1 3/7/1
f 12/7/1 8/7/1 11/7/1
f 13/7/1 9/7/1 5/7/1
f 14/7/1 8/7/1 12/7/1
f 15/7/1 13/7/1 5/7/1
f 15/7/1 14/7/1 13/7/1
f 16/7/1 8/7/1 14/7/1
f 16/7/1 14/7/1 15/7/1
f 17/2/1 16/2/1 15/2/1
f 18/2/1 16/2/1 17/2/1
f 23/4/1 20/4/1 19/4/1
f 24/4/1 20/4/1 23/4/1
f 25/4/1 22/4/1 21/4/1
f 26/4/1 22/4/1 25/4/1
f 30/12/1 28/12/1 27/12/1
f 31/12/1 28/12/1 30/12/1
f 33/12/1 30/12/1 29/12/1
f 33/12/1 32/12/1 31/12/1
f 33/12/1 31/12/1 30/12/1
f 34/12/1 32/12/1 33/12/1
f 35/12/1 32/12/1 34/12/1
f 36/12/1 32/12/1 35/12/1
f 39/12/1 35/12/1 34/12/1
f 40/12/1 35/12/1 39/12/1
f 44/13/1 40/13/1 39/13/1
f 45/13/1 40/13/1 44/13/1
f 47/8/1 38/8/1 37/8/1
f 48/8/1 38/8/1 47/8/1
f 49/3/1 44/3/1 43/3/1
f 50/13/1 45/13/1 44/13/1
f 50/3/1 44/3/1 49/3/1
f 51/3/1 46/3/1 45/3/1
f 51/13/1 45/13/1 50/13/1
f 52/3/1 46/3/1 51/3/1
f 53/8/1 42/8/1 41/8/1
f 54/8/1 42/8/1 53/8/1
f 57/7/1 56/7/1 55/7/1
f 58/7/1 56/7/1 57/7/1
f 64/8/1 60/8/1 59/8/1
f 65/8/1 60/8/1 64/8/1
f 66/8/1 62/8/1 61/8/1
f 67/8/1 62/8/1 66/8/1
f 69/1/1 64/1/1 63/1/1
f 70/11/1 65/11/1 64/11/1
f 70/1/1 64/1/1 69/1/1
f 71/11/1 65/11/1 70/11/1
f 72/11/1 65/11/1 71/11/1
f 73/11/1 67/11/1 66/11/1
f 74/11/1 67/11/1 73/11/1
f 75/1/1 68/1/1 67/1/1
f 75/11/1 67/11/1 74/11/1
f 76/1/1 68/1/1 75/1/1
f 77/11/1 70/11/1 69/11/1
f 77/11/1 71/11/1 70/11/1
f 78/11/1 71/11/1 77/11/1
f 79/11/1 76/11/1 75/11/1
f 79/11/1 75/11/1 74/11/1
f 80/11/1 76/11/1 79/11/1
f 81/5/1 78/5/1 77/5/1
f 82/5/1 78/5/1 81/5/1
f 83/5/1 78/5/1 82/5/1
f 84/5/1 80/5/1 79/5/1
f 85/5/1 80/5/1 84/5/1
f 86/5/1 80/5/1 85/5/1
f 89/9/1 83/9/1 82/9/1
f 90/9/1 83/9/1 89/9/1
f 91/9/1 85/9/1 84/9/1
f 92/9/1 85/9/1 91/9/1
f 95/7/1 88/7/1 87/7/1
f 96/7/1 88/7/1 95/7/1
f 97/7/1 94/7/1 93/7/1
f 98/7/1 94/7/1 97/7/1
f 103/4/1 100/4/1 99/4/1
f 104/4/1 100/4/1 103/4/1
f 105/4/1 102/4/1 101/4/1
f 106/4/1 102/4/1 105/4/1
f 109/9/1 108/9/1 107/9/1
f 110/9/1 108/9/1 109/9/1
f 111/4/1 110/4/1 109/4/1
f 112/4/1 110/4/1 111/4/1
f 115/4/1 114/4/1 113/4/1
f 116/4/1 114/4/1 115/4/1
f 119/4/1 118/4/1 117/4/1
f 120/4/1 118/4/1 119/4/1
f 121/7/2 122/7/2 125/7/2
f 125/7/2 122/7/2 126/7/2
f 123/7/2 124/7/2 127/7/2
f 127/7/2 124/7/2 128/7/2
f 129/10/2 130/10/2 133/10/2
f 133/10/2 130/10/2 134/10/2
f 131/10/2 132/10/2 135/10/2
f 135/10/2 132/10/2 136/10/2
f 133/8/2 134/8/2 138/8/2
f 138/8/2 134/8/2 139/8/2
f 135/8/2 136/8/2 140/8/2
f 140/8/2 136/8/2 141/8/2
f 137/1/2 138/1/2 143/1/2
f 140/11/2 141/11/2 144/11/2
f 143/1/2 138/1/2 144/1/2
f 138/11/2 139/11/2 144/11/2
f 139/11/2 140/11/2 144/11/2
f 144/11/2 141/11/2 145/11/2
f 145/11/2 141/11/2 146/11/2
f 141/1/2 142/1/2 147/1/2
f 146/11/2 141/11/2 147/11/2
f 147/1/2 142/1/2 148/1/2
f 143/11/2 144/11/2 149/11/2
f 144/11/2 145/11/2 149/11/2
f 149/11/2 145/11/2 150/11/2
f 147/11/2 148/11/2 151/11/2
f 146/11/2 147/11/2 151/11/2
f 151/11/2 148/11/2 152/11/2
f 149/5/2 150/5/2 153/5/2
f 153/5/2 150/5/2 154/5/2
f 154/5/2 150/5/2 155/5/2
f 151/5/2 152/5/2 156/5/2
f 156/5/2 152/5/2 157/5/2
f 157/5/2 152/5/2 158/5/2
f 154/9/2 155/9/2 161/9/2
f 161/9/2 155/9/2 162/9/2
f 156/9/2 157/9/2 163/9/2
f 163/9/2 157/9/2 164/9/2
f 159/7/2 160/7/2 167/7/2
f 167/7/2 160/7/2 168/7/2
f 165/7/2 166/7/2 169/7/2
f 169/7/2 166/7/2 170/7/2
f 171/4/2 172/4/2 175/4/2
f 175/4/2 172/4/2 176/4/2
f 173/4/2 174/4/2 177/4/2
f 177/4/2 174/4/2 178/4/2
f 179/9/2 180/9/2 181/9/2
f 181/9/2 180/9/2 182/9/2
f 181/4/2 182/4/2 183/4/2
f 183/4/2 182/4/2 184/4/2
f 185/11/2 186/11/2 189/11/2
f 189/11/2 186/11/2 190/11/2
f 190/11/2 186/11/2 191/11/2
f 187/8/2 188/8/2 194/8/2
f 194/8/2 188/8/2 195/8/2
f 192/8/2 193/8/2 196/8/2
f 196/8/2 193/8/2 197/8/2
f 198/7/2 199/7/2 200/7/2
f 200/7/2 199/7/2 201/7/2
f 202/4/2 203/4/2 204/4/2
f 204/4/2 203/4/2 205/4/2
f 206/7/2 207/7/2 210/7/2
f 207/4/2 208/4/2 210/4/2
f 208/7/2 209/7/2 211/7/2
f 210/4/2 208/4/2 211/4/2
f 211/7/2 209/7/2 212/7/2
f 210/7/2 211/7/2 213/7/2
f 211/5/2 212/5/2 213/5/2
f 212/7/2 209/7/2 214/7/2
f 213/5/2 212/5/2 214/5/2
f 213/7/2 214/7/2 215/7/2
f 214/7/2 209/7/2 215/7/2
f 215/7/2 209/7/2 216/7/2
f 213/7/2 215/7/2 217/7/2
f 215/4/2 216/4/2 217/4/2
f 216/7/2 209/7/2 218/7/2
f 217/4/2 216/4/2 218/4/2
f 218/7/2 209/7/2 219/7/2
f 206/7/2 210/7/2 220/7/2
f 210/7/2 213/7/2 220/7/2
f 213/7/2 217/7/2 220/7/2
f 217/7/2 218/7/2 220/7/2
f 218/2/2 219/2/2 221/2/2
f 220/7/2 218/7/2 221/7/2
f 219/7/2 209/7/2 222/7/2
f 221/2/2 219/2/2 222/2/2
f 222/7/2 209/7/2 223/7/2
f 220/2/2 221/2/2 224/2/2
f 221/2/2 222/2/2 224/2/2
f 222/2/2 223/2/2 224/2/2
f 224/2/2 223/2/2 225/2/2
f 226/4/2 227/4/2 228/4/2
f 228/4/2 227/4/2 229/4/2
f 236/1/3 231/1/3 230/1/3
f 237/11/3 232/11/3 231/11/3
f 237/1/3 231/1/3 236/1/3
f 238/5/3 233/5/3 232/5/3
f 238/11/3 232/11/3 237/11/3
f 239/5/3 233/5/3 238/5/3
f 240/7/3 235/7/3 234/7/3
f 241/7/3 235/7/3 240/7/3
f 244/8/3 243/8/3 242/8/3
f 245/8/3 243/8/3 244/8/3
f 246/8/3 243/8/3 245/8/3
f 249/7/3 246/7/3 245/7/3
f 250/4/3 247/4/3 246/4/3
f 250/7/3 246/7/3 249/7/3
f 251/4/3 247/4/3 250/4/3
f 252/8/3 249/8/3 248/8/3
f 252/8/3 250/8/3 249/8/3
f 253/8/3 250/8/3 252/8/3
f 259/7/3 255/7/3 254/7/3
f 260/7/3 255/7/3 259/7/3
f 261/7/3 255/7/3 260/7/3
f 262/4/3 258/4/3 257/4/3
f 263/4/3 258/4/3 262/4/3
f 267/7/3 255/7/3 261/7/3
f 268/2/3 256/2/3 255/2/3
f 268/7/3 255/7/3 267/7/3
f 269/10/3 263/10/3 262/10/3
f 270/8/3 264/8/3 263/8/3
f 270/10/3 263/10/3 269/10/3
f 271/8/3 264/8/3 270/8/3
f 272/9/3 266/9/3 265/9/3
f 273/9/3 266/9/3 272/9/3
f 275/2/3 256/2/3 268/2/3
f 277/7/3 275/7/3 274/7/3
f 278/7/3 277/7/3 276/7/3
f 279/2/3 256/2/3 275/2/3
f 279/7/3 277/7/3 278/7/3
f 279/7/3 275/7/3 277/7/3
f 280/2/3 256/2/3 279/2/3
f 284/7/3 282/7/3 281/7/3
f 285/7/3 282/7/3 284/7/3
f 289/12/3 284/12/3 283/12/3
f 289/12/3 285/12/3 284/12/3
f 290/12/3 285/12/3 289/12/3
f 291/11/3 286/11/3 285/11/3
f 291/12/3 285/12/3 290/12/3
f 292/11/3 286/11/3 291/11/3
f 297/11/3 294/11/3 293/11/3
f 297/11/3 296/11/3 295/11/3
f 297/11/3 295/11/3 294/11/3
f 298/11/3 296/11/3 297/11/3
f 299/7/3 288/7/3 287/7/3
f 300/7/3 288/7/3 299/7/3
f 303/12/3 302/12/3 301/12/3
f 304/12/3 302/12/3 303/12/3
f 308/9/3 306/9/3 305/9/3
f 309/4/3 307/4/3 306/4/3
f 309/9/3 306/9/3 308/9/3
f 310/4/3 307/4/3 309/4/3
f 312/4/3 311/4/3 310/4/3
f 313/4/3 311/4/3 312/4/3
f 315/4/3 314/4/3 313/4/3
f 316/4/3 314/4/3 315/4/3
f 321/7/3 318/7/3 317/7/3
f 322/7/3 318/7/3 321/7/3
f 323/7/3 318/7/3 322/7/3
f 324/4/3 320/4/3 319/4/3
f 325/4/3 320/4/3 324/4/3
f 327/10/3 325/10/3 324/10/3
f 328/8/3 326/8/3 325/8/3
f 328/10/3 325/10/3 327/10/3
f 329/8/3 326/8/3 328/8/3
f 332/7/3 331/7/3 330/7/3
f 333/7/3 331/7/3 332/7/3
f 334/7/4 335/7/4 336/7/4
f 336/7/4 335/7/4 337/7/4
f 338/7/4 339/7/4 342/7/4
f 342/7/4 339/7/4 343/7/4
f 343/7/4 339/7/4 344/7/4
f 340/4/4 341/4/4 345/4/4
f 345/4/4 341/4/4 346/4/4
f 345/10/4 346/10/4 348/10/4
f 346/8/4 347/8/4 349/8/4
f 348/10/4 346/10/4 349/10/4
f 349/8/4 347/8/4 350/8/4
f 351/12/4 352/12/4 353/12/4
f 353/12/4 352/12/4 354/12/4
f 355/9/4 356/9/4 358/9/4
f 356/4/4 357/4/4 359/4/4
f 358/9/4 356/9/4 359/9/4
f 359/4/4 357/4/4 360/4/4
f 360/4/4 361/4/4 362/4/4
f 362/4/4 361/4/4 363/4/4
f 363/4/4 364/4/4 365/4/4
f 365/4/4 364/4/4 366/4/4
f 367/7/4 368/7/4 370/7/4
f 370/7/4 368/7/4 371/7/4
f 369/12/4 370/12/4 375/12/4
f 370/12/4 371/12/4 375/12/4
f 375/12/4 371/12/4 376/12/4
f 371/11/4 372/11/4 377/11/4
f 376/12/4 371/12/4 377/12/4
f 377/11/4 372/11/4 378/11/4
f 379/11/4 380/11/4 383/11/4
f 381/11/4 382/11/4 383/11/4
f 380/11/4 381/11/4 383/11/4
f 383/11/4 382/11/4 384/11/4
f 373/7/4 374/7/4 385/7/4
f 385/7/4 374/7/4 386/7/4
f 387/7/4 388/7/4 392/7/4
f 392/7/4 388/7/4 393/7/4
f 393/7/4 388/7/4 394/7/4
f 390/4/4 391/4/4 395/4/4
f 395/4/4 391/4/4 396/4/4
f 394/7/4 388/7/4 400/7/4
f 388/2/4 389/2/4 401/2/4
f 400/7/4 388/7/4 401/7/4
f 395/10/4 396/10/4 402/10/4
f 396/8/4 397/8/4 403/8/4
f 402/10/4 396/10/4 403/10/4
f 403/8/4 397/8/4 404/8/4
f 398/9/4 399/9/4 405/9/4
f 405/9/4 399/9/4 406/9/4
f 401/2/4 389/2/4 408/2/4
f 407/7/4 408/7/4 410/7/4
f 409/7/4 410/7/4 411/7/4
f 408/2/4 389/2/4 412/2/4
f 411/7/4 410/7/4 412/7/4
f 410/7/4 408/7/4 412/7/4
f 412/2/4 389/2/4 413/2/4
f 414/8/4 415/8/4 416/8/4
f 416/8/4 415/8/4 417/8/4
f 417/8/4 415/8/4 418/8/4
f 417/7/4 418/7/4 421/7/4
f 418/4/4 419/4/4 422/4/4
f 421/7/4 418/7/4 422/7/4
f 422/4/4 419/4/4 423/4/4
f 420/8/4 421/8/4 424/8/4
f 421/8/4 422/8/4 424/8/4
f 424/8/4 422/8/4 425/8/4
f 426/1/4 427/1/4 432/1/4
f 427/11/4 428/11/4 433/11/4
f 432/1/4 427/1/4 433/1/4
f 428/5/4 429/5/4 434/5/4
f 433/11/4 428/11/4 434/11/4
f 434/5/4 429/5/4 435/5/4
f 430/7/4 431/7/4 436/7/4
f 436/7/4 431/7/4 437/7/4
f 441/4/5 439/4/5 438/4/5
f 442/10/5 440/10/5 439/10/5
f 442/4/5 439/4/5 441/4/5
f 443/10/5 440/10/5 442/10/5
f 447/4/5 445/4/5 444/4/5
f 448/10/5 446/10/5 445/10/5
f 448/4/5 445/4/5 447/4/5
f 449/10/5 446/10/5 448/10/5
f 452/1/5 451/1/5 450/1/5
f 453/1/5 451/1/5 452/1/5
f 457/12/5 455/12/5 454/12/5
f 458/11/5 456/11/5 455/11/5
f 458/12/5 455/12/5 457/12/5
f 459/11/5 456/11/5 458/11/5
f 462/1/5 461/1/5 460/1/5
f 463/1/5 461/1/5 462/1/5
f 468/12/5 465/12/5 464/12/5
f 469/12/5 465/12/5 468/12/5
f 472/12/5 471/12/5 470/12/5
f 473/12/5 471/12/5 472/12/5
f 474/11/5 467/11/5 466/11/5
f 475/11/5 467/11/5 474/11/5
f 478/7/5 477/7/5 476/7/5
f 479/7/5 477/7/5 478/7/5
f 482/7/5 481/7/5 480/7/5
f 483/7/5 481/7/5 482/7/5
f 486/7/5 485/7/5 484/7/5
f 487/7/5 485/7/5 486/7/5
f 490/7/5 489/7/5 488/7/5
f 491/7/5 489/7/5 490/7/5
f 495/7/5 493/7/5 492/7/5
f 496/7/5 493/7/5 495/7/5
f 498/8/5 495/8/5 494/8/5
f 499/7/5 496/7/5 495/7/5
f 499/8/5 495/8/5 498/8/5
f 500/8/5 497/8/5 496/8/5
f 500/7/5 496/7/5 499/7/5
f 501/8/5 497/8/5 500/8/5
f 503/7/5 499/7/5 498/7/5
f 504/7/5 499/7/5 503/7/5
f 505/7/5 502/7/5 501/7/5
f 505/7/5 501/7/5 500/7/5
f 506/7/5 502/7/5 505/7/5
f 507/7/5 502/7/5 506/7/5
f 508/4/5 507/4/5 506/4/5
f 509/4/5 507/4/5 508/4/5
f 513/7/5 509/7/5 508/7/5
f 514/7/5 511/7/5 510/7/5
f 515/7/5 511/7/5 514/7/5
f 516/7/5 513/7/5 512/7/5
f 517/7/5 509/7/5 513/7/5
f 517/7/5 513/7/5 516/7/5
f 518/7/5 509/7/5 517/7/5
f 519/8/5 515/8/5 514/8/5
f 520/7/5 516/7/5 515/7/5
f 520/8/5 515/8/5 519/8/5
f 521/8/5 517/8/5 516/8/5
f 521/7/5 516/7/5 520/7/5
f 522/8/5 517/8/5 521/8/5
f 523/7/5 521/7/5 520/7/5
f 524/7/5 521/7/5 523/7/5
f 527/7/5 526/7/5 525/7/5
f 528/7/5 527/7/5 525/7/5
f 529/7/5 528/7/5 525/7/5
f 530/7/5 528/7/5 529/7/5
f 533/4/5 532/4/5 531/4/5
f 534/4/5 532/4/5 533/4/5
f 537/4/5 536/4/5 535/4/5
f 538/4/5 536/4/5 537/4/5
f 539/4/6 540/4/6 541/4/6
f 541/4/6 540/4/6 542/4/6
f 543/4/6 544/4/6 545/4/6
f 545/4/6 544/4/6 546/4/6
f 547/5/6 548/5/6 549/5/6
f 549/5/6 548/5/6 550/5/6
f 551/5/6 552/5/6 553/5/6
f 553/5/6 552/5/6 554/5/6
f 555/7/6 556/7/6 557/7/6
f 557/7/6 556/7/6 558/7/6
f 559/7/6 560/7/6 561/7/6
f 561/7/6 560/7/6 562/7/6
f 563/7/6 564/7/6 565/7/6
f 565/7/6 564/7/6 566/7/6
f 567/7/6 568/7/6 569/7/6
f 569/7/6 568/7/6 570/7/6
f 571/8/6 572/8/6 575/8/6
f 575/8/6 572/8/6 576/8/6
f 573/8/6 574/8/6 577/8/6
f 577/8/6 574/8/6 578/8/6
f 579/8/6 580/8/6 583/8/6
f 583/8/6 580/8/6 584/8/6
f 581/8/6 582/8/6 585/8/6
f 585/8/6 582/8/6 586/8/6
f 587/4/6 588/4/6 589/4/6
f 589/4/6 588/4/6 590/4/6
f 591/4/6 592/4/6 593/4/6
f 593/4/6 592/4/6 594/4/6
f 595/2/6 596/2/6 597/2/6
f 597/2/6 596/2/6 598/2/6
f 595/2/6 597/2/6 599/2/6
f 598/2/6 596/2/6 600/2/6
f 595/2/6 599/2/6 601/2/6
f 599/2/6 600/2/6 601/2/6
f 600/2/6 596/2/6 602/2/6
f 601/2/6 600/2/6 602/2/6
f 603/7/6 604/7/6 605/7/6
f 605/7/6 604/7/6 606/7/6
f 603/7/6 605/7/6 607/7/6
f 606/7/6 604/7/6 608/7/6
f 603/7/6 607/7/6 609/7/6
f 607/7/6 608/7/6 609/7/6
f 608/7/6 604/7/6 610/7/6
f 609/7/6 608/7/6 610/7/6
f 611/4/6 612/4/6 613/4/6
f 613/4/6 612/4/6 614/4/6
f 615/4/6 616/4/6 617/4/6
f 617/4/6 616/4/6 618/4/6
f 619/4/6 620/4/6 621/4/6
f 621/4/6 620/4/6 622/4/6
