# MagicaVoxel @ Ephtracy

# group
o 

# material
mtllib MA_Rogue_Green.mtl
usemtl palette

# normals
vn -1 0 0
vn 1 0 0
vn 0 0 1
vn 0 0 -1
vn 0 -1 0
vn 0 1 0

# texcoords
vt 0.0332031 0.5
vt 0.0683594 0.5
vt 0.654297 0.5
vt 0.767578 0.5
vt 0.869141 0.5
vt 0.873047 0.5
vt 0.892578 0.5
vt 0.900391 0.5
vt 0.904297 0.5
vt 0.923828 0.5
vt 0.931641 0.5
vt 0.958984 0.5
vt 0.970703 0.5
vt 0.974609 0.5
vt 0.978516 0.5
vt 0.982422 0.5
vt 0.990234 0.5
vt 0.994141 0.5

# verts
v 0.6 1 -0.7
v 0.6 1 -0.8
v 0.6 1 -0.9
v 0.6 1.1 -0.7
v 0.6 1.1 -0.8
v 0.6 1.1 -0.9
v 0.6 1.1 -1
v 0.6 1.2 -0.7
v 0.6 1.2 -0.8
v 0.6 1.2 -0.9
v 0.6 1.2 -1
v 0.6 1.2 -1.1
v 0.6 1.3 -0.7
v 0.6 1.3 -0.8
v 0.6 1.3 -0.9
v 0.6 1.3 -1
v 0.6 1.3 -1.1
v 0.6 1.4 -1
v 0.6 1.4 -1.1
v 0.6 1.6 -1
v 0.6 1.6 -1.1
v 0.6 1.7 -1
v 0.6 1.7 -1.1
v 0.7 1.2 -0.9
v 0.7 1.2 -1
v 0.7 1.2 -1.1
v 0.7 1.2 -1.3
v 0.7 1.3 -0.9
v 0.7 1.3 -1
v 0.7 1.3 -1.1
v 0.7 1.4 -1
v 0.7 1.4 -1.1
v 0.7 1.6 -0.9
v 0.7 1.6 -1
v 0.7 1.6 -1.1
v 0.7 1.6 -1.2
v 0.7 1.6 -1.3
v 0.7 1.7 -0.8
v 0.7 1.7 -0.9
v 0.7 1.7 -1
v 0.7 1.7 -1.1
v 0.7 1.7 -1.2
v 0.7 1.7 -1.3
v 0.7 1.7 -1.4
v 0.7 1.8 -1
v 0.7 1.8 -1.1
v 0.7 1.8 -1.2
v 0.7 1.9 -1
v 0.7 1.9 -1.1
v 0.7 1.9 -1.2
v 0.7 2 -1
v 0.7 2 -1.1
v 0.7 2 -1.2
v 0.7 2.1 -0.9
v 0.7 2.1 -1.3
v 0.7 2.2 -0.8
v 0.7 2.2 -1.3
v 0.7 2.2 -1.4
v 0.7 2.3 -0.8
v 0.7 2.3 -1.3
v 0.8 1 -1
v 0.8 1 -1.1
v 0.8 1.1 -1
v 0.8 1.1 -1.1
v 0.8 1.2 -1
v 0.8 1.2 -1.1
v 0.8 1.3 -1
v 0.8 1.3 -1.1
v 0.8 1.6 -1.2
v 0.8 1.6 -1.3
v 0.8 1.7 -1.2
v 0.8 1.7 -1.3
v 0.8 1.8 -1.4
v 0.8 1.8 -1.5
v 0.8 2.1 -1.4
v 0.8 2.1 -1.5
v 0.8 2.3 -0.9
v 0.8 2.3 -1.2
v 0.8 2.4 -0.9
v 0.8 2.4 -1.2
v 0.9 1.6 -1.3
v 0.9 1.6 -1.4
v 0.9 1.7 -1.3
v 0.9 1.7 -1.4
v 1.1 1 -1
v 1.1 1 -1.1
v 1.1 1.1 -1
v 1.1 1.1 -1.1
v 1.1 1.2 -1
v 1.1 1.2 -1.1
v 1.1 1.3 -1
v 1.1 1.3 -1.1
v 1.2 1.8 -0.8
v 1.2 1.8 -0.9
v 1.2 1.9 -0.9
v 1.2 2 -0.8
v 1.2 2 -0.9
v 1.3 1 -0.7
v 1.3 1 -0.8
v 1.3 1 -0.9
v 1.3 1.1 -0.7
v 1.3 1.1 -0.8
v 1.3 1.1 -0.9
v 1.3 1.1 -1
v 1.3 1.2 -0.7
v 1.3 1.2 -0.8
v 1.3 1.2 -0.9
v 1.3 1.2 -1
v 1.3 1.2 -1.1
v 1.3 1.3 -0.7
v 1.3 1.3 -0.8
v 1.3 1.3 -0.9
v 1.3 1.3 -1
v 1.3 1.3 -1.1
v 0.7 1 -0.7
v 0.7 1 -0.8
v 0.7 1 -0.9
v 0.7 1.1 -0.7
v 0.7 1.1 -0.8
v 0.7 1.1 -0.9
v 0.7 1.1 -1
v 0.7 1.2 -0.7
v 0.7 1.2 -0.8
v 0.7 1.2 -0.9
v 0.7 1.2 -1
v 0.7 1.2 -1.1
v 0.7 1.3 -0.7
v 0.7 1.3 -0.8
v 0.7 1.3 -0.9
v 0.7 1.3 -1
v 0.7 1.3 -1.1
v 0.8 1.8 -0.8
v 0.8 1.8 -0.9
v 0.8 1.9 -0.9
v 0.8 2 -0.8
v 0.8 2 -0.9
v 0.9 1 -1
v 0.9 1 -1.1
v 0.9 1.1 -1
v 0.9 1.1 -1.1
v 0.9 1.2 -1
v 0.9 1.2 -1.1
v 0.9 1.3 -1
v 0.9 1.3 -1.1
v 1.1 1.6 -1.3
v 1.1 1.6 -1.4
v 1.1 1.7 -1.3
v 1.1 1.7 -1.4
v 1.2 1 -1
v 1.2 1 -1.1
v 1.2 1.1 -1
v 1.2 1.1 -1.1
v 1.2 1.2 -1
v 1.2 1.2 -1.1
v 1.2 1.3 -1
v 1.2 1.3 -1.1
v 1.2 1.6 -1.2
v 1.2 1.6 -1.3
v 1.2 1.7 -1.2
v 1.2 1.7 -1.3
v 1.2 1.8 -1.4
v 1.2 1.8 -1.5
v 1.2 2.1 -1.4
v 1.2 2.1 -1.5
v 1.2 2.3 -0.9
v 1.2 2.3 -1.2
v 1.2 2.4 -0.9
v 1.2 2.4 -1.2
v 1.3 1.2 -0.9
v 1.3 1.2 -1
v 1.3 1.2 -1.1
v 1.3 1.2 -1.3
v 1.3 1.3 -0.9
v 1.3 1.3 -1
v 1.3 1.3 -1.1
v 1.3 1.6 -0.9
v 1.3 1.6 -1
v 1.3 1.6 -1.1
v 1.3 1.6 -1.2
v 1.3 1.6 -1.3
v 1.3 1.7 -0.8
v 1.3 1.7 -0.9
v 1.3 1.7 -1
v 1.3 1.7 -1.1
v 1.3 1.7 -1.2
v 1.3 1.7 -1.3
v 1.3 1.7 -1.4
v 1.3 1.8 -1
v 1.3 1.8 -1.1
v 1.3 1.8 -1.2
v 1.3 1.9 -1
v 1.3 1.9 -1.1
v 1.3 1.9 -1.2
v 1.3 2 -1
v 1.3 2 -1.1
v 1.3 2 -1.2
v 1.3 2.1 -0.9
v 1.3 2.1 -1.3
v 1.3 2.2 -0.8
v 1.3 2.2 -1.3
v 1.3 2.2 -1.4
v 1.3 2.3 -0.8
v 1.3 2.3 -1.3
v 1.4 1 -0.7
v 1.4 1 -0.8
v 1.4 1 -0.9
v 1.4 1.1 -0.7
v 1.4 1.1 -0.8
v 1.4 1.1 -0.9
v 1.4 1.1 -1
v 1.4 1.2 -0.7
v 1.4 1.2 -0.8
v 1.4 1.2 -0.9
v 1.4 1.2 -1
v 1.4 1.2 -1.1
v 1.4 1.3 -0.7
v 1.4 1.3 -0.8
v 1.4 1.3 -0.9
v 1.4 1.3 -1
v 1.4 1.3 -1.1
v 1.4 1.6 -1
v 1.4 1.6 -1.1
v 1.4 1.7 -1
v 1.4 1.7 -1.1
v 0.6 1 -0.7
v 0.6 1.1 -0.7
v 0.6 1.2 -0.7
v 0.6 1.3 -0.7
v 0.7 1 -0.7
v 0.7 1.1 -0.7
v 0.7 1.2 -0.7
v 0.7 1.3 -0.7
v 1.3 1 -0.7
v 1.3 1.1 -0.7
v 1.3 1.2 -0.7
v 1.3 1.3 -0.7
v 1.4 1 -0.7
v 1.4 1.1 -0.7
v 1.4 1.2 -0.7
v 1.4 1.3 -0.7
v 0.6 1.1 -0.8
v 0.6 1.2 -0.8
v 0.7 1.1 -0.8
v 0.7 1.2 -0.8
v 0.7 1.7 -0.8
v 0.7 2.2 -0.8
v 0.7 2.3 -0.8
v 0.8 1.7 -0.8
v 0.8 1.8 -0.8
v 0.8 2 -0.8
v 0.9 1.7 -0.8
v 0.9 1.8 -0.8
v 1.2 1.7 -0.8
v 1.2 1.8 -0.8
v 1.2 2 -0.8
v 1.3 1.1 -0.8
v 1.3 1.2 -0.8
v 1.3 1.7 -0.8
v 1.3 2.2 -0.8
v 1.3 2.3 -0.8
v 1.4 1.1 -0.8
v 1.4 1.2 -0.8
v 0.7 1.2 -0.9
v 0.7 1.3 -0.9
v 0.7 1.6 -0.9
v 0.7 1.7 -0.9
v 0.8 1.2 -0.9
v 0.8 1.3 -0.9
v 0.8 1.4 -0.9
v 0.8 1.5 -0.9
v 0.8 1.6 -0.9
v 0.8 1.7 -0.9
v 0.8 1.8 -0.9
v 0.8 1.9 -0.9
v 0.8 2 -0.9
v 0.8 2.3 -0.9
v 0.8 2.4 -0.9
v 0.9 1.2 -0.9
v 0.9 1.3 -0.9
v 0.9 1.4 -0.9
v 0.9 1.5 -0.9
v 0.9 1.6 -0.9
v 0.9 1.7 -0.9
v 0.9 1.8 -0.9
v 0.9 1.9 -0.9
v 1.1 1.2 -0.9
v 1.1 1.3 -0.9
v 1.1 1.4 -0.9
v 1.1 1.5 -0.9
v 1.1 1.6 -0.9
v 1.1 1.7 -0.9
v 1.1 1.8 -0.9
v 1.1 1.9 -0.9
v 1.2 1.2 -0.9
v 1.2 1.3 -0.9
v 1.2 1.4 -0.9
v 1.2 1.5 -0.9
v 1.2 1.6 -0.9
v 1.2 1.7 -0.9
v 1.2 1.8 -0.9
v 1.2 1.9 -0.9
v 1.2 2 -0.9
v 1.2 2.3 -0.9
v 1.2 2.4 -0.9
v 1.3 1.2 -0.9
v 1.3 1.3 -0.9
v 1.3 1.6 -0.9
v 1.3 1.7 -0.9
v 0.6 1.2 -1
v 0.6 1.3 -1
v 0.6 1.4 -1
v 0.6 1.6 -1
v 0.6 1.7 -1
v 0.7 1.2 -1
v 0.7 1.3 -1
v 0.7 1.4 -1
v 0.7 1.6 -1
v 0.7 1.7 -1
v 0.8 1 -1
v 0.8 1.1 -1
v 0.8 1.2 -1
v 0.9 1 -1
v 0.9 1.1 -1
v 0.9 1.2 -1
v 1.1 1 -1
v 1.1 1.1 -1
v 1.1 1.2 -1
v 1.2 1 -1
v 1.2 1.1 -1
v 1.2 1.2 -1
v 1.3 1.2 -1
v 1.3 1.3 -1
v 1.3 1.6 -1
v 1.3 1.7 -1
v 1.4 1.2 -1
v 1.4 1.3 -1
v 1.4 1.6 -1
v 1.4 1.7 -1
v 0.7 1.2 -1.1
v 0.7 1.3 -1.1
v 0.8 1.2 -1.1
v 0.8 1.3 -1.1
v 0.9 1.2 -1.1
v 0.9 1.3 -1.1
v 1.1 1.2 -1.1
v 1.1 1.3 -1.1
v 1.2 1.2 -1.1
v 1.2 1.3 -1.1
v 1.3 1.2 -1.1
v 1.3 1.3 -1.1
v 0.6 1 -0.9
v 0.6 1.1 -0.9
v 0.6 1.2 -0.9
v 0.6 1.3 -0.9
v 0.7 1 -0.9
v 0.7 1.1 -0.9
v 0.7 1.2 -0.9
v 0.7 1.3 -0.9
v 1.3 1 -0.9
v 1.3 1.1 -0.9
v 1.3 1.2 -0.9
v 1.3 1.3 -0.9
v 1.4 1 -0.9
v 1.4 1.1 -0.9
v 1.4 1.2 -0.9
v 1.4 1.3 -0.9
v 0.6 1.1 -1
v 0.6 1.2 -1
v 0.7 1.1 -1
v 0.7 1.2 -1
v 0.7 1.3 -1
v 0.8 1.2 -1
v 0.8 1.3 -1
v 0.9 1.2 -1
v 0.9 1.3 -1
v 1.1 1.2 -1
v 1.1 1.3 -1
v 1.2 1.2 -1
v 1.2 1.3 -1
v 1.3 1.1 -1
v 1.3 1.2 -1
v 1.3 1.3 -1
v 1.4 1.1 -1
v 1.4 1.2 -1
v 0.6 1.2 -1.1
v 0.6 1.3 -1.1
v 0.6 1.4 -1.1
v 0.6 1.6 -1.1
v 0.6 1.7 -1.1
v 0.7 1.2 -1.1
v 0.7 1.3 -1.1
v 0.7 1.4 -1.1
v 0.7 1.6 -1.1
v 0.7 1.7 -1.1
v 0.8 1 -1.1
v 0.8 1.1 -1.1
v 0.8 1.2 -1.1
v 0.9 1 -1.1
v 0.9 1.1 -1.1
v 0.9 1.2 -1.1
v 1.1 1 -1.1
v 1.1 1.1 -1.1
v 1.1 1.2 -1.1
v 1.2 1 -1.1
v 1.2 1.1 -1.1
v 1.2 1.2 -1.1
v 1.3 1.2 -1.1
v 1.3 1.3 -1.1
v 1.3 1.6 -1.1
v 1.3 1.7 -1.1
v 1.4 1.2 -1.1
v 1.4 1.3 -1.1
v 1.4 1.6 -1.1
v 1.4 1.7 -1.1
v 0.7 1.6 -1.2
v 0.7 1.7 -1.2
v 0.8 1.6 -1.2
v 0.8 1.7 -1.2
v 0.8 2.3 -1.2
v 0.8 2.4 -1.2
v 1.2 1.6 -1.2
v 1.2 1.7 -1.2
v 1.2 2.3 -1.2
v 1.2 2.4 -1.2
v 1.3 1.6 -1.2
v 1.3 1.7 -1.2
v 0.7 1.2 -1.3
v 0.7 1.6 -1.3
v 0.7 2.2 -1.3
v 0.7 2.3 -1.3
v 0.8 1.6 -1.3
v 0.8 1.7 -1.3
v 0.9 1.6 -1.3
v 0.9 1.7 -1.3
v 1.1 1.6 -1.3
v 1.1 1.7 -1.3
v 1.2 1.6 -1.3
v 1.2 1.7 -1.3
v 1.3 1.2 -1.3
v 1.3 1.6 -1.3
v 1.3 2.2 -1.3
v 1.3 2.3 -1.3
v 0.7 1.7 -1.4
v 0.7 2.2 -1.4
v 0.8 1.8 -1.4
v 0.8 2.1 -1.4
v 0.9 1.6 -1.4
v 0.9 1.7 -1.4
v 1.1 1.6 -1.4
v 1.1 1.7 -1.4
v 1.2 1.8 -1.4
v 1.2 2.1 -1.4
v 1.3 1.7 -1.4
v 1.3 2.2 -1.4
v 0.8 1.8 -1.5
v 0.8 2.1 -1.5
v 1.2 1.8 -1.5
v 1.2 2.1 -1.5
v 0.6 1 -0.7
v 0.7 1 -0.7
v 1.3 1 -0.7
v 1.4 1 -0.7
v 0.6 1 -0.8
v 0.7 1 -0.8
v 1.3 1 -0.8
v 1.4 1 -0.8
v 0.6 1 -0.9
v 0.7 1 -0.9
v 1.3 1 -0.9
v 1.4 1 -0.9
v 0.8 1 -1
v 0.9 1 -1
v 1.1 1 -1
v 1.2 1 -1
v 0.8 1 -1.1
v 0.9 1 -1.1
v 1.1 1 -1.1
v 1.2 1 -1.1
v 0.6 1.1 -0.9
v 0.7 1.1 -0.9
v 1.3 1.1 -0.9
v 1.4 1.1 -0.9
v 0.6 1.1 -1
v 0.7 1.1 -1
v 1.3 1.1 -1
v 1.4 1.1 -1
v 0.6 1.2 -0.7
v 0.7 1.2 -0.7
v 1.3 1.2 -0.7
v 1.4 1.2 -0.7
v 0.6 1.2 -0.8
v 0.7 1.2 -0.8
v 1.3 1.2 -0.8
v 1.4 1.2 -0.8
v 0.7 1.2 -0.9
v 0.8 1.2 -0.9
v 0.9 1.2 -0.9
v 1.1 1.2 -0.9
v 1.2 1.2 -0.9
v 1.3 1.2 -0.9
v 0.6 1.2 -1
v 0.7 1.2 -1
v 0.8 1.2 -1
v 0.9 1.2 -1
v 1.1 1.2 -1
v 1.2 1.2 -1
v 1.3 1.2 -1
v 1.4 1.2 -1
v 0.6 1.2 -1.1
v 0.7 1.2 -1.1
v 0.8 1.2 -1.1
v 0.9 1.2 -1.1
v 1.1 1.2 -1.1
v 1.2 1.2 -1.1
v 1.3 1.2 -1.1
v 1.4 1.2 -1.1
v 0.7 1.2 -1.3
v 1.3 1.2 -1.3
v 0.7 1.3 -1
v 0.8 1.3 -1
v 0.9 1.3 -1
v 1.1 1.3 -1
v 1.2 1.3 -1
v 1.3 1.3 -1
v 0.7 1.3 -1.1
v 0.8 1.3 -1.1
v 0.9 1.3 -1.1
v 1.1 1.3 -1.1
v 1.2 1.3 -1.1
v 1.3 1.3 -1.1
v 0.9 1.6 -1.3
v 1.1 1.6 -1.3
v 0.9 1.6 -1.4
v 1.1 1.6 -1.4
v 0.7 1.7 -0.8
v 0.8 1.7 -0.8
v 0.9 1.7 -0.8
v 1.2 1.7 -0.8
v 1.3 1.7 -0.8
v 0.7 1.7 -0.9
v 0.8 1.7 -0.9
v 0.9 1.7 -0.9
v 1.1 1.7 -0.9
v 1.2 1.7 -0.9
v 1.3 1.7 -0.9
v 0.7 1.7 -1.2
v 0.8 1.7 -1.2
v 1.2 1.7 -1.2
v 1.3 1.7 -1.2
v 0.7 1.7 -1.3
v 0.8 1.7 -1.3
v 0.9 1.7 -1.3
v 1.1 1.7 -1.3
v 1.2 1.7 -1.3
v 1.3 1.7 -1.3
v 0.7 1.7 -1.4
v 0.9 1.7 -1.4
v 1.1 1.7 -1.4
v 1.3 1.7 -1.4
v 0.8 1.8 -1.4
v 1.2 1.8 -1.4
v 0.8 1.8 -1.5
v 1.2 1.8 -1.5
v 0.8 2 -0.8
v 1.2 2 -0.8
v 0.8 2 -0.9
v 1.2 2 -0.9
v 0.6 1.1 -0.7
v 0.7 1.1 -0.7
v 1.3 1.1 -0.7
v 1.4 1.1 -0.7
v 0.6 1.1 -0.8
v 0.7 1.1 -0.8
v 1.3 1.1 -0.8
v 1.4 1.1 -0.8
v 0.6 1.2 -0.9
v 0.7 1.2 -0.9
v 1.3 1.2 -0.9
v 1.4 1.2 -0.9
v 0.6 1.2 -1
v 0.7 1.2 -1
v 1.3 1.2 -1
v 1.4 1.2 -1
v 0.6 1.3 -0.7
v 0.7 1.3 -0.7
v 1.3 1.3 -0.7
v 1.4 1.3 -0.7
v 0.6 1.3 -0.8
v 0.7 1.3 -0.8
v 1.3 1.3 -0.8
v 1.4 1.3 -0.8
v 0.6 1.3 -0.9
v 0.7 1.3 -0.9
v 1.3 1.3 -0.9
v 1.4 1.3 -0.9
v 0.7 1.6 -1.2
v 0.8 1.6 -1.2
v 1.2 1.6 -1.2
v 1.3 1.6 -1.2
v 0.7 1.6 -1.3
v 0.8 1.6 -1.3
v 1.2 1.6 -1.3
v 1.3 1.6 -1.3
v 0.6 1.7 -1
v 0.7 1.7 -1
v 1.3 1.7 -1
v 1.4 1.7 -1
v 0.6 1.7 -1.1
v 0.7 1.7 -1.1
v 1.3 1.7 -1.1
v 1.4 1.7 -1.1
v 0.8 1.8 -0.8
v 0.9 1.8 -0.8
v 1.2 1.8 -0.8
v 0.8 1.8 -0.9
v 0.9 1.8 -0.9
v 1.1 1.8 -0.9
v 1.2 1.8 -0.9
v 0.8 2.1 -1.4
v 1.2 2.1 -1.4
v 0.8 2.1 -1.5
v 1.2 2.1 -1.5
v 0.7 2.2 -1.3
v 1.3 2.2 -1.3
v 0.7 2.2 -1.4
v 1.3 2.2 -1.4
v 0.7 2.3 -0.8
v 1.3 2.3 -0.8
v 0.8 2.3 -0.9
v 1.2 2.3 -0.9
v 0.8 2.3 -1.2
v 1.2 2.3 -1.2
v 0.7 2.3 -1.3
v 1.3 2.3 -1.3
v 0.8 2.4 -0.9
v 1.2 2.4 -0.9
v 0.8 2.4 -1.2
v 1.2 2.4 -1.2

# faces
f 4/9/1 2/9/1 1/9/1
f 5/12/1 3/12/1 2/12/1
f 5/9/1 2/9/1 4/9/1
f 6/12/1 3/12/1 5/12/1
f 9/12/1 6/12/1 5/12/1
f 10/9/1 7/9/1 6/9/1
f 10/12/1 6/12/1 9/12/1
f 11/9/1 7/9/1 10/9/1
f 13/9/1 9/9/1 8/9/1
f 14/12/1 10/12/1 9/12/1
f 14/9/1 9/9/1 13/9/1
f 15/12/1 10/12/1 14/12/1
f 16/1/1 12/1/1 11/1/1
f 17/1/1 12/1/1 16/1/1
f 18/5/1 17/5/1 16/5/1
f 19/5/1 17/5/1 18/5/1
f 20/6/1 19/6/1 18/6/1
f 21/6/1 19/6/1 20/6/1
f 22/17/1 21/17/1 20/17/1
f 23/17/1 21/17/1 22/17/1
f 28/6/1 25/6/1 24/6/1
f 29/6/1 25/6/1 28/6/1
f 30/6/1 27/6/1 26/6/1
f 31/6/1 29/6/1 28/6/1
f 32/6/1 27/6/1 30/6/1
f 33/6/1 31/6/1 28/6/1
f 34/6/1 31/6/1 33/6/1
f 35/6/1 27/6/1 32/6/1
f 36/6/1 27/6/1 35/6/1
f 37/6/1 27/6/1 36/6/1
f 39/17/1 34/17/1 33/17/1
f 40/17/1 34/17/1 39/17/1
f 41/17/1 36/17/1 35/17/1
f 42/17/1 36/17/1 41/17/1
f 45/8/1 43/8/1 42/8/1
f 45/8/1 40/8/1 39/8/1
f 45/8/1 42/8/1 41/8/1
f 45/8/1 41/8/1 40/8/1
f 46/8/1 43/8/1 45/8/1
f 47/8/1 43/8/1 46/8/1
f 48/8/1 45/8/1 39/8/1
f 48/15/1 46/15/1 45/15/1
f 49/16/1 47/16/1 46/16/1
f 49/15/1 46/15/1 48/15/1
f 50/8/1 43/8/1 47/8/1
f 50/16/1 47/16/1 49/16/1
f 51/14/1 49/14/1 48/14/1
f 51/8/1 48/8/1 39/8/1
f 52/13/1 50/13/1 49/13/1
f 52/14/1 49/14/1 51/14/1
f 53/8/1 43/8/1 50/8/1
f 53/13/1 50/13/1 52/13/1
f 54/6/1 39/6/1 38/6/1
f 54/8/1 52/8/1 51/8/1
f 54/8/1 53/8/1 52/8/1
f 54/8/1 51/8/1 39/8/1
f 55/6/1 44/6/1 43/6/1
f 55/8/1 53/8/1 54/8/1
f 55/8/1 43/8/1 53/8/1
f 56/6/1 54/6/1 38/6/1
f 56/6/1 55/6/1 54/6/1
f 57/6/1 44/6/1 55/6/1
f 57/6/1 55/6/1 56/6/1
f 58/6/1 44/6/1 57/6/1
f 59/9/1 57/9/1 56/9/1
f 60/9/1 57/9/1 59/9/1
f 63/8/1 62/8/1 61/8/1
f 64/8/1 62/8/1 63/8/1
f 65/18/1 64/18/1 63/18/1
f 66/18/1 64/18/1 65/18/1
f 67/1/1 66/1/1 65/1/1
f 68/1/1 66/1/1 67/1/1
f 71/17/1 70/17/1 69/17/1
f 72/17/1 70/17/1 71/17/1
f 75/8/1 74/8/1 73/8/1
f 76/8/1 74/8/1 75/8/1
f 79/7/1 78/7/1 77/7/1
f 80/7/1 78/7/1 79/7/1
f 83/17/1 82/17/1 81/17/1
f 84/17/1 82/17/1 83/17/1
f 87/8/1 86/8/1 85/8/1
f 88/8/1 86/8/1 87/8/1
f 89/18/1 88/18/1 87/18/1
f 90/18/1 88/18/1 89/18/1
f 91/1/1 90/1/1 89/1/1
f 92/1/1 90/1/1 91/1/1
f 95/6/1 94/6/1 93/6/1
f 96/6/1 95/6/1 93/6/1
f 97/6/1 95/6/1 96/6/1
f 101/9/1 99/9/1 98/9/1
f 102/12/1 100/12/1 99/12/1
f 102/9/1 99/9/1 101/9/1
f 103/12/1 100/12/1 102/12/1
f 106/12/1 103/12/1 102/12/1
f 107/9/1 104/9/1 103/9/1
f 107/12/1 103/12/1 106/12/1
f 108/9/1 104/9/1 107/9/1
f 110/9/1 106/9/1 105/9/1
f 111/12/1 107/12/1 106/12/1
f 111/9/1 106/9/1 110/9/1
f 112/12/1 107/12/1 111/12/1
f 113/1/1 109/1/1 108/1/1
f 114/1/1 109/1/1 113/1/1
f 115/9/2 116/9/2 118/9/2
f 116/12/2 117/12/2 119/12/2
f 118/9/2 116/9/2 119/9/2
f 119/12/2 117/12/2 120/12/2
f 119/12/2 120/12/2 123/12/2
f 120/9/2 121/9/2 124/9/2
f 123/12/2 120/12/2 124/12/2
f 124/9/2 121/9/2 125/9/2
f 122/9/2 123/9/2 127/9/2
f 123/12/2 124/12/2 128/12/2
f 127/9/2 123/9/2 128/9/2
f 128/12/2 124/12/2 129/12/2
f 125/1/2 126/1/2 130/1/2
f 130/1/2 126/1/2 131/1/2
f 132/6/2 133/6/2 134/6/2
f 132/6/2 134/6/2 135/6/2
f 135/6/2 134/6/2 136/6/2
f 137/8/2 138/8/2 139/8/2
f 139/8/2 138/8/2 140/8/2
f 139/18/2 140/18/2 141/18/2
f 141/18/2 140/18/2 142/18/2
f 141/1/2 142/1/2 143/1/2
f 143/1/2 142/1/2 144/1/2
f 145/17/2 146/17/2 147/17/2
f 147/17/2 146/17/2 148/17/2
f 149/8/2 150/8/2 151/8/2
f 151/8/2 150/8/2 152/8/2
f 151/18/2 152/18/2 153/18/2
f 153/18/2 152/18/2 154/18/2
f 153/1/2 154/1/2 155/1/2
f 155/1/2 154/1/2 156/1/2
f 157/17/2 158/17/2 159/17/2
f 159/17/2 158/17/2 160/17/2
f 161/8/2 162/8/2 163/8/2
f 163/8/2 162/8/2 164/8/2
f 165/7/2 166/7/2 167/7/2
f 167/7/2 166/7/2 168/7/2
f 169/6/2 170/6/2 173/6/2
f 173/6/2 170/6/2 174/6/2
f 171/6/2 172/6/2 175/6/2
f 173/6/2 174/6/2 176/6/2
f 176/6/2 174/6/2 177/6/2
f 175/6/2 172/6/2 178/6/2
f 178/6/2 172/6/2 179/6/2
f 179/6/2 172/6/2 180/6/2
f 176/17/2 177/17/2 182/17/2
f 182/17/2 177/17/2 183/17/2
f 178/17/2 179/17/2 184/17/2
f 184/17/2 179/17/2 185/17/2
f 185/8/2 186/8/2 188/8/2
f 182/8/2 183/8/2 188/8/2
f 184/8/2 185/8/2 188/8/2
f 183/8/2 184/8/2 188/8/2
f 188/8/2 186/8/2 189/8/2
f 189/8/2 186/8/2 190/8/2
f 182/8/2 188/8/2 191/8/2
f 188/15/2 189/15/2 191/15/2
f 189/16/2 190/16/2 192/16/2
f 191/15/2 189/15/2 192/15/2
f 190/8/2 186/8/2 193/8/2
f 192/16/2 190/16/2 193/16/2
f 191/14/2 192/14/2 194/14/2
f 182/8/2 191/8/2 194/8/2
f 192/13/2 193/13/2 195/13/2
f 194/14/2 192/14/2 195/14/2
f 193/8/2 186/8/2 196/8/2
f 195/13/2 193/13/2 196/13/2
f 181/6/2 182/6/2 197/6/2
f 194/8/2 195/8/2 197/8/2
f 195/8/2 196/8/2 197/8/2
f 182/8/2 194/8/2 197/8/2
f 186/6/2 187/6/2 198/6/2
f 197/8/2 196/8/2 198/8/2
f 196/8/2 186/8/2 198/8/2
f 181/6/2 197/6/2 199/6/2
f 197/6/2 198/6/2 199/6/2
f 198/6/2 187/6/2 200/6/2
f 199/6/2 198/6/2 200/6/2
f 200/6/2 187/6/2 201/6/2
f 199/9/2 200/9/2 202/9/2
f 202/9/2 200/9/2 203/9/2
f 204/9/2 205/9/2 207/9/2
f 205/12/2 206/12/2 208/12/2
f 207/9/2 205/9/2 208/9/2
f 208/12/2 206/12/2 209/12/2
f 208/12/2 209/12/2 212/12/2
f 209/9/2 210/9/2 213/9/2
f 212/12/2 209/12/2 213/12/2
f 213/9/2 210/9/2 214/9/2
f 211/9/2 212/9/2 216/9/2
f 212/12/2 213/12/2 217/12/2
f 216/9/2 212/9/2 217/9/2
f 217/12/2 213/12/2 218/12/2
f 214/1/2 215/1/2 219/1/2
f 219/1/2 215/1/2 220/1/2
f 219/6/2 220/6/2 221/6/2
f 221/6/2 220/6/2 222/6/2
f 221/17/2 222/17/2 223/17/2
f 223/17/2 222/17/2 224/17/2
f 229/9/3 226/9/3 225/9/3
f 230/9/3 226/9/3 229/9/3
f 231/9/3 228/9/3 227/9/3
f 232/9/3 228/9/3 231/9/3
f 237/9/3 234/9/3 233/9/3
f 238/9/3 234/9/3 237/9/3
f 239/9/3 236/9/3 235/9/3
f 240/9/3 236/9/3 239/9/3
f 243/12/3 242/12/3 241/12/3
f 244/12/3 242/12/3 243/12/3
f 248/6/3 246/6/3 245/6/3
f 249/6/3 246/6/3 248/6/3
f 250/6/3 246/6/3 249/6/3
f 251/9/3 249/9/3 248/9/3
f 252/9/3 249/9/3 251/9/3
f 253/8/3 252/8/3 251/8/3
f 254/8/3 252/8/3 253/8/3
f 255/6/3 246/6/3 250/6/3
f 258/6/3 254/6/3 253/6/3
f 258/6/3 255/6/3 254/6/3
f 259/9/3 247/9/3 246/9/3
f 259/6/3 255/6/3 258/6/3
f 259/6/3 246/6/3 255/6/3
f 260/9/3 247/9/3 259/9/3
f 261/12/3 257/12/3 256/12/3
f 262/12/3 257/12/3 261/12/3
f 267/6/3 264/6/3 263/6/3
f 267/6/3 265/6/3 264/6/3
f 268/6/3 265/6/3 267/6/3
f 269/6/3 265/6/3 268/6/3
f 270/6/3 265/6/3 269/6/3
f 271/17/3 266/17/3 265/17/3
f 271/6/3 265/6/3 270/6/3
f 272/17/3 266/17/3 271/17/3
f 278/3/3 268/3/3 267/3/3
f 279/5/3 269/5/3 268/5/3
f 279/3/3 268/3/3 278/3/3
f 280/3/3 270/3/3 269/3/3
f 280/5/3 269/5/3 279/5/3
f 281/5/3 271/5/3 270/5/3
f 281/3/3 270/3/3 280/3/3
f 282/3/3 272/3/3 271/3/3
f 282/5/3 271/5/3 281/5/3
f 283/3/3 272/3/3 282/3/3
f 284/18/3 274/18/3 273/18/3
f 285/1/3 275/1/3 274/1/3
f 285/18/3 274/18/3 284/18/3
f 286/5/3 279/5/3 278/5/3
f 287/6/3 280/6/3 279/6/3
f 287/5/3 279/5/3 286/5/3
f 288/5/3 281/5/3 280/5/3
f 288/6/3 280/6/3 287/6/3
f 289/6/3 282/6/3 281/6/3
f 289/5/3 281/5/3 288/5/3
f 290/5/3 283/5/3 282/5/3
f 290/6/3 282/6/3 289/6/3
f 291/5/3 283/5/3 290/5/3
f 292/1/3 285/1/3 284/1/3
f 293/1/3 275/1/3 285/1/3
f 293/1/3 285/1/3 292/1/3
f 294/3/3 287/3/3 286/3/3
f 295/5/3 288/5/3 287/5/3
f 295/3/3 287/3/3 294/3/3
f 296/3/3 289/3/3 288/3/3
f 296/5/3 288/5/3 295/5/3
f 297/5/3 290/5/3 289/5/3
f 297/3/3 289/3/3 296/3/3
f 298/3/3 291/3/3 290/3/3
f 298/5/3 290/5/3 297/5/3
f 299/3/3 291/3/3 298/3/3
f 300/18/3 293/18/3 292/18/3
f 301/1/3 275/1/3 293/1/3
f 301/18/3 293/18/3 300/18/3
f 302/1/3 275/1/3 301/1/3
f 303/7/3 277/7/3 276/7/3
f 304/7/3 277/7/3 303/7/3
f 305/6/3 295/6/3 294/6/3
f 305/6/3 297/6/3 296/6/3
f 305/6/3 298/6/3 297/6/3
f 305/6/3 296/6/3 295/6/3
f 306/6/3 298/6/3 305/6/3
f 307/17/3 299/17/3 298/17/3
f 307/6/3 298/6/3 306/6/3
f 308/17/3 299/17/3 307/17/3
f 314/1/3 310/1/3 309/1/3
f 315/5/3 311/5/3 310/5/3
f 315/1/3 310/1/3 314/1/3
f 316/6/3 312/6/3 311/6/3
f 316/5/3 311/5/3 315/5/3
f 317/17/3 313/17/3 312/17/3
f 317/6/3 312/6/3 316/6/3
f 318/17/3 313/17/3 317/17/3
f 322/8/3 320/8/3 319/8/3
f 323/18/3 321/18/3 320/18/3
f 323/8/3 320/8/3 322/8/3
f 324/18/3 321/18/3 323/18/3
f 328/8/3 326/8/3 325/8/3
f 329/18/3 327/18/3 326/18/3
f 329/8/3 326/8/3 328/8/3
f 330/18/3 327/18/3 329/18/3
f 335/1/3 332/1/3 331/1/3
f 336/6/3 333/6/3 332/6/3
f 336/1/3 332/1/3 335/1/3
f 337/17/3 334/17/3 333/17/3
f 337/6/3 333/6/3 336/6/3
f 338/17/3 334/17/3 337/17/3
f 341/6/3 340/6/3 339/6/3
f 342/6/3 340/6/3 341/6/3
f 345/6/3 344/6/3 343/6/3
f 346/6/3 344/6/3 345/6/3
f 349/6/3 348/6/3 347/6/3
f 350/6/3 348/6/3 349/6/3
f 351/12/4 352/12/4 355/12/4
f 355/12/4 352/12/4 356/12/4
f 353/12/4 354/12/4 357/12/4
f 357/12/4 354/12/4 358/12/4
f 359/12/4 360/12/4 363/12/4
f 363/12/4 360/12/4 364/12/4
f 361/12/4 362/12/4 365/12/4
f 365/12/4 362/12/4 366/12/4
f 367/9/4 368/9/4 369/9/4
f 369/9/4 368/9/4 370/9/4
f 370/6/4 371/6/4 372/6/4
f 372/6/4 371/6/4 373/6/4
f 374/5/4 375/5/4 376/5/4
f 376/5/4 375/5/4 377/5/4
f 378/6/4 379/6/4 381/6/4
f 381/6/4 379/6/4 382/6/4
f 380/9/4 381/9/4 383/9/4
f 383/9/4 381/9/4 384/9/4
f 385/1/4 386/1/4 390/1/4
f 386/5/4 387/5/4 391/5/4
f 390/1/4 386/1/4 391/1/4
f 387/6/4 388/6/4 392/6/4
f 391/5/4 387/5/4 392/5/4
f 388/17/4 389/17/4 393/17/4
f 392/6/4 388/6/4 393/6/4
f 393/17/4 389/17/4 394/17/4
f 395/8/4 396/8/4 398/8/4
f 396/18/4 397/18/4 399/18/4
f 398/8/4 396/8/4 399/8/4
f 399/18/4 397/18/4 400/18/4
f 401/8/4 402/8/4 404/8/4
f 402/18/4 403/18/4 405/18/4
f 404/8/4 402/8/4 405/8/4
f 405/18/4 403/18/4 406/18/4
f 407/1/4 408/1/4 411/1/4
f 408/6/4 409/6/4 412/6/4
f 411/1/4 408/1/4 412/1/4
f 409/17/4 410/17/4 413/17/4
f 412/6/4 409/6/4 413/6/4
f 413/17/4 410/17/4 414/17/4
f 415/17/4 416/17/4 417/17/4
f 417/17/4 416/17/4 418/17/4
f 419/7/4 420/7/4 423/7/4
f 423/7/4 420/7/4 424/7/4
f 421/17/4 422/17/4 425/17/4
f 425/17/4 422/17/4 426/17/4
f 427/6/4 428/6/4 431/6/4
f 427/6/4 431/6/4 433/6/4
f 431/17/4 432/17/4 433/17/4
f 433/17/4 432/17/4 434/17/4
f 427/6/4 433/6/4 435/6/4
f 427/6/4 435/6/4 437/6/4
f 435/17/4 436/17/4 437/17/4
f 437/17/4 436/17/4 438/17/4
f 427/6/4 437/6/4 439/6/4
f 439/6/4 437/6/4 440/6/4
f 429/9/4 430/9/4 441/9/4
f 441/9/4 430/9/4 442/9/4
f 443/6/4 444/6/4 445/6/4
f 445/6/4 444/6/4 446/6/4
f 443/6/4 445/6/4 448/6/4
f 447/17/4 448/17/4 449/17/4
f 448/6/4 445/6/4 450/6/4
f 449/17/4 448/17/4 450/17/4
f 450/6/4 445/6/4 451/6/4
f 446/6/4 444/6/4 452/6/4
f 450/6/4 451/6/4 453/6/4
f 451/6/4 452/6/4 453/6/4
f 452/6/4 444/6/4 454/6/4
f 453/6/4 452/6/4 454/6/4
f 455/8/4 456/8/4 457/8/4
f 457/8/4 456/8/4 458/8/4
f 463/9/5 460/9/5 459/9/5
f 464/9/5 460/9/5 463/9/5
f 465/9/5 462/9/5 461/9/5
f 466/9/5 462/9/5 465/9/5
f 467/12/5 464/12/5 463/12/5
f 468/12/5 464/12/5 467/12/5
f 469/12/5 466/12/5 465/12/5
f 470/12/5 466/12/5 469/12/5
f 475/8/5 472/8/5 471/8/5
f 476/8/5 472/8/5 475/8/5
f 477/8/5 474/8/5 473/8/5
f 478/8/5 474/8/5 477/8/5
f 483/9/5 480/9/5 479/9/5
f 484/9/5 480/9/5 483/9/5
f 485/9/5 482/9/5 481/9/5
f 486/9/5 482/9/5 485/9/5
f 491/9/5 488/9/5 487/9/5
f 492/9/5 488/9/5 491/9/5
f 493/9/5 490/9/5 489/9/5
f 494/9/5 490/9/5 493/9/5
f 502/6/5 496/6/5 495/6/5
f 503/3/5 497/3/5 496/3/5
f 503/6/5 496/6/5 502/6/5
f 504/5/5 498/5/5 497/5/5
f 504/3/5 497/3/5 503/3/5
f 505/3/5 499/3/5 498/3/5
f 505/5/5 498/5/5 504/5/5
f 506/6/5 500/6/5 499/6/5
f 506/3/5 499/3/5 505/3/5
f 507/6/5 500/6/5 506/6/5
f 509/1/5 502/1/5 501/1/5
f 510/1/5 502/1/5 509/1/5
f 515/1/5 508/1/5 507/1/5
f 516/1/5 508/1/5 515/1/5
f 517/6/5 514/6/5 513/6/5
f 517/6/5 515/6/5 514/6/5
f 517/6/5 511/6/5 510/6/5
f 517/6/5 513/6/5 512/6/5
f 517/6/5 512/6/5 511/6/5
f 518/6/5 515/6/5 517/6/5
f 525/6/5 520/6/5 519/6/5
f 526/6/5 520/6/5 525/6/5
f 527/6/5 522/6/5 521/6/5
f 528/6/5 522/6/5 527/6/5
f 529/6/5 524/6/5 523/6/5
f 530/6/5 524/6/5 529/6/5
f 533/17/5 532/17/5 531/17/5
f 534/17/5 532/17/5 533/17/5
f 540/6/5 536/6/5 535/6/5
f 541/9/5 537/9/5 536/9/5
f 541/6/5 536/6/5 540/6/5
f 542/8/5 538/8/5 537/8/5
f 542/9/5 537/9/5 541/9/5
f 543/8/5 538/8/5 542/8/5
f 544/6/5 539/6/5 538/6/5
f 544/8/5 538/8/5 543/8/5
f 545/6/5 539/6/5 544/6/5
f 550/8/5 547/8/5 546/8/5
f 551/8/5 547/8/5 550/8/5
f 554/8/5 549/8/5 548/8/5
f 555/8/5 549/8/5 554/8/5
f 556/6/5 552/6/5 551/6/5
f 556/6/5 551/6/5 550/6/5
f 557/6/5 552/6/5 556/6/5
f 558/6/5 555/6/5 554/6/5
f 558/6/5 554/6/5 553/6/5
f 559/6/5 555/6/5 558/6/5
f 562/8/5 561/8/5 560/8/5
f 563/8/5 561/8/5 562/8/5
f 566/6/5 565/6/5 564/6/5
f 567/6/5 565/6/5 566/6/5
f 568/9/6 569/9/6 572/9/6
f 572/9/6 569/9/6 573/9/6
f 570/9/6 571/9/6 574/9/6
f 574/9/6 571/9/6 575/9/6
f 576/9/6 577/9/6 580/9/6
f 580/9/6 577/9/6 581/9/6
f 578/9/6 579/9/6 582/9/6
f 582/9/6 579/9/6 583/9/6
f 584/9/6 585/9/6 588/9/6
f 588/9/6 585/9/6 589/9/6
f 586/9/6 587/9/6 590/9/6
f 590/9/6 587/9/6 591/9/6
f 588/12/6 589/12/6 592/12/6
f 592/12/6 589/12/6 593/12/6
f 590/12/6 591/12/6 594/12/6
f 594/12/6 591/12/6 595/12/6
f 596/6/6 597/6/6 600/6/6
f 600/6/6 597/6/6 601/6/6
f 598/6/6 599/6/6 602/6/6
f 602/6/6 599/6/6 603/6/6
f 604/17/6 605/17/6 608/17/6
f 608/17/6 605/17/6 609/17/6
f 606/17/6 607/17/6 610/17/6
f 610/17/6 607/17/6 611/17/6
f 612/9/6 613/9/6 615/9/6
f 613/8/6 614/8/6 616/8/6
f 615/9/6 613/9/6 616/9/6
f 616/8/6 614/8/6 617/8/6
f 617/8/6 614/8/6 618/8/6
f 619/8/6 620/8/6 621/8/6
f 621/8/6 620/8/6 622/8/6
f 623/6/6 624/6/6 625/6/6
f 625/6/6 624/6/6 626/6/6
f 627/9/6 628/9/6 629/9/6
f 629/9/6 628/9/6 630/9/6
f 627/9/6 629/9/6 631/9/6
f 630/9/6 628/9/6 632/9/6
f 627/9/6 631/9/6 633/9/6
f 631/9/6 632/9/6 633/9/6
f 632/9/6 628/9/6 634/9/6
f 633/9/6 632/9/6 634/9/6
f 635/7/6 636/7/6 637/7/6
f 637/7/6 636/7/6 638/7/6
