# MagicaVoxel @ Ephtracy

# group
o 

# material
mtllib MA_Wizard_Green.mtl
usemtl palette

# normals
vn -1 0 0
vn 1 0 0
vn 0 0 1
vn 0 0 -1
vn 0 -1 0
vn 0 1 0

# texcoords
vt 0.0683594 0.5
vt 0.208984 0.5
vt 0.373047 0.5
vt 0.400391 0.5
vt 0.607422 0.5
vt 0.654297 0.5
vt 0.724609 0.5
vt 0.748047 0.5
vt 0.771484 0.5
vt 0.861328 0.5
vt 0.888672 0.5
vt 0.896484 0.5
vt 0.904297 0.5
vt 0.958984 0.5
vt 0.978516 0.5

# verts
v 0.3 1 -1
v 0.3 1 -1.1
v 0.3 1.3 -1
v 0.3 1.3 -1.1
v 0.3 1.4 -1
v 0.3 1.4 -1.1
v 0.3 2.3 -1.1
v 0.3 2.3 -1.3
v 0.3 2.4 -1
v 0.3 2.4 -1.3
v 0.5 2.1 -0.6
v 0.5 2.1 -0.7
v 0.5 2.1 -1.4
v 0.5 2.1 -1.5
v 0.5 2.2 -0.6
v 0.5 2.2 -0.7
v 0.5 2.2 -1.4
v 0.5 2.2 -1.5
v 0.6 1.3 -0.8
v 0.6 1.3 -0.9
v 0.6 1.3 -1.2
v 0.6 1.3 -1.4
v 0.6 1.4 -0.8
v 0.6 1.4 -0.9
v 0.6 1.4 -1
v 0.6 1.4 -1.2
v 0.6 1.4 -1.3
v 0.6 1.4 -1.4
v 0.6 1.5 -0.9
v 0.6 1.5 -1
v 0.6 1.5 -1.3
v 0.6 1.5 -1.4
v 0.7 1 -0.8
v 0.7 1 -1.5
v 0.7 1 -1.6
v 0.7 1.1 -0.7
v 0.7 1.1 -0.8
v 0.7 1.1 -1.4
v 0.7 1.1 -1.5
v 0.7 1.1 -1.6
v 0.7 1.2 -1.4
v 0.7 1.2 -1.5
v 0.7 1.3 -0.8
v 0.7 1.3 -0.9
v 0.7 1.3 -1
v 0.7 1.3 -1.1
v 0.7 1.3 -1.2
v 0.7 1.3 -1.4
v 0.7 1.4 -0.7
v 0.7 1.4 -0.8
v 0.7 1.4 -0.9
v 0.7 1.4 -1
v 0.7 1.4 -1.1
v 0.7 1.4 -1.2
v 0.7 1.4 -1.3
v 0.7 1.5 -0.9
v 0.7 1.5 -1
v 0.7 1.5 -1.3
v 0.7 1.5 -1.4
v 0.7 1.7 -0.8
v 0.7 1.7 -1.2
v 0.7 1.7 -1.4
v 0.7 1.8 -0.8
v 0.7 1.8 -0.9
v 0.7 1.8 -1.2
v 0.7 1.9 -0.9
v 0.7 1.9 -1
v 0.7 2.1 -1
v 0.7 2.1 -1.4
v 0.7 2.2 -0.8
v 0.7 2.2 -1.3
v 0.7 2.3 -0.8
v 0.7 2.3 -1.3
v 0.8 1.4 -0.7
v 0.8 1.4 -0.8
v 0.8 1.7 -0.8
v 0.8 1.8 -0.8
v 0.8 1.8 -0.9
v 0.8 1.9 -0.7
v 0.8 1.9 -0.9
v 0.8 1.9 -1
v 0.8 2.1 -0.9
v 0.8 2.1 -1
v 0.8 2.3 -0.9
v 0.8 2.3 -1.2
v 0.8 2.4 -0.9
v 0.8 2.4 -1.2
v 0.8 2.4 -1.4
v 0.8 2.4 -1.5
v 0.8 2.5 -0.9
v 0.8 2.5 -1.2
v 0.8 2.5 -1.4
v 0.8 2.6 -0.9
v 0.8 2.6 -1.4
v 0.8 2.7 -0.9
v 0.8 2.7 -1.5
v 1.1 1.3 -0.8
v 1.1 1.3 -0.9
v 1.1 1.4 -0.8
v 1.1 1.4 -0.9
v 1.2 1.3 -0.9
v 1.2 1.3 -1.3
v 1.2 1.4 -0.8
v 1.2 1.4 -0.9
v 1.2 1.7 -0.8
v 1.2 1.7 -1.2
v 1.2 1.7 -1.3
v 1.2 1.8 -0.8
v 1.2 1.8 -1.2
v 0.4 1 -1
v 0.4 1 -1.1
v 0.4 1.3 -1
v 0.4 1.3 -1.1
v 0.4 1.4 -1
v 0.4 1.4 -1.1
v 0.4 2.3 -1.1
v 0.4 2.3 -1.3
v 0.4 2.4 -1
v 0.4 2.4 -1.3
v 0.8 1.1 -0.7
v 0.8 1.1 -0.8
v 0.8 1.2 -0.7
v 0.8 1.2 -0.8
v 0.8 1.3 -0.8
v 0.8 1.3 -1.3
v 0.8 1.7 -0.8
v 0.8 1.7 -1.2
v 0.8 1.7 -1.3
v 0.8 1.8 -0.8
v 0.8 1.8 -1.2
v 1 1.2 -0.7
v 1 1.2 -0.8
v 1 1.3 -0.7
v 1 1.3 -0.8
v 1.1 1.3 -0.7
v 1.1 1.3 -0.8
v 1.1 1.4 -0.7
v 1.1 1.4 -0.8
v 1.2 1.4 -0.7
v 1.2 1.4 -0.8
v 1.2 1.7 -0.8
v 1.2 1.8 -0.8
v 1.2 1.8 -0.9
v 1.2 1.9 -0.7
v 1.2 1.9 -0.9
v 1.2 1.9 -1
v 1.2 2.1 -0.9
v 1.2 2.1 -1
v 1.2 2.3 -0.9
v 1.2 2.3 -1.2
v 1.2 2.4 -0.9
v 1.2 2.4 -1.2
v 1.2 2.4 -1.4
v 1.2 2.4 -1.5
v 1.2 2.5 -0.9
v 1.2 2.5 -1.2
v 1.2 2.5 -1.4
v 1.2 2.6 -0.9
v 1.2 2.6 -1.4
v 1.2 2.7 -0.9
v 1.2 2.7 -1.5
v 1.3 1 -0.8
v 1.3 1 -1.5
v 1.3 1 -1.6
v 1.3 1.1 -1.4
v 1.3 1.1 -1.5
v 1.3 1.1 -1.6
v 1.3 1.2 -1.4
v 1.3 1.2 -1.5
v 1.3 1.7 -0.8
v 1.3 1.7 -1.2
v 1.3 1.7 -1.4
v 1.3 1.8 -0.8
v 1.3 1.8 -0.9
v 1.3 1.8 -1.2
v 1.3 1.9 -0.9
v 1.3 1.9 -1
v 1.3 2.1 -1
v 1.3 2.1 -1.4
v 1.3 2.2 -0.8
v 1.3 2.2 -1.3
v 1.3 2.3 -0.8
v 1.3 2.3 -1.3
v 1.5 2.1 -0.6
v 1.5 2.1 -0.7
v 1.5 2.1 -1.4
v 1.5 2.1 -1.5
v 1.5 2.2 -0.6
v 1.5 2.2 -0.7
v 1.5 2.2 -1.4
v 1.5 2.2 -1.5
v 0.5 2.1 -0.6
v 0.5 2.2 -0.6
v 0.6 2.1 -0.6
v 0.6 2.2 -0.6
v 1.4 2.1 -0.6
v 1.4 2.2 -0.6
v 1.5 2.1 -0.6
v 1.5 2.2 -0.6
v 0.7 1.1 -0.7
v 0.7 1.4 -0.7
v 0.8 1.1 -0.7
v 0.8 1.2 -0.7
v 0.8 1.4 -0.7
v 0.8 1.9 -0.7
v 1 1.2 -0.7
v 1 1.3 -0.7
v 1.1 1.3 -0.7
v 1.1 1.4 -0.7
v 1.2 1.4 -0.7
v 1.2 1.9 -0.7
v 0.6 1.3 -0.8
v 0.6 1.4 -0.8
v 0.7 1 -0.8
v 0.7 1.1 -0.8
v 0.7 1.3 -0.8
v 0.7 1.4 -0.8
v 0.7 1.7 -0.8
v 0.7 1.8 -0.8
v 0.7 2.2 -0.8
v 0.7 2.3 -0.8
v 0.8 1.1 -0.8
v 0.8 1.2 -0.8
v 0.8 1.4 -0.8
v 0.8 1.7 -0.8
v 0.8 1.8 -0.8
v 1 1.2 -0.8
v 1 1.3 -0.8
v 1.1 1.3 -0.8
v 1.1 1.4 -0.8
v 1.2 1.4 -0.8
v 1.2 1.7 -0.8
v 1.2 1.8 -0.8
v 1.3 1 -0.8
v 1.3 1.7 -0.8
v 1.3 1.8 -0.8
v 1.3 2.2 -0.8
v 1.3 2.3 -0.8
v 0.6 1.4 -0.9
v 0.6 1.5 -0.9
v 0.7 1.4 -0.9
v 0.7 1.5 -0.9
v 0.7 1.8 -0.9
v 0.7 1.9 -0.9
v 0.8 1.8 -0.9
v 0.8 1.9 -0.9
v 0.8 2.1 -0.9
v 0.8 2.3 -0.9
v 0.8 2.4 -0.9
v 0.8 2.5 -0.9
v 0.8 2.6 -0.9
v 0.8 2.7 -0.9
v 1.2 1.8 -0.9
v 1.2 1.9 -0.9
v 1.2 2.1 -0.9
v 1.2 2.3 -0.9
v 1.2 2.4 -0.9
v 1.2 2.5 -0.9
v 1.2 2.6 -0.9
v 1.2 2.7 -0.9
v 1.3 1.8 -0.9
v 1.3 1.9 -0.9
v 0.3 1 -1
v 0.3 1.3 -1
v 0.3 1.4 -1
v 0.3 2.4 -1
v 0.4 1 -1
v 0.4 1.3 -1
v 0.4 1.4 -1
v 0.4 2.4 -1
v 0.6 1.3 -1
v 0.6 1.4 -1
v 0.7 1.3 -1
v 0.7 1.4 -1
v 0.7 1.9 -1
v 0.7 2.1 -1
v 0.8 1.9 -1
v 0.8 2.1 -1
v 1.2 1.9 -1
v 1.2 2.1 -1
v 1.3 1.9 -1
v 1.3 2.1 -1
v 0.6 1.3 -1.2
v 0.6 1.4 -1.2
v 0.7 1.3 -1.2
v 0.7 1.4 -1.2
v 0.8 1.7 -1.2
v 0.8 1.8 -1.2
v 1.2 1.7 -1.2
v 1.2 1.8 -1.2
v 0.6 1.4 -1.3
v 0.6 1.5 -1.3
v 0.7 1.4 -1.3
v 0.7 1.5 -1.3
v 0.8 1.3 -1.3
v 0.8 1.7 -1.3
v 1.2 1.3 -1.3
v 1.2 1.7 -1.3
v 0.8 2.4 -1.4
v 0.8 2.5 -1.4
v 0.9 2.4 -1.4
v 0.9 2.5 -1.4
v 1.1 2.4 -1.4
v 1.1 2.5 -1.4
v 1.2 2.4 -1.4
v 1.2 2.5 -1.4
v 0.8 1.3 -0.8
v 0.8 1.7 -0.8
v 0.8 1.8 -0.8
v 1.1 1.3 -0.8
v 1.1 1.4 -0.8
v 1.2 1.4 -0.8
v 1.2 1.7 -0.8
v 1.2 1.8 -0.8
v 0.6 1.3 -0.9
v 0.6 1.4 -0.9
v 0.7 1.3 -0.9
v 0.7 1.4 -0.9
v 1.1 1.3 -0.9
v 1.1 1.4 -0.9
v 1.2 1.3 -0.9
v 1.2 1.4 -0.9
v 0.6 1.4 -1
v 0.6 1.5 -1
v 0.7 1.4 -1
v 0.7 1.5 -1
v 0.3 1 -1.1
v 0.3 1.3 -1.1
v 0.3 1.4 -1.1
v 0.3 2.3 -1.1
v 0.4 1 -1.1
v 0.4 1.3 -1.1
v 0.4 1.4 -1.1
v 0.4 2.3 -1.1
v 0.6 1.3 -1.1
v 0.6 1.4 -1.1
v 0.7 1.3 -1.1
v 0.7 1.4 -1.1
v 0.8 2.3 -1.2
v 0.8 2.4 -1.2
v 0.8 2.5 -1.2
v 0.9 2.4 -1.2
v 0.9 2.5 -1.2
v 1.1 2.4 -1.2
v 1.1 2.5 -1.2
v 1.2 2.3 -1.2
v 1.2 2.4 -1.2
v 1.2 2.5 -1.2
v 0.3 2.3 -1.3
v 0.3 2.4 -1.3
v 0.4 2.3 -1.3
v 0.4 2.4 -1.3
v 0.7 2.2 -1.3
v 0.7 2.3 -1.3
v 1.3 2.2 -1.3
v 1.3 2.3 -1.3
v 0.6 1.3 -1.4
v 0.6 1.4 -1.4
v 0.6 1.5 -1.4
v 0.7 1.2 -1.4
v 0.7 1.3 -1.4
v 0.7 1.4 -1.4
v 0.7 1.5 -1.4
v 0.7 1.7 -1.4
v 0.7 2.1 -1.4
v 1.3 1.2 -1.4
v 1.3 1.7 -1.4
v 1.3 2.1 -1.4
v 0.5 2.1 -1.5
v 0.5 2.2 -1.5
v 0.6 2.1 -1.5
v 0.6 2.2 -1.5
v 0.7 1.1 -1.5
v 0.7 1.2 -1.5
v 0.8 2.4 -1.5
v 0.8 2.7 -1.5
v 0.9 2.4 -1.5
v 0.9 2.7 -1.5
v 1.1 2.4 -1.5
v 1.1 2.7 -1.5
v 1.2 2.4 -1.5
v 1.2 2.7 -1.5
v 1.3 1.1 -1.5
v 1.3 1.2 -1.5
v 1.4 2.1 -1.5
v 1.4 2.2 -1.5
v 1.5 2.1 -1.5
v 1.5 2.2 -1.5
v 0.7 1 -1.6
v 0.7 1.1 -1.6
v 1.3 1 -1.6
v 1.3 1.1 -1.6
v 0.7 1 -0.8
v 1.3 1 -0.8
v 0.3 1 -1
v 0.4 1 -1
v 0.3 1 -1.1
v 0.4 1 -1.1
v 0.7 1 -1.5
v 1.3 1 -1.5
v 0.7 1 -1.6
v 1.3 1 -1.6
v 0.7 1.1 -0.7
v 0.8 1.1 -0.7
v 0.7 1.1 -0.8
v 0.8 1.1 -0.8
v 0.8 1.2 -0.7
v 1 1.2 -0.7
v 0.8 1.2 -0.8
v 1 1.2 -0.8
v 1 1.3 -0.7
v 1.1 1.3 -0.7
v 0.6 1.3 -0.8
v 0.7 1.3 -0.8
v 1 1.3 -0.8
v 1.1 1.3 -0.8
v 0.6 1.3 -0.9
v 0.7 1.3 -0.9
v 0.4 1.3 -1
v 0.6 1.3 -1
v 0.7 1.3 -1
v 0.4 1.3 -1.1
v 0.6 1.3 -1.1
v 0.7 1.3 -1.1
v 0.6 1.3 -1.2
v 0.7 1.3 -1.2
v 0.6 1.3 -1.4
v 0.7 1.3 -1.4
v 1.1 1.4 -0.7
v 1.2 1.4 -0.7
v 1.1 1.4 -0.8
v 1.2 1.4 -0.8
v 0.6 1.4 -0.9
v 0.7 1.4 -0.9
v 0.6 1.4 -1
v 0.7 1.4 -1
v 0.8 1.7 -1.2
v 1.2 1.7 -1.2
v 0.8 1.7 -1.3
v 1.2 1.7 -1.3
v 0.8 1.8 -0.8
v 1.2 1.8 -0.8
v 0.8 1.8 -1.2
v 1.2 1.8 -1.2
v 0.5 2.1 -0.6
v 0.6 2.1 -0.6
v 1.4 2.1 -0.6
v 1.5 2.1 -0.6
v 0.5 2.1 -0.7
v 0.6 2.1 -0.7
v 1.4 2.1 -0.7
v 1.5 2.1 -0.7
v 0.8 2.1 -0.9
v 1.2 2.1 -0.9
v 0.7 2.1 -1
v 0.8 2.1 -1
v 1.2 2.1 -1
v 1.3 2.1 -1
v 0.5 2.1 -1.4
v 0.6 2.1 -1.4
v 0.7 2.1 -1.4
v 1.3 2.1 -1.4
v 1.4 2.1 -1.4
v 1.5 2.1 -1.4
v 0.5 2.1 -1.5
v 0.6 2.1 -1.5
v 1.4 2.1 -1.5
v 1.5 2.1 -1.5
v 0.3 2.3 -1.1
v 0.4 2.3 -1.1
v 0.3 2.3 -1.3
v 0.4 2.3 -1.3
v 0.8 2.4 -1.4
v 0.9 2.4 -1.4
v 1.1 2.4 -1.4
v 1.2 2.4 -1.4
v 0.8 2.4 -1.5
v 0.9 2.4 -1.5
v 1.1 2.4 -1.5
v 1.2 2.4 -1.5
v 0.8 2.5 -1.2
v 0.9 2.5 -1.2
v 1.1 2.5 -1.2
v 1.2 2.5 -1.2
v 0.8 2.5 -1.4
v 0.9 2.5 -1.4
v 1.1 2.5 -1.4
v 1.2 2.5 -1.4
v 0.7 1.1 -1.5
v 1.3 1.1 -1.5
v 0.7 1.1 -1.6
v 1.3 1.1 -1.6
v 0.7 1.2 -1.4
v 1.3 1.2 -1.4
v 0.7 1.2 -1.5
v 1.3 1.2 -1.5
v 0.8 1.3 -0.8
v 1.1 1.3 -0.8
v 1.1 1.3 -0.9
v 1.2 1.3 -0.9
v 0.8 1.3 -1.3
v 1.2 1.3 -1.3
v 0.7 1.4 -0.7
v 0.8 1.4 -0.7
v 0.6 1.4 -0.8
v 0.7 1.4 -0.8
v 0.8 1.4 -0.8
v 1.1 1.4 -0.8
v 1.2 1.4 -0.8
v 0.6 1.4 -0.9
v 0.7 1.4 -0.9
v 1.1 1.4 -0.9
v 1.2 1.4 -0.9
v 0.4 1.4 -1
v 0.6 1.4 -1
v 0.7 1.4 -1
v 0.4 1.4 -1.1
v 0.6 1.4 -1.1
v 0.7 1.4 -1.1
v 0.6 1.4 -1.2
v 0.7 1.4 -1.2
v 0.6 1.4 -1.3
v 0.7 1.4 -1.3
v 0.6 1.5 -0.9
v 0.7 1.5 -0.9
v 0.6 1.5 -1
v 0.7 1.5 -1
v 0.6 1.5 -1.3
v 0.7 1.5 -1.3
v 0.6 1.5 -1.4
v 0.7 1.5 -1.4
v 0.7 1.8 -0.8
v 0.8 1.8 -0.8
v 1.2 1.8 -0.8
v 1.3 1.8 -0.8
v 0.7 1.8 -0.9
v 0.8 1.8 -0.9
v 1.2 1.8 -0.9
v 1.3 1.8 -0.9
v 0.8 1.9 -0.7
v 1.2 1.9 -0.7
v 0.7 1.9 -0.9
v 0.8 1.9 -0.9
v 1.2 1.9 -0.9
v 1.3 1.9 -0.9
v 0.7 1.9 -1
v 0.8 1.9 -1
v 1.2 1.9 -1
v 1.3 1.9 -1
v 0.5 2.2 -0.6
v 0.6 2.2 -0.6
v 1.4 2.2 -0.6
v 1.5 2.2 -0.6
v 0.5 2.2 -0.7
v 0.6 2.2 -0.7
v 1.4 2.2 -0.7
v 1.5 2.2 -0.7
v 0.7 2.2 -0.8
v 1.3 2.2 -0.8
v 0.7 2.2 -1.3
v 1.3 2.2 -1.3
v 0.5 2.2 -1.4
v 0.6 2.2 -1.4
v 1.4 2.2 -1.4
v 1.5 2.2 -1.4
v 0.5 2.2 -1.5
v 0.6 2.2 -1.5
v 1.4 2.2 -1.5
v 1.5 2.2 -1.5
v 0.7 2.3 -0.8
v 1.3 2.3 -0.8
v 0.8 2.3 -0.9
v 1.2 2.3 -0.9
v 0.8 2.3 -1.2
v 1.2 2.3 -1.2
v 0.7 2.3 -1.3
v 1.3 2.3 -1.3
v 0.3 2.4 -1
v 0.4 2.4 -1
v 0.3 2.4 -1.3
v 0.4 2.4 -1.3
v 0.8 2.7 -0.9
v 1.2 2.7 -0.9
v 0.9 2.7 -1
v 1.1 2.7 -1
v 0.8 2.7 -1.5
v 0.9 2.7 -1.5
v 1.1 2.7 -1.5
v 1.2 2.7 -1.5

# faces
f 3/3/1 2/3/1 1/3/1
f 4/3/1 2/3/1 3/3/1
f 5/2/1 4/2/1 3/2/1
f 6/2/1 4/2/1 5/2/1
f 7/3/1 6/3/1 5/3/1
f 9/3/1 7/3/1 5/3/1
f 9/3/1 8/3/1 7/3/1
f 10/3/1 8/3/1 9/3/1
f 15/7/1 12/7/1 11/7/1
f 16/4/1 13/4/1 12/4/1
f 16/7/1 12/7/1 15/7/1
f 17/7/1 14/7/1 13/7/1
f 17/4/1 13/4/1 16/4/1
f 18/7/1 14/7/1 17/7/1
f 23/11/1 20/11/1 19/11/1
f 24/11/1 20/11/1 23/11/1
f 26/4/1 22/4/1 21/4/1
f 27/4/1 22/4/1 26/4/1
f 28/4/1 22/4/1 27/4/1
f 29/12/1 25/12/1 24/12/1
f 30/12/1 25/12/1 29/12/1
f 31/13/1 28/13/1 27/13/1
f 32/13/1 28/13/1 31/13/1
f 37/4/1 34/4/1 33/4/1
f 38/4/1 34/4/1 37/4/1
f 39/13/1 35/13/1 34/13/1
f 39/4/1 34/4/1 38/4/1
f 40/13/1 35/13/1 39/13/1
f 41/4/1 38/4/1 37/4/1
f 41/12/1 39/12/1 38/12/1
f 42/12/1 39/12/1 41/12/1
f 43/14/1 37/14/1 36/14/1
f 43/4/1 41/4/1 37/4/1
f 44/4/1 41/4/1 43/4/1
f 45/4/1 41/4/1 44/4/1
f 46/4/1 41/4/1 45/4/1
f 47/4/1 41/4/1 46/4/1
f 48/4/1 41/4/1 47/4/1
f 49/14/1 43/14/1 36/14/1
f 50/14/1 43/14/1 49/14/1
f 51/4/1 45/4/1 44/4/1
f 52/4/1 45/4/1 51/4/1
f 53/4/1 47/4/1 46/4/1
f 54/4/1 47/4/1 53/4/1
f 56/4/1 51/4/1 50/4/1
f 57/4/1 55/4/1 54/4/1
f 57/4/1 54/4/1 53/4/1
f 57/4/1 53/4/1 52/4/1
f 58/4/1 55/4/1 57/4/1
f 60/4/1 56/4/1 50/4/1
f 60/4/1 59/4/1 58/4/1
f 60/4/1 58/4/1 57/4/1
f 60/4/1 57/4/1 56/4/1
f 61/4/1 59/4/1 60/4/1
f 62/4/1 59/4/1 61/4/1
f 63/5/1 61/5/1 60/5/1
f 64/5/1 61/5/1 63/5/1
f 65/14/1 62/14/1 61/14/1
f 65/5/1 61/5/1 64/5/1
f 66/14/1 65/14/1 64/14/1
f 67/14/1 65/14/1 66/14/1
f 68/14/1 65/14/1 67/14/1
f 69/14/1 62/14/1 65/14/1
f 69/14/1 65/14/1 68/14/1
f 72/9/1 71/9/1 70/9/1
f 73/9/1 71/9/1 72/9/1
f 76/14/1 75/14/1 74/14/1
f 77/14/1 76/14/1 74/14/1
f 79/14/1 77/14/1 74/14/1
f 79/14/1 78/14/1 77/14/1
f 80/14/1 78/14/1 79/14/1
f 82/2/1 81/2/1 80/2/1
f 83/2/1 81/2/1 82/2/1
f 86/4/1 85/4/1 84/4/1
f 87/4/1 85/4/1 86/4/1
f 90/6/1 87/6/1 86/6/1
f 91/6/1 87/6/1 90/6/1
f 92/6/1 89/6/1 88/6/1
f 93/4/1 91/4/1 90/4/1
f 93/4/1 92/4/1 91/4/1
f 94/6/1 89/6/1 92/6/1
f 94/4/1 92/4/1 93/4/1
f 95/6/1 94/6/1 93/6/1
f 96/6/1 89/6/1 94/6/1
f 96/6/1 94/6/1 95/6/1
f 99/4/1 98/4/1 97/4/1
f 100/4/1 98/4/1 99/4/1
f 104/4/1 102/4/1 101/4/1
f 105/4/1 104/4/1 103/4/1
f 106/4/1 102/4/1 104/4/1
f 106/4/1 104/4/1 105/4/1
f 107/4/1 102/4/1 106/4/1
f 108/5/1 106/5/1 105/5/1
f 109/5/1 106/5/1 108/5/1
f 110/3/2 111/3/2 112/3/2
f 112/3/2 111/3/2 113/3/2
f 114/3/2 115/3/2 116/3/2
f 114/3/2 116/3/2 118/3/2
f 116/3/2 117/3/2 118/3/2
f 118/3/2 117/3/2 119/3/2
f 120/14/2 121/14/2 122/14/2
f 122/14/2 121/14/2 123/14/2
f 124/4/2 125/4/2 126/4/2
f 126/4/2 125/4/2 127/4/2
f 127/4/2 125/4/2 128/4/2
f 126/5/2 127/5/2 129/5/2
f 129/5/2 127/5/2 130/5/2
f 131/14/2 132/14/2 133/14/2
f 133/14/2 132/14/2 134/14/2
f 135/14/2 136/14/2 137/14/2
f 137/14/2 136/14/2 138/14/2
f 139/14/2 140/14/2 141/14/2
f 139/14/2 141/14/2 142/14/2
f 139/14/2 142/14/2 144/14/2
f 142/14/2 143/14/2 144/14/2
f 144/14/2 143/14/2 145/14/2
f 145/2/2 146/2/2 147/2/2
f 147/2/2 146/2/2 148/2/2
f 149/4/2 150/4/2 151/4/2
f 151/4/2 150/4/2 152/4/2
f 151/6/2 152/6/2 155/6/2
f 155/6/2 152/6/2 156/6/2
f 153/6/2 154/6/2 157/6/2
f 155/4/2 156/4/2 158/4/2
f 156/4/2 157/4/2 158/4/2
f 157/6/2 154/6/2 159/6/2
f 158/4/2 157/4/2 159/4/2
f 158/6/2 159/6/2 160/6/2
f 159/6/2 154/6/2 161/6/2
f 160/6/2 159/6/2 161/6/2
f 162/4/2 163/4/2 165/4/2
f 163/13/2 164/13/2 166/13/2
f 165/4/2 163/4/2 166/4/2
f 166/13/2 164/13/2 167/13/2
f 162/4/2 165/4/2 168/4/2
f 165/12/2 166/12/2 168/12/2
f 168/12/2 166/12/2 169/12/2
f 162/4/2 168/4/2 170/4/2
f 170/4/2 168/4/2 171/4/2
f 171/4/2 168/4/2 172/4/2
f 170/5/2 171/5/2 173/5/2
f 173/5/2 171/5/2 174/5/2
f 171/14/2 172/14/2 175/14/2
f 174/5/2 171/5/2 175/5/2
f 174/14/2 175/14/2 176/14/2
f 176/14/2 175/14/2 177/14/2
f 177/14/2 175/14/2 178/14/2
f 175/14/2 172/14/2 179/14/2
f 178/14/2 175/14/2 179/14/2
f 180/9/2 181/9/2 182/9/2
f 182/9/2 181/9/2 183/9/2
f 184/7/2 185/7/2 188/7/2
f 185/4/2 186/4/2 189/4/2
f 188/7/2 185/7/2 189/7/2
f 186/7/2 187/7/2 190/7/2
f 189/4/2 186/4/2 190/4/2
f 190/7/2 187/7/2 191/7/2
f 194/7/3 193/7/3 192/7/3
f 195/7/3 193/7/3 194/7/3
f 196/4/3 195/4/3 194/4/3
f 197/4/3 195/4/3 196/4/3
f 198/7/3 197/7/3 196/7/3
f 199/7/3 197/7/3 198/7/3
f 202/14/3 201/14/3 200/14/3
f 203/14/3 201/14/3 202/14/3
f 204/14/3 201/14/3 203/14/3
f 206/14/3 205/14/3 204/14/3
f 206/14/3 204/14/3 203/14/3
f 207/14/3 205/14/3 206/14/3
f 208/14/3 205/14/3 207/14/3
f 209/14/3 205/14/3 208/14/3
f 210/14/3 205/14/3 209/14/3
f 211/14/3 205/14/3 210/14/3
f 216/11/3 213/11/3 212/11/3
f 217/11/3 213/11/3 216/11/3
f 222/4/3 215/4/3 214/4/3
f 224/4/3 218/4/3 217/4/3
f 225/5/3 219/5/3 218/5/3
f 225/4/3 218/4/3 224/4/3
f 226/5/3 219/5/3 225/5/3
f 227/4/3 223/4/3 222/4/3
f 229/4/3 228/4/3 227/4/3
f 231/4/3 230/4/3 229/4/3
f 234/4/3 222/4/3 214/4/3
f 234/4/3 227/4/3 222/4/3
f 234/4/3 232/4/3 231/4/3
f 234/4/3 231/4/3 229/4/3
f 234/4/3 229/4/3 227/4/3
f 235/5/3 233/5/3 232/5/3
f 235/4/3 232/4/3 234/4/3
f 236/5/3 233/5/3 235/5/3
f 237/9/3 221/9/3 220/9/3
f 238/9/3 221/9/3 237/9/3
f 241/12/3 240/12/3 239/12/3
f 242/12/3 240/12/3 241/12/3
f 245/14/3 244/14/3 243/14/3
f 246/14/3 244/14/3 245/14/3
f 254/2/3 247/2/3 246/2/3
f 255/2/3 247/2/3 254/2/3
f 256/4/3 249/4/3 248/4/3
f 257/6/3 250/6/3 249/6/3
f 257/4/3 249/4/3 256/4/3
f 258/4/3 251/4/3 250/4/3
f 258/6/3 250/6/3 257/6/3
f 259/6/3 252/6/3 251/6/3
f 259/4/3 251/4/3 258/4/3
f 260/6/3 252/6/3 259/6/3
f 261/14/3 254/14/3 253/14/3
f 262/14/3 254/14/3 261/14/3
f 267/3/3 264/3/3 263/3/3
f 268/2/3 265/2/3 264/2/3
f 268/3/3 264/3/3 267/3/3
f 269/3/3 266/3/3 265/3/3
f 269/2/3 265/2/3 268/2/3
f 270/3/3 266/3/3 269/3/3
f 271/2/3 269/2/3 268/2/3
f 272/2/3 269/2/3 271/2/3
f 273/4/3 272/4/3 271/4/3
f 274/4/3 272/4/3 273/4/3
f 277/14/3 276/14/3 275/14/3
f 278/14/3 276/14/3 277/14/3
f 281/14/3 280/14/3 279/14/3
f 282/14/3 280/14/3 281/14/3
f 285/4/3 284/4/3 283/4/3
f 286/4/3 284/4/3 285/4/3
f 289/14/3 288/14/3 287/14/3
f 290/14/3 288/14/3 289/14/3
f 293/13/3 292/13/3 291/13/3
f 294/13/3 292/13/3 293/13/3
f 297/4/3 296/4/3 295/4/3
f 298/4/3 296/4/3 297/4/3
f 301/6/3 300/6/3 299/6/3
f 302/6/3 300/6/3 301/6/3
f 303/8/3 302/8/3 301/8/3
f 304/8/3 302/8/3 303/8/3
f 305/6/3 304/6/3 303/6/3
f 306/6/3 304/6/3 305/6/3
f 307/14/4 308/14/4 310/14/4
f 308/14/4 309/14/4 310/14/4
f 310/14/4 309/14/4 311/14/4
f 311/14/4 309/14/4 312/14/4
f 312/14/4 309/14/4 313/14/4
f 313/14/4 309/14/4 314/14/4
f 315/11/4 316/11/4 317/11/4
f 317/11/4 316/11/4 318/11/4
f 319/4/4 320/4/4 321/4/4
f 321/4/4 320/4/4 322/4/4
f 323/12/4 324/12/4 325/12/4
f 325/12/4 324/12/4 326/12/4
f 327/3/4 328/3/4 331/3/4
f 328/2/4 329/2/4 332/2/4
f 331/3/4 328/3/4 332/3/4
f 329/3/4 330/3/4 333/3/4
f 332/2/4 329/2/4 333/2/4
f 333/3/4 330/3/4 334/3/4
f 332/2/4 333/2/4 335/2/4
f 335/2/4 333/2/4 336/2/4
f 335/4/4 336/4/4 337/4/4
f 337/4/4 336/4/4 338/4/4
f 339/4/4 340/4/4 342/4/4
f 340/6/4 341/6/4 342/6/4
f 342/6/4 341/6/4 343/6/4
f 339/4/4 342/4/4 344/4/4
f 342/8/4 343/8/4 344/8/4
f 344/8/4 343/8/4 345/8/4
f 339/4/4 344/4/4 346/4/4
f 344/6/4 345/6/4 347/6/4
f 346/4/4 344/4/4 347/4/4
f 347/6/4 345/6/4 348/6/4
f 349/3/4 350/3/4 351/3/4
f 351/3/4 350/3/4 352/3/4
f 353/9/4 354/9/4 355/9/4
f 355/9/4 354/9/4 356/9/4
f 357/4/4 358/4/4 361/4/4
f 358/13/4 359/13/4 362/13/4
f 361/4/4 358/4/4 362/4/4
f 362/13/4 359/13/4 363/13/4
f 360/4/4 361/4/4 366/4/4
f 361/4/4 362/4/4 366/4/4
f 363/4/4 364/4/4 366/4/4
f 362/4/4 363/4/4 366/4/4
f 364/14/4 365/14/4 367/14/4
f 366/4/4 364/4/4 367/4/4
f 367/14/4 365/14/4 368/14/4
f 369/7/4 370/7/4 371/7/4
f 371/7/4 370/7/4 372/7/4
f 375/6/4 376/6/4 377/6/4
f 377/6/4 376/6/4 378/6/4
f 377/8/4 378/8/4 379/8/4
f 379/8/4 378/8/4 380/8/4
f 379/6/4 380/6/4 381/6/4
f 381/6/4 380/6/4 382/6/4
f 373/12/4 374/12/4 383/12/4
f 383/12/4 374/12/4 384/12/4
f 371/4/4 372/4/4 385/4/4
f 385/4/4 372/4/4 386/4/4
f 385/7/4 386/7/4 387/7/4
f 387/7/4 386/7/4 388/7/4
f 389/13/4 390/13/4 391/13/4
f 391/13/4 390/13/4 392/13/4
f 397/3/5 396/3/5 395/3/5
f 398/3/5 396/3/5 397/3/5
f 399/4/5 394/4/5 393/4/5
f 400/4/5 394/4/5 399/4/5
f 401/13/5 400/13/5 399/13/5
f 402/13/5 400/13/5 401/13/5
f 405/14/5 404/14/5 403/14/5
f 406/14/5 404/14/5 405/14/5
f 409/14/5 408/14/5 407/14/5
f 410/14/5 408/14/5 409/14/5
f 415/14/5 412/14/5 411/14/5
f 416/14/5 412/14/5 415/14/5
f 417/11/5 414/11/5 413/11/5
f 418/11/5 414/11/5 417/11/5
f 422/2/5 420/2/5 419/2/5
f 423/4/5 421/4/5 420/4/5
f 423/2/5 420/2/5 422/2/5
f 424/4/5 421/4/5 423/4/5
f 427/4/5 426/4/5 425/4/5
f 428/4/5 426/4/5 427/4/5
f 431/14/5 430/14/5 429/14/5
f 432/14/5 430/14/5 431/14/5
f 435/12/5 434/12/5 433/12/5
f 436/12/5 434/12/5 435/12/5
f 439/14/5 438/14/5 437/14/5
f 440/14/5 438/14/5 439/14/5
f 443/14/5 442/14/5 441/14/5
f 444/14/5 442/14/5 443/14/5
f 449/7/5 446/7/5 445/7/5
f 450/4/5 447/4/5 446/4/5
f 450/7/5 446/7/5 449/7/5
f 451/7/5 448/7/5 447/7/5
f 451/4/5 447/4/5 450/4/5
f 452/7/5 448/7/5 451/7/5
f 453/4/5 450/4/5 449/4/5
f 453/4/5 451/4/5 450/4/5
f 453/4/5 452/4/5 451/4/5
f 454/4/5 452/4/5 453/4/5
f 455/4/5 453/4/5 449/4/5
f 456/4/5 453/4/5 455/4/5
f 457/4/5 452/4/5 454/4/5
f 458/4/5 452/4/5 457/4/5
f 459/4/5 455/4/5 449/4/5
f 460/4/5 455/4/5 459/4/5
f 461/4/5 455/4/5 460/4/5
f 462/4/5 452/4/5 458/4/5
f 463/4/5 452/4/5 462/4/5
f 464/4/5 452/4/5 463/4/5
f 465/7/5 460/7/5 459/7/5
f 466/4/5 461/4/5 460/4/5
f 466/7/5 460/7/5 465/7/5
f 466/4/5 462/4/5 461/4/5
f 466/4/5 463/4/5 462/4/5
f 467/7/5 464/7/5 463/7/5
f 467/4/5 463/4/5 466/4/5
f 468/7/5 464/7/5 467/7/5
f 471/3/5 470/3/5 469/3/5
f 472/3/5 470/3/5 471/3/5
f 477/6/5 474/6/5 473/6/5
f 478/8/5 475/8/5 474/8/5
f 478/6/5 474/6/5 477/6/5
f 479/6/5 476/6/5 475/6/5
f 479/8/5 475/8/5 478/8/5
f 480/6/5 476/6/5 479/6/5
f 485/4/5 482/4/5 481/4/5
f 486/8/5 483/8/5 482/8/5
f 486/4/5 482/4/5 485/4/5
f 487/4/5 484/4/5 483/4/5
f 487/8/5 483/8/5 486/8/5
f 488/4/5 484/4/5 487/4/5
f 489/13/6 490/13/6 491/13/6
f 491/13/6 490/13/6 492/13/6
f 493/12/6 494/12/6 495/12/6
f 495/12/6 494/12/6 496/12/6
f 497/4/6 498/4/6 499/4/6
f 497/4/6 499/4/6 501/4/6
f 499/4/6 500/4/6 501/4/6
f 501/4/6 500/4/6 502/4/6
f 503/14/6 504/14/6 506/14/6
f 506/14/6 504/14/6 507/14/6
f 505/11/6 506/11/6 510/11/6
f 510/11/6 506/11/6 511/11/6
f 508/4/6 509/4/6 512/4/6
f 512/4/6 509/4/6 513/4/6
f 514/2/6 515/2/6 517/2/6
f 515/4/6 516/4/6 518/4/6
f 517/2/6 515/2/6 518/2/6
f 518/4/6 516/4/6 519/4/6
f 520/4/6 521/4/6 522/4/6
f 522/4/6 521/4/6 523/4/6
f 524/12/6 525/12/6 526/12/6
f 526/12/6 525/12/6 527/12/6
f 528/13/6 529/13/6 530/13/6
f 530/13/6 529/13/6 531/13/6
f 532/5/6 533/5/6 536/5/6
f 536/5/6 533/5/6 537/5/6
f 534/5/6 535/5/6 538/5/6
f 538/5/6 535/5/6 539/5/6
f 540/14/6 541/14/6 543/14/6
f 543/14/6 541/14/6 544/14/6
f 542/14/6 543/14/6 546/14/6
f 546/14/6 543/14/6 547/14/6
f 544/14/6 545/14/6 548/14/6
f 548/14/6 545/14/6 549/14/6
f 550/7/6 551/7/6 554/7/6
f 551/4/6 552/4/6 555/4/6
f 554/7/6 551/7/6 555/7/6
f 552/7/6 553/7/6 556/7/6
f 555/4/6 552/4/6 556/4/6
f 556/7/6 553/7/6 557/7/6
f 554/4/6 555/4/6 558/4/6
f 555/4/6 556/4/6 558/4/6
f 556/4/6 557/4/6 558/4/6
f 558/4/6 557/4/6 559/4/6
f 554/4/6 558/4/6 560/4/6
f 559/4/6 557/4/6 561/4/6
f 554/4/6 560/4/6 562/4/6
f 560/4/6 561/4/6 562/4/6
f 562/4/6 561/4/6 563/4/6
f 561/4/6 557/4/6 564/4/6
f 563/4/6 561/4/6 564/4/6
f 564/4/6 557/4/6 565/4/6
f 562/7/6 563/7/6 566/7/6
f 563/4/6 564/4/6 567/4/6
f 566/7/6 563/7/6 567/7/6
f 564/7/6 565/7/6 568/7/6
f 567/4/6 564/4/6 568/4/6
f 568/7/6 565/7/6 569/7/6
f 570/9/6 571/9/6 572/9/6
f 572/9/6 571/9/6 573/9/6
f 570/9/6 572/9/6 574/9/6
f 573/9/6 571/9/6 575/9/6
f 570/9/6 574/9/6 576/9/6
f 574/9/6 575/9/6 576/9/6
f 575/9/6 571/9/6 577/9/6
f 576/9/6 575/9/6 577/9/6
f 578/3/6 579/3/6 580/3/6
f 580/3/6 579/3/6 581/3/6
f 582/6/6 583/6/6 584/6/6
f 584/6/6 583/6/6 585/6/6
f 582/6/6 584/6/6 586/6/6
f 584/8/6 585/8/6 587/8/6
f 586/6/6 584/6/6 587/6/6
f 585/6/6 583/6/6 588/6/6
f 587/8/6 585/8/6 588/8/6
f 588/6/6 583/6/6 589/6/6
