# MagicaVoxel @ Ephtracy

# group
o 

# material
mtllib MA_Wizard_Red.mtl
usemtl palette

# normals
vn -1 0 0
vn 1 0 0
vn 0 0 1
vn 0 0 -1
vn 0 -1 0
vn 0 1 0

# texcoords
vt 0.0683594 0.5
vt 0.208984 0.5
vt 0.373047 0.5
vt 0.400391 0.5
vt 0.841797 0.5
vt 0.861328 0.5
vt 0.869141 0.5
vt 0.958984 0.5
vt 0.978516 0.5

# verts
v 0.3 1 -1
v 0.3 1 -1.1
v 0.3 1.3 -1
v 0.3 1.3 -1.1
v 0.3 1.4 -1
v 0.3 1.4 -1.1
v 0.3 2.3 -1.1
v 0.3 2.3 -1.3
v 0.3 2.4 -1
v 0.3 2.4 -1.3
v 0.5 2.1 -0.6
v 0.5 2.1 -0.7
v 0.5 2.1 -1.4
v 0.5 2.1 -1.5
v 0.5 2.2 -0.6
v 0.5 2.2 -0.7
v 0.5 2.2 -1.4
v 0.5 2.2 -1.5
v 0.6 1.3 -0.8
v 0.6 1.3 -0.9
v 0.6 1.3 -1.2
v 0.6 1.3 -1.4
v 0.6 1.4 -0.8
v 0.6 1.4 -0.9
v 0.6 1.4 -1
v 0.6 1.4 -1.2
v 0.6 1.4 -1.3
v 0.6 1.4 -1.4
v 0.6 1.5 -0.9
v 0.6 1.5 -1
v 0.6 1.5 -1.3
v 0.6 1.5 -1.4
v 0.7 1 -0.8
v 0.7 1 -1.5
v 0.7 1 -1.6
v 0.7 1.1 -0.7
v 0.7 1.1 -0.8
v 0.7 1.1 -1.4
v 0.7 1.1 -1.5
v 0.7 1.1 -1.6
v 0.7 1.2 -1.4
v 0.7 1.2 -1.5
v 0.7 1.3 -0.8
v 0.7 1.3 -0.9
v 0.7 1.3 -1
v 0.7 1.3 -1.1
v 0.7 1.3 -1.2
v 0.7 1.3 -1.4
v 0.7 1.4 -0.7
v 0.7 1.4 -0.8
v 0.7 1.4 -0.9
v 0.7 1.4 -1
v 0.7 1.4 -1.1
v 0.7 1.4 -1.2
v 0.7 1.4 -1.3
v 0.7 1.5 -0.9
v 0.7 1.5 -1
v 0.7 1.5 -1.3
v 0.7 1.5 -1.4
v 0.7 1.7 -0.8
v 0.7 1.7 -1.2
v 0.7 1.7 -1.4
v 0.7 1.8 -0.8
v 0.7 1.8 -0.9
v 0.7 1.8 -1.2
v 0.7 1.9 -0.9
v 0.7 1.9 -1
v 0.7 2.1 -1
v 0.7 2.1 -1.4
v 0.7 2.2 -0.8
v 0.7 2.2 -1.3
v 0.7 2.3 -0.8
v 0.7 2.3 -1.3
v 0.8 1.4 -0.7
v 0.8 1.4 -0.8
v 0.8 1.7 -0.8
v 0.8 1.8 -0.8
v 0.8 1.8 -0.9
v 0.8 1.9 -0.7
v 0.8 1.9 -0.9
v 0.8 1.9 -1
v 0.8 2.1 -0.9
v 0.8 2.1 -1
v 0.8 2.3 -0.9
v 0.8 2.3 -1.2
v 0.8 2.4 -0.9
v 0.8 2.4 -1.2
v 0.8 2.4 -1.4
v 0.8 2.4 -1.5
v 0.8 2.5 -0.9
v 0.8 2.5 -1.2
v 0.8 2.5 -1.4
v 0.8 2.6 -0.9
v 0.8 2.6 -1.4
v 0.8 2.7 -0.9
v 0.8 2.7 -1.5
v 1.1 1.3 -0.8
v 1.1 1.3 -0.9
v 1.1 1.4 -0.8
v 1.1 1.4 -0.9
v 1.2 1.3 -0.9
v 1.2 1.3 -1.3
v 1.2 1.4 -0.8
v 1.2 1.4 -0.9
v 1.2 1.7 -0.8
v 1.2 1.7 -1.2
v 1.2 1.7 -1.3
v 1.2 1.8 -0.8
v 1.2 1.8 -1.2
v 0.4 1 -1
v 0.4 1 -1.1
v 0.4 1.3 -1
v 0.4 1.3 -1.1
v 0.4 1.4 -1
v 0.4 1.4 -1.1
v 0.4 2.3 -1.1
v 0.4 2.3 -1.3
v 0.4 2.4 -1
v 0.4 2.4 -1.3
v 0.8 1.1 -0.7
v 0.8 1.1 -0.8
v 0.8 1.2 -0.7
v 0.8 1.2 -0.8
v 0.8 1.3 -0.8
v 0.8 1.3 -1.3
v 0.8 1.7 -0.8
v 0.8 1.7 -1.2
v 0.8 1.7 -1.3
v 0.8 1.8 -0.8
v 0.8 1.8 -1.2
v 1 1.2 -0.7
v 1 1.2 -0.8
v 1 1.3 -0.7
v 1 1.3 -0.8
v 1.1 1.3 -0.7
v 1.1 1.3 -0.8
v 1.1 1.4 -0.7
v 1.1 1.4 -0.8
v 1.2 1.4 -0.7
v 1.2 1.4 -0.8
v 1.2 1.7 -0.8
v 1.2 1.8 -0.8
v 1.2 1.8 -0.9
v 1.2 1.9 -0.7
v 1.2 1.9 -0.9
v 1.2 1.9 -1
v 1.2 2.1 -0.9
v 1.2 2.1 -1
v 1.2 2.3 -0.9
v 1.2 2.3 -1.2
v 1.2 2.4 -0.9
v 1.2 2.4 -1.2
v 1.2 2.4 -1.4
v 1.2 2.4 -1.5
v 1.2 2.5 -0.9
v 1.2 2.5 -1.2
v 1.2 2.5 -1.4
v 1.2 2.6 -0.9
v 1.2 2.6 -1.4
v 1.2 2.7 -0.9
v 1.2 2.7 -1.5
v 1.3 1 -0.8
v 1.3 1 -1.5
v 1.3 1 -1.6
v 1.3 1.1 -1.4
v 1.3 1.1 -1.5
v 1.3 1.1 -1.6
v 1.3 1.2 -1.4
v 1.3 1.2 -1.5
v 1.3 1.7 -0.8
v 1.3 1.7 -1.2
v 1.3 1.7 -1.4
v 1.3 1.8 -0.8
v 1.3 1.8 -0.9
v 1.3 1.8 -1.2
v 1.3 1.9 -0.9
v 1.3 1.9 -1
v 1.3 2.1 -1
v 1.3 2.1 -1.4
v 1.3 2.2 -0.8
v 1.3 2.2 -1.3
v 1.3 2.3 -0.8
v 1.3 2.3 -1.3
v 1.5 2.1 -0.6
v 1.5 2.1 -0.7
v 1.5 2.1 -1.4
v 1.5 2.1 -1.5
v 1.5 2.2 -0.6
v 1.5 2.2 -0.7
v 1.5 2.2 -1.4
v 1.5 2.2 -1.5
v 0.5 2.1 -0.6
v 0.5 2.2 -0.6
v 0.6 2.1 -0.6
v 0.6 2.2 -0.6
v 1.4 2.1 -0.6
v 1.4 2.2 -0.6
v 1.5 2.1 -0.6
v 1.5 2.2 -0.6
v 0.7 1.1 -0.7
v 0.7 1.4 -0.7
v 0.8 1.1 -0.7
v 0.8 1.2 -0.7
v 0.8 1.4 -0.7
v 0.8 1.9 -0.7
v 1 1.2 -0.7
v 1 1.3 -0.7
v 1.1 1.3 -0.7
v 1.1 1.4 -0.7
v 1.2 1.4 -0.7
v 1.2 1.9 -0.7
v 0.6 1.3 -0.8
v 0.6 1.4 -0.8
v 0.7 1 -0.8
v 0.7 1.1 -0.8
v 0.7 1.3 -0.8
v 0.7 1.4 -0.8
v 0.7 1.7 -0.8
v 0.7 1.8 -0.8
v 0.7 2.2 -0.8
v 0.7 2.3 -0.8
v 0.8 1.1 -0.8
v 0.8 1.2 -0.8
v 0.8 1.4 -0.8
v 0.8 1.7 -0.8
v 0.8 1.8 -0.8
v 1 1.2 -0.8
v 1 1.3 -0.8
v 1.1 1.3 -0.8
v 1.1 1.4 -0.8
v 1.2 1.4 -0.8
v 1.2 1.7 -0.8
v 1.2 1.8 -0.8
v 1.3 1 -0.8
v 1.3 1.7 -0.8
v 1.3 1.8 -0.8
v 1.3 2.2 -0.8
v 1.3 2.3 -0.8
v 0.6 1.4 -0.9
v 0.6 1.5 -0.9
v 0.7 1.4 -0.9
v 0.7 1.5 -0.9
v 0.7 1.8 -0.9
v 0.7 1.9 -0.9
v 0.8 1.8 -0.9
v 0.8 1.9 -0.9
v 0.8 2.1 -0.9
v 0.8 2.3 -0.9
v 0.8 2.4 -0.9
v 0.8 2.5 -0.9
v 0.8 2.6 -0.9
v 0.8 2.7 -0.9
v 1.2 1.8 -0.9
v 1.2 1.9 -0.9
v 1.2 2.1 -0.9
v 1.2 2.3 -0.9
v 1.2 2.4 -0.9
v 1.2 2.5 -0.9
v 1.2 2.6 -0.9
v 1.2 2.7 -0.9
v 1.3 1.8 -0.9
v 1.3 1.9 -0.9
v 0.3 1 -1
v 0.3 1.3 -1
v 0.3 1.4 -1
v 0.3 2.4 -1
v 0.4 1 -1
v 0.4 1.3 -1
v 0.4 1.4 -1
v 0.4 2.4 -1
v 0.6 1.3 -1
v 0.6 1.4 -1
v 0.7 1.3 -1
v 0.7 1.4 -1
v 0.7 1.9 -1
v 0.7 2.1 -1
v 0.8 1.9 -1
v 0.8 2.1 -1
v 1.2 1.9 -1
v 1.2 2.1 -1
v 1.3 1.9 -1
v 1.3 2.1 -1
v 0.6 1.3 -1.2
v 0.6 1.4 -1.2
v 0.7 1.3 -1.2
v 0.7 1.4 -1.2
v 0.8 1.7 -1.2
v 0.8 1.8 -1.2
v 1.2 1.7 -1.2
v 1.2 1.8 -1.2
v 0.6 1.4 -1.3
v 0.6 1.5 -1.3
v 0.7 1.4 -1.3
v 0.7 1.5 -1.3
v 0.8 1.3 -1.3
v 0.8 1.7 -1.3
v 1.2 1.3 -1.3
v 1.2 1.7 -1.3
v 0.8 2.4 -1.4
v 0.8 2.5 -1.4
v 0.9 2.4 -1.4
v 0.9 2.5 -1.4
v 1.1 2.4 -1.4
v 1.1 2.5 -1.4
v 1.2 2.4 -1.4
v 1.2 2.5 -1.4
v 0.8 1.3 -0.8
v 0.8 1.7 -0.8
v 0.8 1.8 -0.8
v 1.1 1.3 -0.8
v 1.1 1.4 -0.8
v 1.2 1.4 -0.8
v 1.2 1.7 -0.8
v 1.2 1.8 -0.8
v 0.6 1.3 -0.9
v 0.6 1.4 -0.9
v 0.7 1.3 -0.9
v 0.7 1.4 -0.9
v 1.1 1.3 -0.9
v 1.1 1.4 -0.9
v 1.2 1.3 -0.9
v 1.2 1.4 -0.9
v 0.6 1.4 -1
v 0.6 1.5 -1
v 0.7 1.4 -1
v 0.7 1.5 -1
v 0.3 1 -1.1
v 0.3 1.3 -1.1
v 0.3 1.4 -1.1
v 0.3 2.3 -1.1
v 0.4 1 -1.1
v 0.4 1.3 -1.1
v 0.4 1.4 -1.1
v 0.4 2.3 -1.1
v 0.6 1.3 -1.1
v 0.6 1.4 -1.1
v 0.7 1.3 -1.1
v 0.7 1.4 -1.1
v 0.8 2.3 -1.2
v 0.8 2.4 -1.2
v 0.8 2.5 -1.2
v 0.9 2.5 -1.2
v 1.1 2.5 -1.2
v 1.2 2.3 -1.2
v 1.2 2.4 -1.2
v 1.2 2.5 -1.2
v 0.3 2.3 -1.3
v 0.3 2.4 -1.3
v 0.4 2.3 -1.3
v 0.4 2.4 -1.3
v 0.7 2.2 -1.3
v 0.7 2.3 -1.3
v 1.3 2.2 -1.3
v 1.3 2.3 -1.3
v 0.6 1.3 -1.4
v 0.6 1.4 -1.4
v 0.6 1.5 -1.4
v 0.7 1.2 -1.4
v 0.7 1.3 -1.4
v 0.7 1.4 -1.4
v 0.7 1.5 -1.4
v 0.7 1.7 -1.4
v 0.7 2.1 -1.4
v 1.3 1.2 -1.4
v 1.3 1.7 -1.4
v 1.3 2.1 -1.4
v 0.5 2.1 -1.5
v 0.5 2.2 -1.5
v 0.6 2.1 -1.5
v 0.6 2.2 -1.5
v 0.7 1.1 -1.5
v 0.7 1.2 -1.5
v 0.8 2.4 -1.5
v 0.8 2.7 -1.5
v 0.9 2.4 -1.5
v 0.9 2.7 -1.5
v 1.1 2.4 -1.5
v 1.1 2.7 -1.5
v 1.2 2.4 -1.5
v 1.2 2.7 -1.5
v 1.3 1.1 -1.5
v 1.3 1.2 -1.5
v 1.4 2.1 -1.5
v 1.4 2.2 -1.5
v 1.5 2.1 -1.5
v 1.5 2.2 -1.5
v 0.7 1 -1.6
v 0.7 1.1 -1.6
v 1.3 1 -1.6
v 1.3 1.1 -1.6
v 0.7 1 -0.8
v 1.3 1 -0.8
v 0.3 1 -1
v 0.4 1 -1
v 0.3 1 -1.1
v 0.4 1 -1.1
v 0.7 1 -1.5
v 1.3 1 -1.5
v 0.7 1 -1.6
v 1.3 1 -1.6
v 0.7 1.1 -0.7
v 0.8 1.1 -0.7
v 0.7 1.1 -0.8
v 0.8 1.1 -0.8
v 0.8 1.2 -0.7
v 1 1.2 -0.7
v 0.8 1.2 -0.8
v 1 1.2 -0.8
v 1 1.3 -0.7
v 1.1 1.3 -0.7
v 0.6 1.3 -0.8
v 0.7 1.3 -0.8
v 1 1.3 -0.8
v 1.1 1.3 -0.8
v 0.6 1.3 -0.9
v 0.7 1.3 -0.9
v 0.4 1.3 -1
v 0.6 1.3 -1
v 0.7 1.3 -1
v 0.4 1.3 -1.1
v 0.6 1.3 -1.1
v 0.7 1.3 -1.1
v 0.6 1.3 -1.2
v 0.7 1.3 -1.2
v 0.6 1.3 -1.4
v 0.7 1.3 -1.4
v 1.1 1.4 -0.7
v 1.2 1.4 -0.7
v 1.1 1.4 -0.8
v 1.2 1.4 -0.8
v 0.6 1.4 -0.9
v 0.7 1.4 -0.9
v 0.6 1.4 -1
v 0.7 1.4 -1
v 0.8 1.7 -1.2
v 1.2 1.7 -1.2
v 0.8 1.7 -1.3
v 1.2 1.7 -1.3
v 0.8 1.8 -0.8
v 1.2 1.8 -0.8
v 0.8 1.8 -1.2
v 1.2 1.8 -1.2
v 0.5 2.1 -0.6
v 0.6 2.1 -0.6
v 1.4 2.1 -0.6
v 1.5 2.1 -0.6
v 0.5 2.1 -0.7
v 0.6 2.1 -0.7
v 1.4 2.1 -0.7
v 1.5 2.1 -0.7
v 0.8 2.1 -0.9
v 1.2 2.1 -0.9
v 0.7 2.1 -1
v 0.8 2.1 -1
v 1.2 2.1 -1
v 1.3 2.1 -1
v 0.5 2.1 -1.4
v 0.6 2.1 -1.4
v 0.7 2.1 -1.4
v 1.3 2.1 -1.4
v 1.4 2.1 -1.4
v 1.5 2.1 -1.4
v 0.5 2.1 -1.5
v 0.6 2.1 -1.5
v 1.4 2.1 -1.5
v 1.5 2.1 -1.5
v 0.3 2.3 -1.1
v 0.4 2.3 -1.1
v 0.3 2.3 -1.3
v 0.4 2.3 -1.3
v 0.8 2.4 -1.4
v 0.9 2.4 -1.4
v 1.1 2.4 -1.4
v 1.2 2.4 -1.4
v 0.8 2.4 -1.5
v 0.9 2.4 -1.5
v 1.1 2.4 -1.5
v 1.2 2.4 -1.5
v 0.8 2.5 -1.2
v 0.9 2.5 -1.2
v 1.1 2.5 -1.2
v 1.2 2.5 -1.2
v 0.8 2.5 -1.4
v 0.9 2.5 -1.4
v 1.1 2.5 -1.4
v 1.2 2.5 -1.4
v 0.7 1.1 -1.5
v 1.3 1.1 -1.5
v 0.7 1.1 -1.6
v 1.3 1.1 -1.6
v 0.7 1.2 -1.4
v 1.3 1.2 -1.4
v 0.7 1.2 -1.5
v 1.3 1.2 -1.5
v 0.8 1.3 -0.8
v 1.1 1.3 -0.8
v 1.1 1.3 -0.9
v 1.2 1.3 -0.9
v 0.8 1.3 -1.3
v 1.2 1.3 -1.3
v 0.7 1.4 -0.7
v 0.8 1.4 -0.7
v 0.6 1.4 -0.8
v 0.7 1.4 -0.8
v 0.8 1.4 -0.8
v 1.1 1.4 -0.8
v 1.2 1.4 -0.8
v 0.6 1.4 -0.9
v 0.7 1.4 -0.9
v 1.1 1.4 -0.9
v 1.2 1.4 -0.9
v 0.4 1.4 -1
v 0.6 1.4 -1
v 0.7 1.4 -1
v 0.4 1.4 -1.1
v 0.6 1.4 -1.1
v 0.7 1.4 -1.1
v 0.6 1.4 -1.2
v 0.7 1.4 -1.2
v 0.6 1.4 -1.3
v 0.7 1.4 -1.3
v 0.6 1.5 -0.9
v 0.7 1.5 -0.9
v 0.6 1.5 -1
v 0.7 1.5 -1
v 0.6 1.5 -1.3
v 0.7 1.5 -1.3
v 0.6 1.5 -1.4
v 0.7 1.5 -1.4
v 0.7 1.8 -0.8
v 0.8 1.8 -0.8
v 1.2 1.8 -0.8
v 1.3 1.8 -0.8
v 0.7 1.8 -0.9
v 0.8 1.8 -0.9
v 1.2 1.8 -0.9
v 1.3 1.8 -0.9
v 0.8 1.9 -0.7
v 1.2 1.9 -0.7
v 0.7 1.9 -0.9
v 0.8 1.9 -0.9
v 1.2 1.9 -0.9
v 1.3 1.9 -0.9
v 0.7 1.9 -1
v 0.8 1.9 -1
v 1.2 1.9 -1
v 1.3 1.9 -1
v 0.5 2.2 -0.6
v 0.6 2.2 -0.6
v 1.4 2.2 -0.6
v 1.5 2.2 -0.6
v 0.5 2.2 -0.7
v 0.6 2.2 -0.7
v 1.4 2.2 -0.7
v 1.5 2.2 -0.7
v 0.7 2.2 -0.8
v 1.3 2.2 -0.8
v 0.7 2.2 -1.3
v 1.3 2.2 -1.3
v 0.5 2.2 -1.4
v 0.6 2.2 -1.4
v 1.4 2.2 -1.4
v 1.5 2.2 -1.4
v 0.5 2.2 -1.5
v 0.6 2.2 -1.5
v 1.4 2.2 -1.5
v 1.5 2.2 -1.5
v 0.7 2.3 -0.8
v 1.3 2.3 -0.8
v 0.8 2.3 -0.9
v 1.2 2.3 -0.9
v 0.8 2.3 -1.2
v 1.2 2.3 -1.2
v 0.7 2.3 -1.3
v 1.3 2.3 -1.3
v 0.3 2.4 -1
v 0.4 2.4 -1
v 0.3 2.4 -1.3
v 0.4 2.4 -1.3
v 0.8 2.7 -0.9
v 1.2 2.7 -0.9
v 0.9 2.7 -1
v 1.1 2.7 -1
v 0.8 2.7 -1.5
v 0.9 2.7 -1.5
v 1.1 2.7 -1.5
v 1.2 2.7 -1.5

# faces
f 3/3/1 2/3/1 1/3/1
f 4/3/1 2/3/1 3/3/1
f 5/2/1 4/2/1 3/2/1
f 6/2/1 4/2/1 5/2/1
f 7/3/1 6/3/1 5/3/1
f 9/3/1 7/3/1 5/3/1
f 9/3/1 8/3/1 7/3/1
f 10/3/1 8/3/1 9/3/1
f 15/6/1 12/6/1 11/6/1
f 16/4/1 13/4/1 12/4/1
f 16/6/1 12/6/1 15/6/1
f 17/6/1 14/6/1 13/6/1
f 17/4/1 13/4/1 16/4/1
f 18/6/1 14/6/1 17/6/1
f 23/7/1 20/7/1 19/7/1
f 24/7/1 20/7/1 23/7/1
f 26/4/1 22/4/1 21/4/1
f 27/4/1 22/4/1 26/4/1
f 28/4/1 22/4/1 27/4/1
f 29/6/1 25/6/1 24/6/1
f 30/6/1 25/6/1 29/6/1
f 31/6/1 28/6/1 27/6/1
f 32/6/1 28/6/1 31/6/1
f 37/4/1 34/4/1 33/4/1
f 38/4/1 34/4/1 37/4/1
f 39/7/1 35/7/1 34/7/1
f 39/4/1 34/4/1 38/4/1
f 40/7/1 35/7/1 39/7/1
f 41/4/1 38/4/1 37/4/1
f 41/6/1 39/6/1 38/6/1
f 42/6/1 39/6/1 41/6/1
f 43/8/1 37/8/1 36/8/1
f 43/4/1 41/4/1 37/4/1
f 44/4/1 41/4/1 43/4/1
f 45/4/1 41/4/1 44/4/1
f 46/4/1 41/4/1 45/4/1
f 47/4/1 41/4/1 46/4/1
f 48/4/1 41/4/1 47/4/1
f 49/8/1 43/8/1 36/8/1
f 50/8/1 43/8/1 49/8/1
f 51/4/1 45/4/1 44/4/1
f 52/4/1 45/4/1 51/4/1
f 53/4/1 47/4/1 46/4/1
f 54/4/1 47/4/1 53/4/1
f 56/4/1 51/4/1 50/4/1
f 57/4/1 55/4/1 54/4/1
f 57/4/1 54/4/1 53/4/1
f 57/4/1 53/4/1 52/4/1
f 58/4/1 55/4/1 57/4/1
f 60/4/1 56/4/1 50/4/1
f 60/4/1 59/4/1 58/4/1
f 60/4/1 58/4/1 57/4/1
f 60/4/1 57/4/1 56/4/1
f 61/4/1 59/4/1 60/4/1
f 62/4/1 59/4/1 61/4/1
f 63/5/1 61/5/1 60/5/1
f 64/5/1 61/5/1 63/5/1
f 65/8/1 62/8/1 61/8/1
f 65/5/1 61/5/1 64/5/1
f 66/8/1 65/8/1 64/8/1
f 67/8/1 65/8/1 66/8/1
f 68/8/1 65/8/1 67/8/1
f 69/8/1 62/8/1 65/8/1
f 69/8/1 65/8/1 68/8/1
f 72/6/1 71/6/1 70/6/1
f 73/6/1 71/6/1 72/6/1
f 76/8/1 75/8/1 74/8/1
f 77/8/1 76/8/1 74/8/1
f 79/8/1 77/8/1 74/8/1
f 79/8/1 78/8/1 77/8/1
f 80/8/1 78/8/1 79/8/1
f 82/2/1 81/2/1 80/2/1
f 83/2/1 81/2/1 82/2/1
f 86/4/1 85/4/1 84/4/1
f 87/4/1 85/4/1 86/4/1
f 90/7/1 87/7/1 86/7/1
f 91/7/1 87/7/1 90/7/1
f 92/7/1 89/7/1 88/7/1
f 93/4/1 91/4/1 90/4/1
f 93/4/1 92/4/1 91/4/1
f 94/7/1 89/7/1 92/7/1
f 94/4/1 92/4/1 93/4/1
f 95/7/1 94/7/1 93/7/1
f 96/7/1 89/7/1 94/7/1
f 96/7/1 94/7/1 95/7/1
f 99/4/1 98/4/1 97/4/1
f 100/4/1 98/4/1 99/4/1
f 104/4/1 102/4/1 101/4/1
f 105/4/1 104/4/1 103/4/1
f 106/4/1 102/4/1 104/4/1
f 106/4/1 104/4/1 105/4/1
f 107/4/1 102/4/1 106/4/1
f 108/5/1 106/5/1 105/5/1
f 109/5/1 106/5/1 108/5/1
f 110/3/2 111/3/2 112/3/2
f 112/3/2 111/3/2 113/3/2
f 114/3/2 115/3/2 116/3/2
f 114/3/2 116/3/2 118/3/2
f 116/3/2 117/3/2 118/3/2
f 118/3/2 117/3/2 119/3/2
f 120/8/2 121/8/2 122/8/2
f 122/8/2 121/8/2 123/8/2
f 124/4/2 125/4/2 126/4/2
f 126/4/2 125/4/2 127/4/2
f 127/4/2 125/4/2 128/4/2
f 126/5/2 127/5/2 129/5/2
f 129/5/2 127/5/2 130/5/2
f 131/8/2 132/8/2 133/8/2
f 133/8/2 132/8/2 134/8/2
f 135/8/2 136/8/2 137/8/2
f 137/8/2 136/8/2 138/8/2
f 139/8/2 140/8/2 141/8/2
f 139/8/2 141/8/2 142/8/2
f 139/8/2 142/8/2 144/8/2
f 142/8/2 143/8/2 144/8/2
f 144/8/2 143/8/2 145/8/2
f 145/2/2 146/2/2 147/2/2
f 147/2/2 146/2/2 148/2/2
f 149/4/2 150/4/2 151/4/2
f 151/4/2 150/4/2 152/4/2
f 151/7/2 152/7/2 155/7/2
f 155/7/2 152/7/2 156/7/2
f 153/7/2 154/7/2 157/7/2
f 155/4/2 156/4/2 158/4/2
f 156/4/2 157/4/2 158/4/2
f 157/7/2 154/7/2 159/7/2
f 158/4/2 157/4/2 159/4/2
f 158/7/2 159/7/2 160/7/2
f 159/7/2 154/7/2 161/7/2
f 160/7/2 159/7/2 161/7/2
f 162/4/2 163/4/2 165/4/2
f 163/7/2 164/7/2 166/7/2
f 165/4/2 163/4/2 166/4/2
f 166/7/2 164/7/2 167/7/2
f 162/4/2 165/4/2 168/4/2
f 165/6/2 166/6/2 168/6/2
f 168/6/2 166/6/2 169/6/2
f 162/4/2 168/4/2 170/4/2
f 170/4/2 168/4/2 171/4/2
f 171/4/2 168/4/2 172/4/2
f 170/5/2 171/5/2 173/5/2
f 173/5/2 171/5/2 174/5/2
f 171/8/2 172/8/2 175/8/2
f 174/5/2 171/5/2 175/5/2
f 174/8/2 175/8/2 176/8/2
f 176/8/2 175/8/2 177/8/2
f 177/8/2 175/8/2 178/8/2
f 175/8/2 172/8/2 179/8/2
f 178/8/2 175/8/2 179/8/2
f 180/6/2 181/6/2 182/6/2
f 182/6/2 181/6/2 183/6/2
f 184/6/2 185/6/2 188/6/2
f 185/4/2 186/4/2 189/4/2
f 188/6/2 185/6/2 189/6/2
f 186/6/2 187/6/2 190/6/2
f 189/4/2 186/4/2 190/4/2
f 190/6/2 187/6/2 191/6/2
f 194/6/3 193/6/3 192/6/3
f 195/6/3 193/6/3 194/6/3
f 196/4/3 195/4/3 194/4/3
f 197/4/3 195/4/3 196/4/3
f 198/6/3 197/6/3 196/6/3
f 199/6/3 197/6/3 198/6/3
f 202/8/3 201/8/3 200/8/3
f 203/8/3 201/8/3 202/8/3
f 204/8/3 201/8/3 203/8/3
f 206/8/3 205/8/3 204/8/3
f 206/8/3 204/8/3 203/8/3
f 207/8/3 205/8/3 206/8/3
f 208/8/3 205/8/3 207/8/3
f 209/8/3 205/8/3 208/8/3
f 210/8/3 205/8/3 209/8/3
f 211/8/3 205/8/3 210/8/3
f 216/7/3 213/7/3 212/7/3
f 217/7/3 213/7/3 216/7/3
f 222/4/3 215/4/3 214/4/3
f 224/4/3 218/4/3 217/4/3
f 225/5/3 219/5/3 218/5/3
f 225/4/3 218/4/3 224/4/3
f 226/5/3 219/5/3 225/5/3
f 227/4/3 223/4/3 222/4/3
f 229/4/3 228/4/3 227/4/3
f 231/4/3 230/4/3 229/4/3
f 234/4/3 222/4/3 214/4/3
f 234/4/3 227/4/3 222/4/3
f 234/4/3 232/4/3 231/4/3
f 234/4/3 231/4/3 229/4/3
f 234/4/3 229/4/3 227/4/3
f 235/5/3 233/5/3 232/5/3
f 235/4/3 232/4/3 234/4/3
f 236/5/3 233/5/3 235/5/3
f 237/6/3 221/6/3 220/6/3
f 238/6/3 221/6/3 237/6/3
f 241/6/3 240/6/3 239/6/3
f 242/6/3 240/6/3 241/6/3
f 245/8/3 244/8/3 243/8/3
f 246/8/3 244/8/3 245/8/3
f 254/2/3 247/2/3 246/2/3
f 255/2/3 247/2/3 254/2/3
f 256/4/3 249/4/3 248/4/3
f 257/7/3 250/7/3 249/7/3
f 257/4/3 249/4/3 256/4/3
f 258/4/3 251/4/3 250/4/3
f 258/7/3 250/7/3 257/7/3
f 259/7/3 252/7/3 251/7/3
f 259/4/3 251/4/3 258/4/3
f 260/7/3 252/7/3 259/7/3
f 261/8/3 254/8/3 253/8/3
f 262/8/3 254/8/3 261/8/3
f 267/3/3 264/3/3 263/3/3
f 268/2/3 265/2/3 264/2/3
f 268/3/3 264/3/3 267/3/3
f 269/3/3 266/3/3 265/3/3
f 269/2/3 265/2/3 268/2/3
f 270/3/3 266/3/3 269/3/3
f 271/2/3 269/2/3 268/2/3
f 272/2/3 269/2/3 271/2/3
f 273/4/3 272/4/3 271/4/3
f 274/4/3 272/4/3 273/4/3
f 277/8/3 276/8/3 275/8/3
f 278/8/3 276/8/3 277/8/3
f 281/8/3 280/8/3 279/8/3
f 282/8/3 280/8/3 281/8/3
f 285/4/3 284/4/3 283/4/3
f 286/4/3 284/4/3 285/4/3
f 289/8/3 288/8/3 287/8/3
f 290/8/3 288/8/3 289/8/3
f 293/6/3 292/6/3 291/6/3
f 294/6/3 292/6/3 293/6/3
f 297/4/3 296/4/3 295/4/3
f 298/4/3 296/4/3 297/4/3
f 301/7/3 300/7/3 299/7/3
f 302/7/3 300/7/3 301/7/3
f 303/6/3 302/6/3 301/6/3
f 304/6/3 302/6/3 303/6/3
f 305/7/3 304/7/3 303/7/3
f 306/7/3 304/7/3 305/7/3
f 307/8/4 308/8/4 310/8/4
f 308/8/4 309/8/4 310/8/4
f 310/8/4 309/8/4 311/8/4
f 311/8/4 309/8/4 312/8/4
f 312/8/4 309/8/4 313/8/4
f 313/8/4 309/8/4 314/8/4
f 315/7/4 316/7/4 317/7/4
f 317/7/4 316/7/4 318/7/4
f 319/4/4 320/4/4 321/4/4
f 321/4/4 320/4/4 322/4/4
f 323/6/4 324/6/4 325/6/4
f 325/6/4 324/6/4 326/6/4
f 327/3/4 328/3/4 331/3/4
f 328/2/4 329/2/4 332/2/4
f 331/3/4 328/3/4 332/3/4
f 329/3/4 330/3/4 333/3/4
f 332/2/4 329/2/4 333/2/4
f 333/3/4 330/3/4 334/3/4
f 332/2/4 333/2/4 335/2/4
f 335/2/4 333/2/4 336/2/4
f 335/4/4 336/4/4 337/4/4
f 337/4/4 336/4/4 338/4/4
f 340/7/4 341/7/4 342/7/4
f 340/7/4 342/7/4 343/7/4
f 339/4/4 340/4/4 344/4/4
f 340/7/4 343/7/4 345/7/4
f 344/4/4 340/4/4 345/4/4
f 345/7/4 343/7/4 346/7/4
f 347/3/4 348/3/4 349/3/4
f 349/3/4 348/3/4 350/3/4
f 351/6/4 352/6/4 353/6/4
f 353/6/4 352/6/4 354/6/4
f 355/4/4 356/4/4 359/4/4
f 356/6/4 357/6/4 360/6/4
f 359/4/4 356/4/4 360/4/4
f 360/6/4 357/6/4 361/6/4
f 358/4/4 359/4/4 364/4/4
f 359/4/4 360/4/4 364/4/4
f 361/4/4 362/4/4 364/4/4
f 360/4/4 361/4/4 364/4/4
f 362/8/4 363/8/4 365/8/4
f 364/4/4 362/4/4 365/4/4
f 365/8/4 363/8/4 366/8/4
f 367/6/4 368/6/4 369/6/4
f 369/6/4 368/6/4 370/6/4
f 373/7/4 374/7/4 375/7/4
f 375/7/4 374/7/4 376/7/4
f 375/6/4 376/6/4 377/6/4
f 377/6/4 376/6/4 378/6/4
f 377/7/4 378/7/4 379/7/4
f 379/7/4 378/7/4 380/7/4
f 371/6/4 372/6/4 381/6/4
f 381/6/4 372/6/4 382/6/4
f 369/4/4 370/4/4 383/4/4
f 383/4/4 370/4/4 384/4/4
f 383/6/4 384/6/4 385/6/4
f 385/6/4 384/6/4 386/6/4
f 387/7/4 388/7/4 389/7/4
f 389/7/4 388/7/4 390/7/4
f 395/3/5 394/3/5 393/3/5
f 396/3/5 394/3/5 395/3/5
f 397/4/5 392/4/5 391/4/5
f 398/4/5 392/4/5 397/4/5
f 399/7/5 398/7/5 397/7/5
f 400/7/5 398/7/5 399/7/5
f 403/8/5 402/8/5 401/8/5
f 404/8/5 402/8/5 403/8/5
f 407/8/5 406/8/5 405/8/5
f 408/8/5 406/8/5 407/8/5
f 413/8/5 410/8/5 409/8/5
f 414/8/5 410/8/5 413/8/5
f 415/7/5 412/7/5 411/7/5
f 416/7/5 412/7/5 415/7/5
f 420/2/5 418/2/5 417/2/5
f 421/4/5 419/4/5 418/4/5
f 421/2/5 418/2/5 420/2/5
f 422/4/5 419/4/5 421/4/5
f 425/4/5 424/4/5 423/4/5
f 426/4/5 424/4/5 425/4/5
f 429/8/5 428/8/5 427/8/5
f 430/8/5 428/8/5 429/8/5
f 433/6/5 432/6/5 431/6/5
f 434/6/5 432/6/5 433/6/5
f 437/8/5 436/8/5 435/8/5
f 438/8/5 436/8/5 437/8/5
f 441/8/5 440/8/5 439/8/5
f 442/8/5 440/8/5 441/8/5
f 447/6/5 444/6/5 443/6/5
f 448/4/5 445/4/5 444/4/5
f 448/6/5 444/6/5 447/6/5
f 449/6/5 446/6/5 445/6/5
f 449/4/5 445/4/5 448/4/5
f 450/6/5 446/6/5 449/6/5
f 451/4/5 448/4/5 447/4/5
f 451/4/5 449/4/5 448/4/5
f 451/4/5 450/4/5 449/4/5
f 452/4/5 450/4/5 451/4/5
f 453/4/5 451/4/5 447/4/5
f 454/4/5 451/4/5 453/4/5
f 455/4/5 450/4/5 452/4/5
f 456/4/5 450/4/5 455/4/5
f 457/4/5 453/4/5 447/4/5
f 458/4/5 453/4/5 457/4/5
f 459/4/5 453/4/5 458/4/5
f 460/4/5 450/4/5 456/4/5
f 461/4/5 450/4/5 460/4/5
f 462/4/5 450/4/5 461/4/5
f 463/6/5 458/6/5 457/6/5
f 464/4/5 459/4/5 458/4/5
f 464/6/5 458/6/5 463/6/5
f 464/4/5 460/4/5 459/4/5
f 464/4/5 461/4/5 460/4/5
f 465/6/5 462/6/5 461/6/5
f 465/4/5 461/4/5 464/4/5
f 466/6/5 462/6/5 465/6/5
f 469/3/5 468/3/5 467/3/5
f 470/3/5 468/3/5 469/3/5
f 475/7/5 472/7/5 471/7/5
f 476/6/5 473/6/5 472/6/5
f 476/7/5 472/7/5 475/7/5
f 477/7/5 474/7/5 473/7/5
f 477/6/5 473/6/5 476/6/5
f 478/7/5 474/7/5 477/7/5
f 483/4/5 480/4/5 479/4/5
f 484/6/5 481/6/5 480/6/5
f 484/4/5 480/4/5 483/4/5
f 485/4/5 482/4/5 481/4/5
f 485/6/5 481/6/5 484/6/5
f 486/4/5 482/4/5 485/4/5
f 487/7/6 488/7/6 489/7/6
f 489/7/6 488/7/6 490/7/6
f 491/6/6 492/6/6 493/6/6
f 493/6/6 492/6/6 494/6/6
f 495/4/6 496/4/6 497/4/6
f 495/4/6 497/4/6 499/4/6
f 497/4/6 498/4/6 499/4/6
f 499/4/6 498/4/6 500/4/6
f 501/8/6 502/8/6 504/8/6
f 504/8/6 502/8/6 505/8/6
f 503/7/6 504/7/6 508/7/6
f 508/7/6 504/7/6 509/7/6
f 506/4/6 507/4/6 510/4/6
f 510/4/6 507/4/6 511/4/6
f 512/2/6 513/2/6 515/2/6
f 513/4/6 514/4/6 516/4/6
f 515/2/6 513/2/6 516/2/6
f 516/4/6 514/4/6 517/4/6
f 518/4/6 519/4/6 520/4/6
f 520/4/6 519/4/6 521/4/6
f 522/6/6 523/6/6 524/6/6
f 524/6/6 523/6/6 525/6/6
f 526/6/6 527/6/6 528/6/6
f 528/6/6 527/6/6 529/6/6
f 530/5/6 531/5/6 534/5/6
f 534/5/6 531/5/6 535/5/6
f 532/5/6 533/5/6 536/5/6
f 536/5/6 533/5/6 537/5/6
f 538/8/6 539/8/6 541/8/6
f 541/8/6 539/8/6 542/8/6
f 540/8/6 541/8/6 544/8/6
f 544/8/6 541/8/6 545/8/6
f 542/8/6 543/8/6 546/8/6
f 546/8/6 543/8/6 547/8/6
f 548/6/6 549/6/6 552/6/6
f 549/4/6 550/4/6 553/4/6
f 552/6/6 549/6/6 553/6/6
f 550/6/6 551/6/6 554/6/6
f 553/4/6 550/4/6 554/4/6
f 554/6/6 551/6/6 555/6/6
f 552/4/6 553/4/6 556/4/6
f 553/4/6 554/4/6 556/4/6
f 554/4/6 555/4/6 556/4/6
f 556/4/6 555/4/6 557/4/6
f 552/4/6 556/4/6 558/4/6
f 557/4/6 555/4/6 559/4/6
f 552/4/6 558/4/6 560/4/6
f 558/4/6 559/4/6 560/4/6
f 560/4/6 559/4/6 561/4/6
f 559/4/6 555/4/6 562/4/6
f 561/4/6 559/4/6 562/4/6
f 562/4/6 555/4/6 563/4/6
f 560/6/6 561/6/6 564/6/6
f 561/4/6 562/4/6 565/4/6
f 564/6/6 561/6/6 565/6/6
f 562/6/6 563/6/6 566/6/6
f 565/4/6 562/4/6 566/4/6
f 566/6/6 563/6/6 567/6/6
f 568/6/6 569/6/6 570/6/6
f 570/6/6 569/6/6 571/6/6
f 568/6/6 570/6/6 572/6/6
f 571/6/6 569/6/6 573/6/6
f 568/6/6 572/6/6 574/6/6
f 572/6/6 573/6/6 574/6/6
f 573/6/6 569/6/6 575/6/6
f 574/6/6 573/6/6 575/6/6
f 576/3/6 577/3/6 578/3/6
f 578/3/6 577/3/6 579/3/6
f 580/7/6 581/7/6 582/7/6
f 582/7/6 581/7/6 583/7/6
f 580/7/6 582/7/6 584/7/6
f 582/6/6 583/6/6 585/6/6
f 584/7/6 582/7/6 585/7/6
f 583/7/6 581/7/6 586/7/6
f 585/6/6 583/6/6 586/6/6
f 586/7/6 581/7/6 587/7/6
